<?xml version="1.0" encoding="UTF-8" standalone="no"?>
<!DOCTYPE svg PUBLIC "-//W3C//DTD SVG 1.1//EN" "http://www.w3.org/Graphics/SVG/1.1/DTD/svg11.dtd">
<svg width="100%" height="100%" viewBox="0 0 32 32" version="1.1" xmlns="http://www.w3.org/2000/svg" xmlns:xlink="http://www.w3.org/1999/xlink" xml:space="preserve" xmlns:serif="http://www.serif.com/" style="fill-rule:evenodd;clip-rule:evenodd;stroke-linejoin:round;stroke-miterlimit:2;">
    <g>
        <g>
            <g id="_57370430_SVGID_1__grid" serif:id="57370430_SVGID_1__grid" transform="matrix(0.95551,0,0,1.21804,0.787061,-3.51611)">
                <path d="M7.167,3L24.833,3C25.478,3 26,3.522 26,4.167L26,27.833C26,28.478 25.478,29 24.834,29L7.167,29C6.522,29 6,28.478 6,27.834L6,4.167C6,3.522 6.522,3 7.167,3Z" style="fill:rgb(212,215,217);fill-rule:nonzero;"/>
            </g>
            <g id="_57370430_SVGID_3__grid" serif:id="57370430_SVGID_3__grid" transform="matrix(0.871137,0,0,1.21804,2.15556,-3.51611)">
                <path d="M5,7L27,7L27,8.5L5,8.5L5,7ZM5,12L27,12L27,10.5L5,10.5L5,12ZM5,15.5L27,15.5L27,14L5,14L5,15.5ZM5,19L27,19L27,17.5L5,17.5L5,19Z" style="fill:rgb(82,106,120);fill-rule:nonzero;"/>
            </g>
            <g transform="matrix(0.95551,0,0,1.21804,0.787061,-3.51611)">
                <clipPath id="_clip1">
                    <path d="M5,7L27,7L27,8.5L5,8.5L5,7ZM5,12L27,12L27,10.5L5,10.5L5,12ZM5,15.5L27,15.5L27,14L5,14L5,15.5ZM5,19L27,19L27,17.5L5,17.5L5,19Z"/>
                </clipPath>
                <g clip-path="url(#_clip1)">
                    <rect x="15" y="3" width="9" height="26.5" style="fill:rgb(3,163,134);"/>
                </g>
            </g>
        </g>
    </g>
</svg>
