<?xml version="1.0" encoding="UTF-8" standalone="no"?>
<!DOCTYPE svg PUBLIC "-//W3C//DTD SVG 1.1//EN" "http://www.w3.org/Graphics/SVG/1.1/DTD/svg11.dtd">
<svg width="100%" height="100%" viewBox="0 0 32 32" version="1.1" xmlns="http://www.w3.org/2000/svg" xmlns:xlink="http://www.w3.org/1999/xlink" xml:space="preserve" xmlns:serif="http://www.serif.com/" style="fill-rule:evenodd;clip-rule:evenodd;stroke-linejoin:round;stroke-miterlimit:2;">
    <g transform="matrix(1.17204,0,0,1.17204,-2.75267,-2.70966)">
        <g>
            <path d="M14,8.5L28,8.5C28.828,8.5 29.5,9.172 29.5,10L29.5,26L2.5,26L2.5,7C2.5,6.172 3.172,5.5 4,5.5L9,5.5C10,5.5 10.977,5.595 11.5,7C12.024,8.406 13,8.5 14,8.5Z" style="fill:rgb(63,81,92);fill-rule:nonzero;"/>
            <path d="M14,8.5L28,8.5C28.828,8.5 29.5,9.172 29.5,10L29.5,26L2.5,26L2.5,7C2.5,6.172 3.172,5.5 4,5.5L9,5.5C10,5.5 10.977,5.595 11.5,7C12.024,8.406 13,8.5 14,8.5Z" style="fill:rgb(63,81,92);fill-opacity:0.3;fill-rule:nonzero;"/>
            <path id="_57129435_SVGID_1__grid" serif:id="57129435_SVGID_1__grid" d="M14,10L28,10C28.828,10 29.5,10.672 29.5,11.5L29.5,26L2.5,26L2.5,14.5C2.5,13.672 3.172,13 4,13L9,13C10,13 10.977,12.906 11.5,11.5C12.024,10.095 13,10 14,10Z" style="fill:rgb(82,106,120);fill-rule:nonzero;"/>
            <clipPath id="_clip1">
                <path d="M14,10L28,10C28.828,10 29.5,10.672 29.5,11.5L29.5,26L2.5,26L2.5,14.5C2.5,13.672 3.172,13 4,13L9,13C10,13 10.977,12.906 11.5,11.5C12.024,10.095 13,10 14,10Z"/>
            </clipPath>
            <g clip-path="url(#_clip1)">
                <rect x="2.5" y="10" width="27" height="9.5" style="fill:rgb(82,106,120);fill-opacity:0.2;"/>
            </g>
        </g>
    </g>
</svg>
