<?xml version="1.0" encoding="UTF-8" standalone="no"?>
<!DOCTYPE svg PUBLIC "-//W3C//DTD SVG 1.1//EN" "http://www.w3.org/Graphics/SVG/1.1/DTD/svg11.dtd">
<svg width="100%" height="100%" viewBox="0 0 32 32" version="1.1" xmlns="http://www.w3.org/2000/svg" xmlns:xlink="http://www.w3.org/1999/xlink" xml:space="preserve" xmlns:serif="http://www.serif.com/" style="fill-rule:evenodd;clip-rule:evenodd;stroke-linejoin:round;stroke-miterlimit:2;">
    <g transform="matrix(1.29314,0,0,1.29314,-4.64471,-4.39557)">
        <g>
            <path id="_57129426_SVGID_1__grid" serif:id="57129426_SVGID_1__grid" d="M28,26.5C28,27.328 27.328,28 26.5,28L5.5,28C4.672,28 4,27.328 4,26.5L4,5.5C4,4.672 4.672,4 5.5,4L24,4L28,8L28,26.5Z" style="fill:rgb(63,81,92);fill-rule:nonzero;"/>
            <clipPath id="_clip1">
                <path d="M28,26.5C28,27.328 27.328,28 26.5,28L5.5,28C4.672,28 4,27.328 4,26.5L4,5.5C4,4.672 4.672,4 5.5,4L24,4L28,8L28,26.5Z"/>
            </clipPath>
            <g clip-path="url(#_clip1)">
                <path d="M7,28L7,20C7,19.172 7.672,18.5 8.5,18.5L23.5,18.5C24.328,18.5 25,19.172 25,20L25,28L7,28Z" style="fill:rgb(212,215,217);fill-rule:nonzero;"/>
            </g>
            <clipPath id="_clip2">
                <path d="M28,26.5C28,27.328 27.328,28 26.5,28L5.5,28C4.672,28 4,27.328 4,26.5L4,5.5C4,4.672 4.672,4 5.5,4L24,4L28,8L28,26.5Z"/>
            </clipPath>
            <g clip-path="url(#_clip2)">
                <rect x="7" y="25" width="18" height="3" style="fill:rgb(3,163,134);"/>
            </g>
            <path id="_57129426_SVGID_3__grid" serif:id="57129426_SVGID_3__grid" d="M23,3.5L23,12C23,12.828 22.328,13.5 21.5,13.5L11.5,13.5C10.672,13.5 10,12.828 10,12L10,3.5L23,3.5ZM20.5,5L17.5,5L17.5,12.5L20.5,12.5L20.5,5Z" style="fill:rgb(212,215,217);fill-rule:nonzero;"/>
        </g>
    </g>
</svg>
