<?xml version="1.0" encoding="UTF-8" standalone="no"?>
<!DOCTYPE svg PUBLIC "-//W3C//DTD SVG 1.1//EN" "http://www.w3.org/Graphics/SVG/1.1/DTD/svg11.dtd">
<svg width="100%" height="100%" viewBox="0 0 32 32" version="1.1" xmlns="http://www.w3.org/2000/svg" xmlns:xlink="http://www.w3.org/1999/xlink" xml:space="preserve" xmlns:serif="http://www.serif.com/" style="fill-rule:evenodd;clip-rule:evenodd;stroke-linejoin:round;stroke-miterlimit:2;">
    <g transform="matrix(1,0,0,1,-3.31084,1.13588)">
        <g id="_57129465_SVGID_1__grid" serif:id="57129465_SVGID_1__grid" transform="matrix(1.02386,0,0,0.980009,-2.62031,2.79475)">
            <path d="M26,4.5L6,4.5L6,27C6,27.828 6.672,28.5 7.5,28.5L24.5,28.5C25.328,28.5 26,27.828 26,27L26,4.5Z" style="fill:rgb(212,215,217);"/>
        </g>
        <g id="_57129465_SVGID_3__grid" serif:id="57129465_SVGID_3__grid" transform="matrix(1.02386,0,0,0.980009,-2.62031,2.79475)">
            <path d="M21.5,5.75C21.5,6.165 21.164,6.5 20.75,6.5C20.336,6.5 20,6.165 20,5.75L20,3.25C20,2.836 20.336,2.5 20.75,2.5C21.164,2.5 21.5,2.836 21.5,3.25L21.5,5.75ZM24.5,3.25C24.5,2.836 24.164,2.5 23.75,2.5C23.336,2.5 23,2.836 23,3.25L23,5.75C23,6.165 23.336,6.5 23.75,6.5C24.164,6.5 24.5,6.165 24.5,5.75L24.5,3.25ZM18.5,3.25C18.5,2.836 18.164,2.5 17.75,2.5C17.336,2.5 17,2.836 17,3.25L17,5.75C17,6.165 17.336,6.5 17.75,6.5C18.164,6.5 18.5,6.165 18.5,5.75L18.5,3.25ZM15,3.25C15,2.836 14.664,2.5 14.25,2.5C13.836,2.5 13.5,2.836 13.5,3.25L13.5,5.75C13.5,6.165 13.836,6.5 14.25,6.5C14.664,6.5 15,6.165 15,5.75L15,3.25ZM9,3.25C9,2.836 8.664,2.5 8.25,2.5C7.836,2.5 7.5,2.836 7.5,3.25L7.5,5.75C7.5,6.165 7.836,6.5 8.25,6.5C8.664,6.5 9,6.165 9,5.75L9,3.25ZM12,3.25C12,2.836 11.664,2.5 11.25,2.5C10.836,2.5 10.5,2.836 10.5,3.25L10.5,5.75C10.5,6.165 10.836,6.5 11.25,6.5C11.664,6.5 12,6.165 12,5.75L12,3.25Z" style="fill:rgb(63,81,92);fill-rule:nonzero;"/>
        </g>
        <g transform="matrix(1.02386,0,0,0.980009,-2.62031,2.79475)">
            <path d="M23,20.5L9,20.5L9,21.5L23,21.5L23,20.5ZM23,24L9,24L9,25L23,25L23,24Z" style="fill:rgb(35,31,32);fill-opacity:0.3;fill-rule:nonzero;"/>
        </g>
    </g>
    <g transform="matrix(0.98923,0,0,0.98923,-3.17025,4.14277)">
        <g id="_57129431_SVGID_3__grid" serif:id="57129431_SVGID_3__grid" transform="matrix(1.28638,0,0,1.28638,-4.20039,-5.13098)">
            <path d="M22.814,19.798C22.814,19.798 30.173,7.053 30.528,6.436C30.884,5.821 31.057,4.277 29.438,3.342C27.821,2.408 26.569,3.33 26.214,3.946C25.859,4.562 18.5,17.307 18.5,17.307L18.5,21.45C18.5,21.988 18.761,22.139 19.227,21.869C19.694,21.6 21.868,20.345 22.814,19.798Z" style="fill:rgb(82,106,120);fill-rule:nonzero;"/>
        </g>
        <g transform="matrix(1.28638,0,0,1.28638,-4.20039,-5.13098)">
            <clipPath id="_clip1">
                <path d="M22.814,19.798C22.814,19.798 30.173,7.053 30.528,6.436C30.884,5.821 31.057,4.277 29.438,3.342C27.821,2.408 26.569,3.33 26.214,3.946C25.859,4.562 18.5,17.307 18.5,17.307L18.5,21.45C18.5,21.988 18.761,22.139 19.227,21.869C19.694,21.6 21.868,20.345 22.814,19.798Z"/>
            </clipPath>
            <g clip-path="url(#_clip1)">
                <path d="M22.854,22L18.5,22L18.5,17.307L22.814,19.798L22.854,22Z" style="fill:white;fill-rule:nonzero;"/>
                <path d="M20.377,22L18.5,22L18.5,20.122L20.377,21.206L20.377,22Z" style="fill:rgb(63,81,92);fill-rule:nonzero;"/>
                <g transform="matrix(0.866,0.5,-0.5,0.866,7.171,-12.7159)">
                    <rect x="23.814" y="5.773" width="7" height="2.5" style="fill:rgb(212,215,217);"/>
                </g>
                <g transform="matrix(0.866,0.5,-0.5,0.866,6.16505,-13.7232)">
                    <rect x="25.188" y="3.142" width="7" height="3" style="fill:rgb(3,163,134);"/>
                </g>
            </g>
        </g>
    </g>
</svg>
