<svg width="32" height="32" version="1.1" viewBox="0 0 8.4667 8.4667" xmlns="http://www.w3.org/2000/svg"><g><path transform="scale(.26458)" d="m3 6c-1.662 0-3 1.338-3 3v20c2.9606e-16 1.662 1.338 3 3 3h20c1.662 0 3-1.338 3-3v-2.1523h-4.2246c-.33954.6818-1.0351 1.1523-1.8516 1.1523h-13.848c-1.1506 0-2.0762-.92556-2.0762-2.0762v-13.848c0-.81648.47054-1.512 1.1523-1.8516v-4.2246h-2.1523zm3.8496 0v4h2.3047v-3.9238c0-.026025.0071256-.050303.0078125-.076172h-2.3125zm4.0176 0c-.001613.02674-.015626.048904-.015626.076172v3.9238h9.0723c1.1506 0 2.0762.92556 2.0762 2.0762v9.0723h3.9258c.026569 0 .048151-.012141.074219-.013672v-12.135c0-1.662-1.338-3-3-3h-12.133zm15.133 16.84c-.025291.000656-.048778.007812-.074219.007812h-3.9258v2.3027h4v-2.3105z"/><path d="m2.3812 0c-.43974 0-.79375.35401-.79375.79375v5.2917c0 .43974.35401.79375.79375.79375h5.2917c.43974 0 .79375-.35401.79375-.79375v-5.2917c0-.43974-.35401-.79375-.79375-.79375zm.8139 1.0583h3.6639c.30443 0 .54932.24489.54932.54932v3.6639c0 .30443-.24489.54932-.54932.54932h-3.6639c-.30443 0-.54932-.24489-.54932-.54932v-3.6639c0-.30443.24489-.54932.54932-.54932z"/></g></svg>
