<?xml version="1.0" encoding="UTF-8" standalone="no"?>
<svg
   xmlns:dc="http://purl.org/dc/elements/1.1/"
   xmlns:cc="http://creativecommons.org/ns#"
   xmlns:rdf="http://www.w3.org/1999/02/22-rdf-syntax-ns#"
   xmlns:svg="http://www.w3.org/2000/svg"
   xmlns="http://www.w3.org/2000/svg"
   xmlns:sodipodi="http://sodipodi.sourceforge.net/DTD/sodipodi-0.dtd"
   xmlns:inkscape="http://www.inkscape.org/namespaces/inkscape"
   sodipodi:docname="copy.svg"
   inkscape:version="1.0 (4035a4fb49, 2020-05-01)"
   id="svg8"
   version="1.1"
   viewBox="0 0 8.4666665 8.4666669"
   height="32"
   width="32">
  <defs
     id="defs2">
    <marker
       inkscape:isstock="true"
       style="overflow:visible"
       id="Arrow1Lstart"
       refX="0.0"
       refY="0.0"
       orient="auto"
       inkscape:stockid="Arrow1Lstart">
      <path
         transform="scale(0.8) translate(12.5,0)"
         style="fill-rule:evenodd;stroke:#000000;stroke-width:1pt;stroke-opacity:1;fill:#000000;fill-opacity:1"
         d="M 0.0,0.0 L 5.0,-5.0 L -12.5,0.0 L 5.0,5.0 L 0.0,0.0 z "
         id="path836" />
    </marker>
  </defs>
  <sodipodi:namedview
     showguides="false"
     inkscape:window-maximized="1"
     inkscape:window-y="25"
     inkscape:window-x="25"
     inkscape:window-height="1003"
     inkscape:window-width="1870"
     inkscape:pagecheckerboard="false"
     inkscape:showpageshadow="false"
     borderlayer="false"
     showborder="true"
     units="px"
     showgrid="false"
     inkscape:document-rotation="0"
     inkscape:current-layer="layer1"
     inkscape:document-units="px"
     inkscape:cy="20.088308"
     inkscape:cx="0.98601244"
     inkscape:zoom="7.9195959"
     inkscape:pageshadow="2"
     inkscape:pageopacity="0.0"
     borderopacity="1.0"
     bordercolor="#666666"
     pagecolor="#ffffff"
     id="base" />
  <metadata
     id="metadata5">
    <rdf:RDF>
      <cc:Work
         rdf:about="">
        <dc:format>image/svg+xml</dc:format>
        <dc:type
           rdf:resource="http://purl.org/dc/dcmitype/StillImage" />
        <dc:title></dc:title>
      </cc:Work>
    </rdf:RDF>
  </metadata>
  <g
     id="layer1"
     inkscape:groupmode="layer"
     inkscape:label="Layer 1">
    <path
       transform="scale(0.26458333)"
       d="M 3 6 C 1.338 6 -5.9211895e-16 7.338 0 9 L 0 29 C 2.9605947e-16 30.662 1.338 32 3 32 L 23 32 C 24.662 32 26 30.662 26 29 L 26 26.847656 L 21.775391 26.847656 C 21.435854 27.529458 20.740303 28 19.923828 28 L 6.0761719 28 C 4.9255567 28 4 27.074444 4 25.923828 L 4 12.076172 C 4 11.259696 4.4705426 10.564145 5.1523438 10.224609 L 5.1523438 6 L 3 6 z M 6.8496094 6 L 6.8496094 10 L 9.1542969 10 L 9.1542969 6.0761719 C 9.1542969 6.0501465 9.1614225 6.025869 9.1621094 6 L 6.8496094 6 z M 10.867188 6 C 10.865575 6.0267401 10.851562 6.0489038 10.851562 6.0761719 L 10.851562 10 L 19.923828 10 C 21.074443 10 22 10.925556 22 12.076172 L 22 21.148438 L 25.925781 21.148438 C 25.95235 21.148438 25.973932 21.136297 26 21.134766 L 26 9 C 26 7.338 24.662 6 23 6 L 10.867188 6 z M 26 22.839844 C 25.974709 22.8405 25.951222 22.847656 25.925781 22.847656 L 22 22.847656 L 22 25.150391 L 26 25.150391 L 26 22.839844 z "
       style="fill:#000000;stroke:none;stroke-width:1.7;stroke-linecap:round;stroke-linejoin:round;stroke-miterlimit:4;stroke-dasharray:none;stroke-dashoffset:0;stroke-opacity:1;paint-order:normal"
       id="rect1327" />
    <path
       id="path1336"
       style="fill:#000000;stroke:none;stroke-width:0.449792;stroke-linecap:round;stroke-linejoin:round;stroke-miterlimit:4;stroke-dasharray:none;stroke-dashoffset:0;stroke-opacity:1;paint-order:normal"
       d="M 2.38125,0 C 1.9415125,0 1.5875,0.3540125 1.5875,0.79375 v 5.2916666 c 0,0.4397375 0.3540125,0.79375 0.79375,0.79375 h 5.2916666 c 0.4397375,0 0.79375,-0.3540125 0.79375,-0.79375 V 0.79375 C 8.4666666,0.3540125 8.1126541,0 7.6729166,0 Z m 0.8139038,1.0583333 h 3.663859 c 0.3044335,0 0.5493205,0.2448867 0.5493205,0.5493205 v 3.6638589 c 0,0.3044339 -0.244887,0.5493205 -0.5493205,0.5493205 h -3.663859 c -0.3044336,0 -0.5493205,-0.2448866 -0.5493205,-0.5493205 V 1.6076538 c 0,-0.3044338 0.2448869,-0.5493205 0.5493205,-0.5493205 z" />
  </g>
</svg>
