<svg width="32" height="32" version="1.1" viewBox="0 0 8.4667 8.4667" xmlns="http://www.w3.org/2000/svg"><path transform="scale(.26458)" d="m15.992 2.9707a14.458 14.458 0 00-14.449 14.457 14.458 14.458 0 0014.457 14.459 14.458 14.458 0 0014.457-14.459 14.458 14.458 0 00-14.457-14.457 14.458 14.458 0 00-.007812 0zm.007812 4.9258c1.205 0 2.1758 1.0976 2.1758 2.4609v8.418c0 1.3633-.97083 2.4609-2.1758 2.4609s-2.1758-1.0976-2.1758-2.4609v-8.418c0-1.3633.97083-2.4609 2.1758-2.4609zm0 14.312a2.375 2.375 0 012.375 2.375 2.375 2.375 0 01-2.375 2.375 2.375 2.375 0 01-2.375-2.375 2.375 2.375 0 012.375-2.375z"/></svg>
