<svg data-name="Lager 1" version="1.1" viewBox="0 0 82.33 82.33" xmlns="http://www.w3.org/2000/svg"><defs><style>.cls-1 {
        fill: url(#linear-gradient);
      }

      .cls-2, .cls-5 {
        fill: #fff;
      }

      .cls-3 {
        fill: #0067a6;
      }

      .cls-4 {
        mask: url(#mask);
      }

      .cls-5 {
        opacity: 0.79;
      }</style><linearGradient id="linear-gradient" x1="40.68" x2="40.68" y1="250.24" y2="209.91" gradientTransform="matrix(1 0 0 -1 0 257.03)" gradientUnits="userSpaceOnUse"><stop stop-color="#fff" offset="0"/><stop offset="1"/></linearGradient><mask id="mask" x="16.61" y="6.79" width="48.14" height="42.54" maskUnits="userSpaceOnUse"><ellipse class="cls-1" cx="40.68" cy="26.96" rx="24.07" ry="20.17"/></mask></defs><title>padlock-white</title><path d="m37.679 43.501c-.60946.5669-.94928 1.3219-.83829 2.1042.1762.89649.82318 1.6277 1.6915 1.9118l-.81216 4.1392 6.2807-.89991-1.951-3.7266c.75634-.52049 1.1703-1.4107 1.081-2.3244-.09939-.66861-.51024-1.2268-1.0922-1.6094 0 0-1.8481-8.5112-5.293-8.1514l-3.8648.55451c-.65631-2.9802-1.2251-8.467 2.7856-10.448 3.9307-.27143 2.2412 9.6166 5.4144 9.2717l4.8524-.69641c-.29704-3.0349-1.4643-8.4436-5.9334-9.1951-3.6635.3172-1.0289-4.687-4.8617-4.2195-7.7806 2.4753-7.266 11.843-6.6821 15.926l-1.1371.16617c-.96968.05177-1.7229.86448-1.7009 1.8353l3.0881 21.508c.24458.95022 1.2061 1.5286 2.1602 1.2995l23.8-3.4223c.97552-.05584 1.7299-.8772 1.7027-1.854l-3.0974-21.499c-.24874-.94194-1.2027-1.5142-2.1508-1.2901l-1.0474.15123c-.58824-4.0295-2.7527-12.946-10.595-13.385-4.0723.37666-1.4821-9.4654-5.4125-9.2381-14.489 3.1254-24.833 15.937-24.834 30.76 4.01e-5 17.38 14.089 31.469 31.469 31.469 17.38-4.1e-5 31.469-14.089 31.469-31.469-4e-5-17.38-14.089-31.469-31.469-31.469-.02739-3.58e-5-.05476-3.58e-5-.08215 0h2e-6c-.74012.00253-1.48.031181-2.218.085884-4.1952.55215-1.0013-7.713-5.1847-7.1675-7.6766 1.5756-14.539 5.3862-19.875 10.723-7.1219 7.1219-11.527 16.961-11.527 27.828 0 21.736 17.62 39.355 39.355 39.355s39.355-17.62 39.355-39.355-17.62-39.355-39.355-39.355c-1.2213 0-2.4273.062897-3.6202.17177" fill="none" stroke="#000" stroke-linecap="round" stroke-linejoin="round" stroke-width="1.8065"/></svg>
