<svg width="32" height="32" version="1.1" viewBox="0 0 8.4667 8.4667" xmlns="http://www.w3.org/2000/svg"><circle class="cls-2" cx="4.2333" cy="4.2333" r="4.2333" fill="#fff" stroke-width=".10282"/><g display="none"><circle class="cls-3" cx="4.2333" cy="4.2333" r="3.3073" fill="#03a388" stroke-width=".10046"/><path class="cls-2" d="m5.2957 3.6655-2.2771.32688-.21959.032086a.18851.18851 0 00-.17848.19252l.32387 2.2561a.18851.18851 0 00.22661.13637l2.4967-.35896a.18951.18951 0 00.17848-.19452l-.32487-2.2551a.18851.18851 0 00-.22561-.13536zm-.74701 1.875-.65877.094253.085229-.43417a.26471.26471 0 01-.17748-.20054c-.021056-.1484.10929-.28978.29078-.31585s.34693.073197.36899.22159a.26471.26471 0 01-.1133.24365z" fill="#fff" stroke-width=".10027"/><path d="m3.8892 1.853c-.071849-.00287-.1483.00107-.22933.01273-.79214.11395-.94057.79447-.93806 1.3156l-.00157.0002005c5.24e-5.013669.00113.025234.00137.03858.0002506.013067-.0006215.027325-.0002006.040147h.00176c.00322.10033.00989.19368.01978.2728l.46277-.059731c-.013584-.067651-.025231-.14486-.032313-.22619-.00359-.040268-.0062-.081408-.00685-.12318-.00532-.33737.10006-.70344.56362-.77004.47613-.068401.68842.27165.78453.60416.037546.13349.14174.74739.15256.8472l.43476-.05601c-.014493-.094696-.11504-.67127-.1555-.83035h.00176c-.00171-.00631-.0043-.013035-.00607-.019388-.0002507-.0009209-.0007314-.00382-.0009815-.0047h-.00039c-.12778-.45447-.41332-1.0164-1.0516-1.0419z" fill="#fff" stroke-width=".10027"/></g><g><circle class="cls-3" cx="4.2333" cy="4.2333" r="3.3073" fill="#c5283e" stroke-width=".10046"/><path class="cls-2" d="m5.2789 3.4662-2.2413.32173-.21613.031581a.18554.18554 0 00-.17567.18949l.31877 2.2205a.18554.18554 0 00.22304.13422l2.4574-.35331a.18653.18653 0 00.17567-.19146l-.31976-2.2196a.18554.18554 0 00-.22205-.13323zm-.73525 1.8455-.6484.092769.083887-.42733a.26054.26054 0 01-.17468-.19738c-.020725-.14606.10757-.28522.2862-.31088.17863-.02566.34147.072044.36318.21811a.26054.26054 0 01-.11152.23982z" fill="#fff" stroke-width=".09869"/><path class="cls-2" d="m2.9725 4.009c0-.02862-.4145-1.7143.86157-1.8978s1.3609 1.5791 1.3609 1.5791l-.44115.064149s.02862-1.2889-.85071-1.1626c-.87933.12632-.452 1.3501-.452 1.3501z" fill="#fff" stroke-width=".09869"/></g></svg>
