<?xml version="1.0" encoding="UTF-8" standalone="no"?>
<svg
   xmlns:dc="http://purl.org/dc/elements/1.1/"
   xmlns:cc="http://creativecommons.org/ns#"
   xmlns:rdf="http://www.w3.org/1999/02/22-rdf-syntax-ns#"
   xmlns:svg="http://www.w3.org/2000/svg"
   xmlns="http://www.w3.org/2000/svg"
   xmlns:sodipodi="http://sodipodi.sourceforge.net/DTD/sodipodi-0.dtd"
   xmlns:inkscape="http://www.inkscape.org/namespaces/inkscape"
   id="Lager_1"
   data-name="Lager 1"
   viewBox="0 0 82.33 82.33"
   version="1.1"
   sodipodi:docname="padlock.svg"
   inkscape:version="0.92.4 5da689c313, 2019-01-14">
  <metadata
     id="metadata913">
    <rdf:RDF>
      <cc:Work
         rdf:about="">
        <dc:format>image/svg+xml</dc:format>
        <dc:type
           rdf:resource="http://purl.org/dc/dcmitype/StillImage" />
        <dc:title>padlock-white</dc:title>
      </cc:Work>
    </rdf:RDF>
  </metadata>
  <sodipodi:namedview
     pagecolor="#ffffff"
     bordercolor="#666666"
     borderopacity="1"
     objecttolerance="10"
     gridtolerance="10"
     guidetolerance="10"
     inkscape:pageopacity="0"
     inkscape:pageshadow="2"
     inkscape:window-width="1870"
     inkscape:window-height="1003"
     id="namedview911"
     showgrid="false"
     inkscape:pagecheckerboard="true"
     inkscape:zoom="6.9568381"
     inkscape:cx="55.966647"
     inkscape:cy="43.154588"
     inkscape:window-x="25"
     inkscape:window-y="25"
     inkscape:window-maximized="1"
     inkscape:current-layer="Lager_1" />
  <defs
     id="defs894">
    <style
       id="style884">
      .cls-1 {
        fill: url(#linear-gradient);
      }

      .cls-2, .cls-5 {
        fill: #fff;
      }

      .cls-3 {
        fill: #0067a6;
      }

      .cls-4 {
        mask: url(#mask);
      }

      .cls-5 {
        opacity: 0.79;
      }
    </style>
    <linearGradient
       id="linear-gradient"
       x1="40.68"
       y1="250.24"
       x2="40.68"
       y2="209.91"
       gradientTransform="matrix(1, 0, 0, -1, 0, 257.03)"
       gradientUnits="userSpaceOnUse">
      <stop
         offset="0"
         stop-color="#fff"
         id="stop886" />
      <stop
         offset="1"
         id="stop888" />
    </linearGradient>
    <mask
       id="mask"
       x="16.61"
       y="6.79"
       width="48.14"
       height="42.54"
       maskUnits="userSpaceOnUse">
      <ellipse
         class="cls-1"
         cx="40.68"
         cy="26.96"
         rx="24.07"
         ry="20.17"
         id="ellipse891" />
    </mask>
  </defs>
  <title
     id="title896">padlock-white</title>
  <circle
     class="cls-2"
     cx="41.17"
     cy="41.17"
     r="41.17"
     id="circle898" />
  <circle
     class="cls-3"
     cx="40.68"
     cy="41.17"
     r="32.92"
     id="circle900" />
  <g
     class="cls-4"
     mask="url(#mask)"
     id="g904">
    <ellipse
       class="cls-5"
       cx="40.68"
       cy="29.17"
       rx="24.07"
       ry="20.17"
       id="ellipse902" />
  </g>
  <path
     d="M 39.226562 18.642578 C 38.509998 18.61394 37.747578 18.653281 36.939453 18.769531 C 26.628114 20.252833 27.210164 31.298545 27.869141 35.90625 L 26.679688 36.080078 A 1.88 1.88 0 0 0 24.900391 38 L 28.130859 60.5 A 1.88 1.88 0 0 0 30.390625 61.859375 L 55.289062 58.279297 A 1.89 1.89 0 0 0 57.070312 56.339844 L 53.830078 33.849609 A 1.88 1.88 0 0 0 51.580078 32.5 L 50.484375 32.658203 C 49.864614 28.412802 47.57536 18.97624 39.226562 18.642578 z M 38.449219 23.560547 C 44.382524 23.26865 45.810536 29.787018 46.152344 33.279297 L 32.498047 35.238281 C 31.708201 31.651668 31.030704 24.590198 37.640625 23.640625 C 37.919063 23.600625 38.18846 23.573375 38.449219 23.560547 z M 40.208984 42.619141 C 41.740371 42.654688 43.028203 43.574141 43.220703 44.869141 A 2.64 2.64 0 0 1 42.089844 47.300781 L 44.130859 51.199219 L 37.560547 52.140625 L 38.410156 47.810547 A 2.64 2.64 0 0 1 36.640625 45.810547 C 36.430625 44.330547 37.729062 42.920156 39.539062 42.660156 C 39.765313 42.627656 39.990215 42.614063 40.208984 42.619141 z "
     id="path906"
     style="fill:#ffffff" />
</svg>
