<?xml version="1.0" encoding="UTF-8" standalone="no"?>
<svg
   xmlns:dc="http://purl.org/dc/elements/1.1/"
   xmlns:cc="http://creativecommons.org/ns#"
   xmlns:rdf="http://www.w3.org/1999/02/22-rdf-syntax-ns#"
   xmlns:svg="http://www.w3.org/2000/svg"
   xmlns="http://www.w3.org/2000/svg"
   xmlns:sodipodi="http://sodipodi.sourceforge.net/DTD/sodipodi-0.dtd"
   xmlns:inkscape="http://www.inkscape.org/namespaces/inkscape"
   inkscape:version="1.0 (4035a4fb49, 2020-05-01)"
   sodipodi:docname="padlock_stroke.svg"
   version="1.1"
   viewBox="0 0 82.33 82.33"
   data-name="Lager 1"
   id="Lager_1">
  <metadata
     id="metadata913">
    <rdf:RDF>
      <cc:Work
         rdf:about="">
        <dc:format>image/svg+xml</dc:format>
        <dc:type
           rdf:resource="http://purl.org/dc/dcmitype/StillImage" />
        <dc:title>padlock-white</dc:title>
      </cc:Work>
    </rdf:RDF>
  </metadata>
  <sodipodi:namedview
     inkscape:snap-global="false"
     inkscape:document-rotation="0"
     inkscape:current-layer="Lager_1"
     inkscape:window-maximized="1"
     inkscape:window-y="25"
     inkscape:window-x="25"
     inkscape:cy="50.188242"
     inkscape:cx="-66.954285"
     inkscape:zoom="2.4596137"
     inkscape:pagecheckerboard="true"
     showgrid="false"
     id="namedview911"
     inkscape:window-height="1003"
     inkscape:window-width="1870"
     inkscape:pageshadow="2"
     inkscape:pageopacity="0"
     guidetolerance="10"
     gridtolerance="10"
     objecttolerance="10"
     borderopacity="1"
     bordercolor="#666666"
     pagecolor="#ffffff" />
  <defs
     id="defs894">
    <style
       id="style884">
      .cls-1 {
        fill: url(#linear-gradient);
      }

      .cls-2, .cls-5 {
        fill: #fff;
      }

      .cls-3 {
        fill: #0067a6;
      }

      .cls-4 {
        mask: url(#mask);
      }

      .cls-5 {
        opacity: 0.79;
      }
    </style>
    <linearGradient
       gradientUnits="userSpaceOnUse"
       gradientTransform="matrix(1, 0, 0, -1, 0, 257.03)"
       y2="209.91"
       x2="40.68"
       y1="250.24"
       x1="40.68"
       id="linear-gradient">
      <stop
         id="stop886"
         stop-color="#fff"
         offset="0" />
      <stop
         id="stop888"
         offset="1" />
    </linearGradient>
    <mask
       maskUnits="userSpaceOnUse"
       height="42.54"
       width="48.14"
       y="6.79"
       x="16.61"
       id="mask">
      <ellipse
         id="ellipse891"
         ry="20.17"
         rx="24.07"
         cy="26.96"
         cx="40.68"
         class="cls-1" />
    </mask>
  </defs>
  <title
     id="title896">padlock-white</title>
  <path
     sodipodi:nodetypes="cccccccccccccccccccccccccccccccccccsssssc"
     d="m 37.517578,43.609375 c -0.637558,0.593045 -0.993053,1.382943 -0.876953,2.201172 0.184321,0.937832 0.861139,1.702801 1.769531,2 l -0.849609,4.330078 6.570312,-0.941406 -2.041015,-3.898438 c 0.791219,-0.544489 1.224302,-1.47573 1.130859,-2.43164 -0.10397,-0.699435 -0.533766,-1.283357 -1.142578,-1.683594 0,0 -1.933258,-8.903749 -5.537109,-8.527344 l -4.042969,0.580078 c -0.686569,-3.117641 -1.281643,-8.857407 2.914062,-10.929687 4.111972,-0.283947 2.344452,10.059673 5.664063,9.699218 l 5.076172,-0.728515 c -0.310743,-3.174885 -1.531793,-8.832982 -6.207032,-9.619141 -3.832434,0.331828 -1.076298,-4.903074 -5.085937,-4.414062 -8.139383,2.589398 -7.601146,12.388533 -6.990234,16.660156 l -1.189453,0.173828 C 25.665287,36.134231 24.877375,36.984416 24.900391,38 l 3.230468,22.5 c 0.255858,0.994037 1.26172,1.599119 2.259766,1.359375 l 24.898437,-3.580078 c 1.020527,-0.05842 1.809667,-0.91765 1.78125,-1.939453 L 53.830078,33.849609 C 53.569865,32.864243 52.571912,32.265644 51.580078,32.5 l -1.095703,0.158203 C 49.869013,28.442934 47.604749,19.115127 39.400391,18.65625 35.140254,19.050277 37.849972,8.7543273 33.738281,8.9921875 18.581458,12.261651 7.7607572,25.664482 7.7597656,41.169922 7.7598076,59.351076 22.498534,74.089802 40.679688,74.089844 58.860841,74.089801 73.599567,59.351075 73.599609,41.169922 73.599567,22.988769 58.860841,8.2500425 40.679688,8.25 c -0.02865,-3.74e-5 -0.05729,-3.74e-5 -0.08594,0 h 2e-6 C 39.819497,8.25265 39.045578,8.282619 38.273438,8.339844 33.8847,8.9174499 37.225959,0.27111322 32.849609,0.84179688 24.819001,2.49005 17.640821,6.4763663 12.058594,12.058594 4.6082898,19.508898 0,29.801141 0,41.169922 c 0,22.737562 18.43236,41.169922 41.169922,41.169922 22.737562,0 41.169922,-18.43236 41.169922,-41.169922 C 82.339844,18.43236 63.907484,0 41.169922,0 39.892285,0 38.630757,0.06579738 37.382812,0.1796875"
     style="fill:none;stroke:#000000;stroke-opacity:1;stroke-width:1.88976378;stroke-linejoin:round;stroke-linecap:round"
     id="path906" />
</svg>
