<?xml version="1.0" encoding="UTF-8" standalone="no"?>
<svg
   xmlns:dc="http://purl.org/dc/elements/1.1/"
   xmlns:cc="http://creativecommons.org/ns#"
   xmlns:rdf="http://www.w3.org/1999/02/22-rdf-syntax-ns#"
   xmlns:svg="http://www.w3.org/2000/svg"
   xmlns="http://www.w3.org/2000/svg"
   xmlns:sodipodi="http://sodipodi.sourceforge.net/DTD/sodipodi-0.dtd"
   xmlns:inkscape="http://www.inkscape.org/namespaces/inkscape"
   id="Lager_1"
   data-name="Lager 1"
   viewBox="0 0 82.33 82.33"
   version="1.1"
   sodipodi:docname="padlock-inactive.svg"
   inkscape:version="0.92.4 5da689c313, 2019-01-14">
  <metadata
     id="metadata1100">
    <rdf:RDF>
      <cc:Work
         rdf:about="">
        <dc:format>image/svg+xml</dc:format>
        <dc:type
           rdf:resource="http://purl.org/dc/dcmitype/StillImage" />
        <dc:title>padlock-white</dc:title>
      </cc:Work>
    </rdf:RDF>
  </metadata>
  <sodipodi:namedview
     pagecolor="#ffffff"
     bordercolor="#666666"
     borderopacity="1"
     objecttolerance="10"
     gridtolerance="10"
     guidetolerance="10"
     inkscape:pageopacity="0"
     inkscape:pageshadow="2"
     inkscape:window-width="1870"
     inkscape:window-height="1003"
     id="namedview1098"
     showgrid="false"
     inkscape:pagecheckerboard="true"
     inkscape:zoom="5.7330255"
     inkscape:cx="49.526865"
     inkscape:cy="48.543996"
     inkscape:window-x="25"
     inkscape:window-y="25"
     inkscape:window-maximized="0"
     inkscape:current-layer="Lager_1" />
  <defs
     id="defs1081">
    <style
       id="style1071">
      .cls-1 {
        fill: url(#linear-gradient);
      }

      .cls-2, .cls-5 {
        fill: #fff;
      }

      .cls-3 {
        fill: #0067a6;
      }

      .cls-4 {
        mask: url(#mask);
      }

      .cls-5 {
        opacity: 0.79;
      }
    </style>
    <linearGradient
       id="linear-gradient"
       x1="40.68"
       y1="250.24"
       x2="40.68"
       y2="209.91"
       gradientTransform="matrix(1, 0, 0, -1, 0, 257.03)"
       gradientUnits="userSpaceOnUse">
      <stop
         offset="0"
         stop-color="#fff"
         id="stop1073" />
      <stop
         offset="1"
         id="stop1075" />
    </linearGradient>
    <mask
       id="mask"
       x="16.61"
       y="6.79"
       width="48.14"
       height="42.54"
       maskUnits="userSpaceOnUse">
      <ellipse
         class="cls-1"
         cx="40.68"
         cy="26.96"
         rx="24.07"
         ry="20.17"
         id="ellipse1078" />
    </mask>
  </defs>
  <title
     id="title1083">padlock-white</title>
  <circle
     class="cls-2"
     cx="41.17"
     cy="41.17"
     r="41.17"
     id="circle1085" />
  <circle
     class="cls-3"
     cx="40.68"
     cy="41.17"
     r="32.92"
     id="circle1087"
     style="fill:#b3b3b3" />
  <g
     class="cls-4"
     mask="url(#mask)"
     id="g1091">
    <ellipse
       class="cls-5"
       cx="40.68"
       cy="29.17"
       rx="24.07"
       ry="20.17"
       id="ellipse1089" />
  </g>
  <path
     class="cls-2"
     d="M51.58,32.5,28.87,35.76l-2.19.32A1.88,1.88,0,0,0,24.9,38l3.23,22.5a1.88,1.88,0,0,0,2.26,1.36l24.9-3.58a1.89,1.89,0,0,0,1.78-1.94L53.83,33.85A1.88,1.88,0,0,0,51.58,32.5ZM44.13,51.2l-6.57.94.85-4.33a2.64,2.64,0,0,1-1.77-2c-.21-1.48,1.09-2.89,2.9-3.15s3.46.73,3.68,2.21a2.64,2.64,0,0,1-1.13,2.43Z"
     id="path1093" />
  <path
     class="cls-2"
     d="M28.21,38c0-.29-4.2-17.37,8.73-19.23s13.79,16,13.79,16l-4.47.65s.29-13.06-8.62-11.78-4.58,13.68-4.58,13.68Z"
     id="path1095" />
</svg>
