<svg data-name="Lager 1" version="1.1" viewBox="0 0 82.33 82.33" xmlns="http://www.w3.org/2000/svg"><defs><style>.cls-1 {
        fill: url(#linear-gradient);
      }

      .cls-2, .cls-5 {
        fill: #fff;
      }

      .cls-3 {
        fill: #0067a6;
      }

      .cls-4 {
        mask: url(#mask);
      }

      .cls-5 {
        opacity: 0.79;
      }</style><linearGradient id="linear-gradient" x1="40.68" x2="40.68" y1="250.24" y2="209.91" gradientTransform="matrix(1 0 0 -1 0 257.03)" gradientUnits="userSpaceOnUse"><stop stop-color="#fff" offset="0"/><stop offset="1"/></linearGradient><mask id="mask" x="16.61" y="6.79" width="48.14" height="42.54" maskUnits="userSpaceOnUse"><ellipse class="cls-1" cx="40.68" cy="26.96" rx="24.07" ry="20.17"/></mask></defs><title>padlock-white</title><circle class="cls-2" cx="41.17" cy="41.17" r="41.17"/><circle class="cls-3" cx="40.68" cy="41.17" r="32.92"/><g class="cls-4" mask="url(#mask)"><ellipse class="cls-5" cx="40.68" cy="29.17" rx="24.07" ry="20.17"/></g><path d="m39.227 18.643c-.71656-.028638-1.479.010703-2.2871.12695-10.311 1.4833-9.7293 12.529-9.0703 17.137l-1.1895.17383a1.88 1.88 0 00-1.7793 1.9199l3.2305 22.5a1.88 1.88 0 002.2598 1.3594l24.898-3.5801a1.89 1.89 0 001.7812-1.9395l-3.2402-22.49a1.88 1.88 0 00-2.25-1.3496l-1.0957.1582c-.61976-4.2454-2.909-13.682-11.258-14.016zm-.77734 4.918c5.9333-.2919 7.3613 6.2265 7.7031 9.7188l-13.654 1.959c-.78985-3.5866-1.4673-10.648 5.1426-11.598.27844-.04.54784-.06725.80859-.080078zm1.7598 19.059c1.5314.035547 2.8192.955 3.0117 2.25a2.64 2.64 0 01-1.1309 2.4316l2.041 3.8984-6.5703.94141.84961-4.3301a2.64 2.64 0 01-1.7695-2c-.21-1.48 1.0884-2.8904 2.8984-3.1504.22625-.0325.45115-.046093.66992-.041015z" fill="#fff"/></svg>
