<?xml version="1.0" encoding="UTF-8" standalone="no"?>
<svg
   xmlns:dc="http://purl.org/dc/elements/1.1/"
   xmlns:cc="http://creativecommons.org/ns#"
   xmlns:rdf="http://www.w3.org/1999/02/22-rdf-syntax-ns#"
   xmlns:svg="http://www.w3.org/2000/svg"
   xmlns="http://www.w3.org/2000/svg"
   xmlns:sodipodi="http://sodipodi.sourceforge.net/DTD/sodipodi-0.dtd"
   xmlns:inkscape="http://www.inkscape.org/namespaces/inkscape"
   id="svg8"
   version="1.1"
   viewBox="0 0 10.583333 10.583334"
   height="40"
   width="40"
   sodipodi:docname="search.svg"
   inkscape:version="1.0 (4035a4fb49, 2020-05-01)">
  <sodipodi:namedview
     inkscape:document-rotation="0"
     pagecolor="#ffffff"
     bordercolor="#666666"
     borderopacity="1"
     objecttolerance="10"
     gridtolerance="10"
     guidetolerance="10"
     inkscape:pageopacity="0"
     inkscape:pageshadow="2"
     inkscape:window-width="1870"
     inkscape:window-height="1003"
     id="namedview963"
     showgrid="false"
     inkscape:zoom="12.487506"
     inkscape:cx="18.104668"
     inkscape:cy="18.067794"
     inkscape:window-x="25"
     inkscape:window-y="25"
     inkscape:window-maximized="0"
     inkscape:current-layer="svg8" />
  <defs
     id="defs2" />
  <metadata
     id="metadata5">
    <rdf:RDF>
      <cc:Work
         rdf:about="">
        <dc:format>image/svg+xml</dc:format>
        <dc:type
           rdf:resource="http://purl.org/dc/dcmitype/StillImage" />
        <dc:title></dc:title>
      </cc:Work>
    </rdf:RDF>
  </metadata>
  <path
     id="path1526"
     style="opacity:1;fill:#000000;fill-opacity:1;stroke:none;stroke-width:0.963125;stroke-linecap:butt;stroke-miterlimit:4;stroke-dasharray:none;stroke-dashoffset:0;stroke-opacity:1"
     d="m 7.1230699,0.39900625 a 3.0579128,3.0579128 0 0 0 -3.0545682,3.05791285 3.0579128,3.0579128 0 0 0 0.5661916,1.7721561 3.0579128,3.0579128 0 0 0 0,4.778e-4 L 0.39900627,9.4647623 1.1185714,10.184327 5.3537806,5.949118 A 3.0579128,3.0579128 0 0 0 7.1264145,6.5148319 3.0579128,3.0579128 0 0 0 10.184327,3.4569191 3.0579128,3.0579128 0 0 0 7.1264145,0.39900625 a 3.0579128,3.0579128 0 0 0 -0.00334,0 z M 7.0939243,1.295357 a 2.1616106,2.1616106 0 0 1 0.03249,0 A 2.1616106,2.1616106 0 0 1 9.2879768,3.4569191 2.1616106,2.1616106 0 0 1 7.1264145,5.6184813 2.1616106,2.1616106 0 0 1 4.9648522,3.4569191 2.1616106,2.1616106 0 0 1 7.0939243,1.295357 Z" />
</svg>
