<?xml version="1.0" encoding="UTF-8" standalone="no"?>
<svg
   xmlns:dc="http://purl.org/dc/elements/1.1/"
   xmlns:cc="http://creativecommons.org/ns#"
   xmlns:rdf="http://www.w3.org/1999/02/22-rdf-syntax-ns#"
   xmlns:svg="http://www.w3.org/2000/svg"
   xmlns="http://www.w3.org/2000/svg"
   xmlns:sodipodi="http://sodipodi.sourceforge.net/DTD/sodipodi-0.dtd"
   xmlns:inkscape="http://www.inkscape.org/namespaces/inkscape"
   inkscape:version="1.0 (4035a4fb49, 2020-05-01)"
   sodipodi:docname="search.svg"
   width="40"
   height="40"
   viewBox="0 0 10.583333 10.583334"
   version="1.1"
   id="svg8">
  <sodipodi:namedview
     inkscape:current-layer="svg8"
     inkscape:window-maximized="0"
     inkscape:window-y="25"
     inkscape:window-x="25"
     inkscape:cy="18.067794"
     inkscape:cx="10.817384"
     inkscape:zoom="12.487506"
     showgrid="false"
     id="namedview963"
     inkscape:window-height="1003"
     inkscape:window-width="1870"
     inkscape:pageshadow="2"
     inkscape:pageopacity="0"
     guidetolerance="10"
     gridtolerance="10"
     objecttolerance="10"
     borderopacity="1"
     bordercolor="#666666"
     pagecolor="#ffffff" />
  <defs
     id="defs2" />
  <metadata
     id="metadata5">
    <rdf:RDF>
      <cc:Work
         rdf:about="">
        <dc:format>image/svg+xml</dc:format>
        <dc:type
           rdf:resource="http://purl.org/dc/dcmitype/StillImage" />
        <dc:title></dc:title>
      </cc:Work>
    </rdf:RDF>
  </metadata>
  <path
     transform="scale(0.26458334)"
     d="M 27.486328 0 A 12.5 12.5 0 0 0 15 12.5 A 12.5 12.5 0 0 0 17.314453 19.744141 A 12.5 12.5 0 0 0 17.314453 19.746094 L 0 37.058594 L 2.9414062 40 L 20.253906 22.6875 A 12.5 12.5 0 0 0 27.5 25 A 12.5 12.5 0 0 0 40 12.5 A 12.5 12.5 0 0 0 27.5 0 A 12.5 12.5 0 0 0 27.486328 0 z M 27.367188 3.6640625 A 8.8361355 8.8361355 0 0 1 27.5 3.6640625 A 8.8361355 8.8361355 0 0 1 36.335938 12.5 A 8.8361355 8.8361355 0 0 1 27.5 21.335938 A 8.8361355 8.8361355 0 0 1 18.664062 12.5 A 8.8361355 8.8361355 0 0 1 27.367188 3.6640625 z "
     style="opacity:1;fill:#000000;fill-opacity:1;stroke:none;stroke-width:3.93702;stroke-linecap:butt;stroke-miterlimit:4;stroke-dasharray:none;stroke-dashoffset:0;stroke-opacity:1"
     id="path1526" />
</svg>
