<?xml version="1.0" encoding="UTF-8" standalone="no"?>
<svg
   xmlns:dc="http://purl.org/dc/elements/1.1/"
   xmlns:cc="http://creativecommons.org/ns#"
   xmlns:rdf="http://www.w3.org/1999/02/22-rdf-syntax-ns#"
   xmlns:svg="http://www.w3.org/2000/svg"
   xmlns="http://www.w3.org/2000/svg"
   id="svg8"
   version="1.1"
   viewBox="0 0 26.458333 26.458334"
   height="100"
   width="100">
  <defs
     id="defs2" />
  <metadata
     id="metadata5">
    <rdf:RDF>
      <cc:Work
         rdf:about="">
        <dc:format>image/svg+xml</dc:format>
        <dc:type
           rdf:resource="http://purl.org/dc/dcmitype/StillImage" />
        <dc:title></dc:title>
      </cc:Work>
    </rdf:RDF>
  </metadata>
  <g
     transform="translate(0,-270.54166)"
     id="layer1">
    <g
       transform="rotate(-45,13.229942,283.77025)"
       id="g824">
      <path
         id="rect815"
         transform="matrix(0.18708867,0.18708867,-0.18708867,0.18708867,13.228986,265.06124)"
         d="M 33.931641 6.7792969 C 26.983716 6.779297 20.03537 9.4292439 14.734375 14.730469 C 4.133228 25.332682 4.1344183 42.521597 14.736328 53.123047 C 23.310451 61.682391 36.516577 63.523426 47.105469 57.636719 L 80.003906 90.533203 L 90.449219 80.087891 L 57.591797 47.230469 C 63.557285 36.621589 61.731743 23.338195 53.126953 14.730469 C 47.825958 9.4292441 40.879565 6.7792968 33.931641 6.7792969 z M 34.365234 10.226562 A 23.612315 23.612315 0 0 1 50.716797 17.140625 A 23.612315 23.612315 0 0 1 50.716797 50.533203 A 23.612315 23.612315 0 0 1 17.324219 50.533203 A 23.612315 23.612315 0 0 1 17.324219 17.140625 A 23.612315 23.612315 0 0 1 34.365234 10.226562 z "
         style="opacity:1;fill:#b9c3c9;fill-opacity:1;stroke:none;stroke-width:3.45968962;stroke-linecap:butt;stroke-miterlimit:4;stroke-dasharray:none;stroke-dashoffset:0;stroke-opacity:1" />
    </g>
  </g>
</svg>
