<?xml version="1.0" encoding="UTF-8" standalone="no"?>
<svg
   xmlns:dc="http://purl.org/dc/elements/1.1/"
   xmlns:cc="http://creativecommons.org/ns#"
   xmlns:rdf="http://www.w3.org/1999/02/22-rdf-syntax-ns#"
   xmlns:svg="http://www.w3.org/2000/svg"
   xmlns="http://www.w3.org/2000/svg"
   xmlns:sodipodi="http://sodipodi.sourceforge.net/DTD/sodipodi-0.dtd"
   xmlns:inkscape="http://www.inkscape.org/namespaces/inkscape"
   sodipodi:docname="settings.svg"
   inkscape:version="1.0 (4035a4fb49, 2020-05-01)"
   id="svg8"
   version="1.1"
   viewBox="0 0 10.583333 10.583334"
   height="40"
   width="40">
  <defs
     id="defs2" />
  <sodipodi:namedview
     inkscape:document-rotation="0"
     inkscape:window-maximized="1"
     inkscape:window-y="25"
     inkscape:window-x="25"
     inkscape:window-height="1003"
     inkscape:window-width="1870"
     units="px"
     showgrid="false"
     inkscape:current-layer="layer1"
     inkscape:document-units="px"
     inkscape:cy="17.808894"
     inkscape:cx="20.275058"
     inkscape:zoom="15.839192"
     inkscape:pageshadow="2"
     inkscape:pageopacity="0.0"
     borderopacity="1.0"
     bordercolor="#666666"
     pagecolor="#ffffff"
     id="base" />
  <metadata
     id="metadata5">
    <rdf:RDF>
      <cc:Work
         rdf:about="">
        <dc:format>image/svg+xml</dc:format>
        <dc:type
           rdf:resource="http://purl.org/dc/dcmitype/StillImage" />
        <dc:title />
      </cc:Work>
    </rdf:RDF>
  </metadata>
  <g
     transform="translate(0,-286.41665)"
     id="layer1"
     inkscape:groupmode="layer"
     inkscape:label="Layer 1">
    <path
       id="path815"
       d="m 4.8943268,286.4167 c -0.1780988,-0.002 -0.2966504,0.0502 -0.4116328,0.34759 -0.183972,0.47571 -0.359534,0.99273 -0.759234,1.15826 -0.3996999,0.16555 -0.8896154,-0.0761 -1.3561013,-0.28242 -0.4664861,-0.20633 -0.4996249,0.0325 -0.8055426,0.33846 -0.3059178,0.3059 -0.5447924,0.33905 -0.3384537,0.80553 0.2063388,0.46647 0.4479732,0.95638 0.2824259,1.35607 -0.1655475,0.3997 -0.68256218,0.57526 -1.15828904,0.75923 -0.47572687,0.18397 -0.32473255,0.37635 -0.32473255,0.80896 0,0.43261 -0.15099432,0.62498 0.32473255,0.80895 0.47572686,0.18397 0.99274154,0.35953 1.15828904,0.75922 0.1655473,0.3997 -0.076087,0.8896 -0.2824259,1.35608 -0.2063387,0.46648 0.032536,0.49961 0.3384537,0.80553 0.3059177,0.30591 0.3390565,0.54478 0.8055426,0.33845 0.4664859,-0.20634 0.9564014,-0.44797 1.3561013,-0.28242 0.3997,0.16555 0.575262,0.68255 0.759234,1.15826 0.1839716,0.47573 0.3763524,0.32474 0.8089728,0.32474 0.4326204,0 0.6250012,0.15099 0.8089728,-0.32474 0.183972,-0.47571 0.359534,-0.99271 0.759234,-1.15826 0.3996996,-0.16555 0.8896148,0.0761 1.3561012,0.28242 0.466486,0.20633 0.4996244,-0.0325 0.8055428,-0.33845 0.3059176,-0.30592 0.544792,-0.33905 0.3384536,-0.80553 -0.2063392,-0.46648 -0.4479732,-0.95638 -0.282426,-1.35608 0.1655476,-0.39969 0.682562,-0.57525 1.1582888,-0.75922 0.475727,-0.18397 0.324733,-0.37634 0.324733,-0.80895 0,-0.43261 0.150994,-0.62499 -0.324733,-0.80896 -0.4757268,-0.18397 -0.9927412,-0.35953 -1.1582888,-0.75923 -0.1655472,-0.39969 0.076087,-0.8896 0.282426,-1.35607 0.2063384,-0.46648 -0.032536,-0.49963 -0.3384536,-0.80553 -0.305918,-0.30592 -0.3390568,-0.54479 -0.8055428,-0.33846 -0.4664864,0.20634 -0.9564016,0.44797 -1.3561012,0.28242 -0.3997,-0.16553 -0.5757972,-0.68255 -0.7598056,-1.15826 -0.1840084,-0.47573 -0.3759276,-0.32473 -0.8084012,-0.32473 -0.1622328,0 -0.2904812,-0.0214 -0.39734,-0.0229 z m 0.39734,2.82077 a 2.4710972,2.4710556 0 0 1 2.47094,2.47091 2.4710972,2.4710556 0 0 1 -2.47094,2.47089 2.4710972,2.4710556 0 0 1 -2.4709403,-2.47089 2.4710972,2.4710556 0 0 1 2.4709403,-2.47091 z"
       style="opacity:1;fill:#666666;fill-opacity:1;stroke:none;stroke-width:0.81872;stroke-linecap:butt;stroke-miterlimit:4;stroke-dasharray:none;stroke-dashoffset:0;stroke-opacity:1" />
  </g>
</svg>
