<svg width="40" height="40" version="1.1" viewBox="0 0 10.583 10.583" xmlns="http://www.w3.org/2000/svg"><g transform="translate(0 -286.42)"><path d="m4.8943 286.42c-.1781-.002-.29665.0502-.41163.34759-.18397.47571-.35953.99273-.75923 1.1583-.3997.16555-.88962-.0761-1.3561-.28242-.46649-.20633-.49962.0325-.80554.33846-.30592.3059-.54479.33905-.33845.80553.20634.46647.44797.95638.28243 1.3561-.16555.3997-.68256.57526-1.1583.75923-.47573.18397-.32473.37635-.32473.80896s-.15099.62498.32473.80895c.47573.18397.99274.35953 1.1583.75922.16555.3997-.076087.8896-.28243 1.3561-.20634.46648.032536.49961.33845.80553.30592.30591.33906.54478.80554.33845.46649-.20634.9564-.44797 1.3561-.28242.3997.16555.57526.68255.75923 1.1583.18397.47573.37635.32474.80897.32474s.625.15099.80897-.32474c.18397-.47571.35953-.99271.75923-1.1583.3997-.16555.88961.0761 1.3561.28242.46649.20633.49962-.0325.80554-.33845.30592-.30592.54479-.33905.33845-.80553-.20634-.46648-.44797-.95638-.28243-1.3561.16555-.39969.68256-.57525 1.1583-.75922.47573-.18397.32473-.37634.32473-.80895s.15099-.62499-.32473-.80896c-.47573-.18397-.99274-.35953-1.1583-.75923-.16555-.39969.076087-.8896.28243-1.3561.20634-.46648-.032536-.49963-.33845-.80553-.30592-.30592-.33906-.54479-.80554-.33846-.46649.20634-.9564.44797-1.3561.28242-.3997-.16553-.5758-.68255-.75981-1.1583-.18401-.47573-.37593-.32473-.8084-.32473-.16223 0-.29048-.0214-.39734-.0229zm.39734 2.8208a2.4711 2.4711 0 012.4709 2.4709 2.4711 2.4711 0 01-2.4709 2.4709 2.4711 2.4711 0 01-2.4709-2.4709 2.4711 2.4711 0 012.4709-2.4709z" fill="#fff"/></g></svg>
