<svg width="40" height="40" version="1.1" viewBox="0 0 10.583 10.583" xmlns="http://www.w3.org/2000/svg"><path transform="scale(.26458)" d="m5.2637 0c-2.9158 0-5.2637 2.288-5.2637 5.1309v28.738c0 2.8429 2.3479 5.1309 5.2637 5.1309h-.26367v1h3v-1h24v1h3v-1h-.26367c2.9158 0 5.2637-2.288 5.2637-5.1309v-28.738c0-2.8429-2.3479-5.1309-5.2637-5.1309h-29.473zm1.2812 1.6973h26.91c2.662 0 4.8047 2.0901 4.8047 4.6855v26.234c0 2.5955-2.1427 4.6855-4.8047 4.6855h-26.91c-2.662 0-4.8047-2.0901-4.8047-4.6855v-26.234c0-2.5955 2.1427-4.6855 4.8047-4.6855zm15.625 1.7344c-1.2013 0-2.1699 1.8859-2.1699 4.2285v23.68c0 2.3426.9686 4.2285 2.1699 4.2285h12.143c1.2013 0 2.168-1.8859 2.168-4.2285v-23.68c0-2.3426-.96665-4.2285-2.168-4.2285h-12.143zm9.9219 10.832a2.8686 5.7371 0 012.8672 5.7363 2.8686 5.7371 0 01-2.8672 5.7363 2.8686 5.7371 0 01-2.8691-5.7363 2.8686 5.7371 0 012.8691-5.7363zm0 1.3926a2.1721 4.3442 0 00-2.1719 4.3438 2.1721 4.3442 0 002.1719 4.3438 2.1721 4.3442 0 002.1719-4.3438 2.1721 4.3442 0 00-2.1719-4.3438zm-8.9551.14258a2.1012 4.2024 0 011.0957.5625 2.1012 4.2024 0 01.98438 2.5977h1.4492c.19223 0 .34766.3089.34766.69336v.69531c0 .38446-.15542.69336-.34766.69336h-1.4492a2.1012 4.2024 0 01-.21484 1.0605 2.1012 4.2024 0 01-2.8711 1.5371 2.1012 4.2024 0 01-.76953-5.7402 2.1012 4.2024 0 011.7754-2.0996zm8.9551.96289a1.6191 3.2383 0 011.6191 3.2383 1.6191 3.2383 0 01-1.6191 3.2383 1.6191 3.2383 0 01-1.6191-3.2383 1.6191 3.2383 0 011.6191-3.2383zm-8.9375.55859a1.3401 2.6801 0 00-1.1328 1.3398 1.3401 2.6801 0 00.49024 3.6602 1.3401 2.6801 0 001.8301-.98047 1.3401 2.6801 0 00-.49024-3.6602 1.3401 2.6801 0 00-.69726-.35938z"/></svg>
