<?xml version="1.0" encoding="UTF-8" standalone="no"?>
<svg
   xmlns:dc="http://purl.org/dc/elements/1.1/"
   xmlns:cc="http://creativecommons.org/ns#"
   xmlns:rdf="http://www.w3.org/1999/02/22-rdf-syntax-ns#"
   xmlns:svg="http://www.w3.org/2000/svg"
   xmlns="http://www.w3.org/2000/svg"
   xmlns:sodipodi="http://sodipodi.sourceforge.net/DTD/sodipodi-0.dtd"
   xmlns:inkscape="http://www.inkscape.org/namespaces/inkscape"
   inkscape:version="1.0 (4035a4fb49, 2020-05-01)"
   sodipodi:docname="vault.svg"
   id="svg1569"
   version="1.1"
   viewBox="0 0 10.583333 10.583334"
   height="40"
   width="40">
  <defs
     id="defs1563" />
  <sodipodi:namedview
     inkscape:window-maximized="1"
     inkscape:window-y="25"
     inkscape:window-x="25"
     inkscape:window-height="1003"
     inkscape:window-width="1870"
     inkscape:snap-center="true"
     inkscape:snap-global="false"
     inkscape:snap-object-midpoints="true"
     inkscape:guide-bbox="true"
     showguides="true"
     units="px"
     showgrid="false"
     inkscape:document-rotation="0"
     inkscape:current-layer="layer1"
     inkscape:document-units="px"
     inkscape:cy="11.549062"
     inkscape:cx="25.919708"
     inkscape:zoom="11.2"
     inkscape:pageshadow="2"
     inkscape:pageopacity="0.0"
     borderopacity="1.0"
     bordercolor="#666666"
     pagecolor="#ffffff"
     id="base" />
  <metadata
     id="metadata1566">
    <rdf:RDF>
      <cc:Work
         rdf:about="">
        <dc:format>image/svg+xml</dc:format>
        <dc:type
           rdf:resource="http://purl.org/dc/dcmitype/StillImage" />
        <dc:title></dc:title>
      </cc:Work>
    </rdf:RDF>
  </metadata>
  <g
     id="layer1"
     inkscape:groupmode="layer"
     inkscape:label="Layer 1">
    <path
       transform="scale(0.26458334)"
       d="M 5.2636719 0 C 2.3478823 5.9211896e-16 0 2.2879643 0 5.1308594 L 0 33.869141 C 5.9211896e-16 36.712035 2.3478823 39 5.2636719 39 L 5 39 L 5 40 L 8 40 L 8 39 L 32 39 L 32 40 L 35 40 L 35 39 L 34.736328 39 C 37.652118 39 40 36.712035 40 33.869141 L 40 5.1308594 C 40 2.2879643 37.652118 0 34.736328 0 L 5.2636719 0 z M 6.5449219 1.6972656 L 33.455078 1.6972656 C 36.117112 1.6972656 38.259766 3.7873297 38.259766 6.3828125 L 38.259766 32.617188 C 38.259766 35.21267 36.117112 37.302734 33.455078 37.302734 L 6.5449219 37.302734 C 3.8828883 37.302734 1.7402344 35.21267 1.7402344 32.617188 L 1.7402344 6.3828125 C 1.7402344 3.7873297 3.8828883 1.6972656 6.5449219 1.6972656 z M 7.8574219 3.4316406 C 5.4547789 3.4316406 3.5195312 5.3175794 3.5195312 7.6601562 L 3.5195312 31.339844 C 3.5195312 33.682421 5.4547789 35.568359 7.8574219 35.568359 L 32.142578 35.568359 C 34.545221 35.568359 36.480469 33.682421 36.480469 31.339844 L 36.480469 7.6601562 C 36.480469 5.3175794 34.545221 3.4316406 32.142578 3.4316406 L 7.8574219 3.4316406 z M 27.701172 14.263672 A 5.7371011 5.7371011 0 0 1 33.4375 20 A 5.7371011 5.7371011 0 0 1 27.701172 25.736328 A 5.7371011 5.7371011 0 0 1 21.962891 20 A 5.7371011 5.7371011 0 0 1 27.701172 14.263672 z M 27.701172 15.65625 A 4.34417 4.34417 0 0 0 23.357422 20 A 4.34417 4.34417 0 0 0 27.701172 24.34375 A 4.34417 4.34417 0 0 0 32.044922 20 A 4.34417 4.34417 0 0 0 27.701172 15.65625 z M 9.7910156 15.798828 A 4.2024064 4.2024064 0 0 1 11.984375 16.361328 A 4.2024064 4.2024064 0 0 1 13.953125 18.958984 L 16.851562 18.958984 C 17.236022 18.958984 17.544922 19.267886 17.544922 19.652344 L 17.544922 20.347656 C 17.544922 20.732114 17.236022 21.041016 16.851562 21.041016 L 13.953125 21.041016 A 4.2024064 4.2024064 0 0 1 13.521484 22.101562 A 4.2024064 4.2024064 0 0 1 7.78125 23.638672 A 4.2024064 4.2024064 0 0 1 6.2421875 17.898438 A 4.2024064 4.2024064 0 0 1 9.7910156 15.798828 z M 27.701172 16.761719 A 3.2382569 3.2382569 0 0 1 30.939453 20 A 3.2382569 3.2382569 0 0 1 27.701172 23.238281 A 3.2382569 3.2382569 0 0 1 24.462891 20 A 3.2382569 3.2382569 0 0 1 27.701172 16.761719 z M 9.828125 17.320312 A 2.6801177 2.6801177 0 0 0 7.5605469 18.660156 A 2.6801177 2.6801177 0 0 0 8.5429688 22.320312 A 2.6801177 2.6801177 0 0 0 12.203125 21.339844 A 2.6801177 2.6801177 0 0 0 11.222656 17.679688 A 2.6801177 2.6801177 0 0 0 9.828125 17.320312 z "
       style="fill:#000000;stroke-width:3.9284;stroke:none"
       id="rect2729" />
  </g>
</svg>
