<?xml version="1.0" encoding="UTF-8" standalone="no"?>
<svg
   xmlns:dc="http://purl.org/dc/elements/1.1/"
   xmlns:cc="http://creativecommons.org/ns#"
   xmlns:rdf="http://www.w3.org/1999/02/22-rdf-syntax-ns#"
   xmlns:svg="http://www.w3.org/2000/svg"
   xmlns="http://www.w3.org/2000/svg"
   xmlns:sodipodi="http://sodipodi.sourceforge.net/DTD/sodipodi-0.dtd"
   xmlns:inkscape="http://www.inkscape.org/namespaces/inkscape"
   width="40"
   height="40"
   viewBox="0 0 10.583333 10.583334"
   version="1.1"
   id="svg1569"
   sodipodi:docname="vault_open.svg"
   inkscape:version="1.0 (4035a4fb49, 2020-05-01)">
  <defs
     id="defs1563" />
  <sodipodi:namedview
     id="base"
     pagecolor="#ffffff"
     bordercolor="#666666"
     borderopacity="1.0"
     inkscape:pageopacity="0.0"
     inkscape:pageshadow="2"
     inkscape:zoom="11.2"
     inkscape:cx="25.919708"
     inkscape:cy="11.549062"
     inkscape:document-units="px"
     inkscape:current-layer="layer1"
     inkscape:document-rotation="0"
     showgrid="false"
     units="px"
     showguides="true"
     inkscape:guide-bbox="true"
     inkscape:snap-object-midpoints="true"
     inkscape:snap-global="false"
     inkscape:snap-center="true"
     inkscape:window-width="1870"
     inkscape:window-height="1003"
     inkscape:window-x="25"
     inkscape:window-y="25"
     inkscape:window-maximized="1" />
  <metadata
     id="metadata1566">
    <rdf:RDF>
      <cc:Work
         rdf:about="">
        <dc:format>image/svg+xml</dc:format>
        <dc:type
           rdf:resource="http://purl.org/dc/dcmitype/StillImage" />
        <dc:title></dc:title>
      </cc:Work>
    </rdf:RDF>
  </metadata>
  <g
     inkscape:label="Layer 1"
     inkscape:groupmode="layer"
     id="layer1">
    <path
       transform="scale(0.26458334)"
       d="M 5.2636719 0 C 2.3478819 0 0 2.2879639 0 5.1308594 L 0 33.869141 C 0 36.712035 2.3478819 39 5.2636719 39 L 5 39 L 5 40 L 8 40 L 8 39 L 32 39 L 32 40 L 35 40 L 35 39 L 34.736328 39 C 37.652118 39 40 36.712035 40 33.869141 L 40 5.1308594 C 40 2.2879639 37.652118 0 34.736328 0 L 5.2636719 0 z M 6.5449219 1.6972656 L 33.455078 1.6972656 C 36.117112 1.6972656 38.259766 3.7873297 38.259766 6.3828125 L 38.259766 32.617188 C 38.259766 35.21267 36.117112 37.302734 33.455078 37.302734 L 6.5449219 37.302734 C 3.8828879 37.302734 1.7402344 35.21267 1.7402344 32.617188 L 1.7402344 6.3828125 C 1.7402344 3.7873297 3.8828879 1.6972656 6.5449219 1.6972656 z M 22.169922 3.4316406 C 20.968601 3.4316406 20 5.3175794 20 7.6601562 L 20 31.339844 C 20 33.682421 20.968601 35.568359 22.169922 35.568359 L 34.3125 35.568359 C 35.513821 35.568359 36.480469 33.682421 36.480469 31.339844 L 36.480469 7.6601562 C 36.480469 5.3175794 35.513821 3.4316406 34.3125 3.4316406 L 22.169922 3.4316406 z M 32.091797 14.263672 A 2.8685507 5.7371016 0 0 1 34.958984 20 A 2.8685507 5.7371016 0 0 1 32.091797 25.736328 A 2.8685507 5.7371016 0 0 1 29.222656 20 A 2.8685507 5.7371016 0 0 1 32.091797 14.263672 z M 32.091797 15.65625 A 2.172085 4.34417 0 0 0 29.919922 20 A 2.172085 4.34417 0 0 0 32.091797 24.34375 A 2.172085 4.34417 0 0 0 34.263672 20 A 2.172085 4.34417 0 0 0 32.091797 15.65625 z M 23.136719 15.798828 A 2.1012032 4.2024064 0 0 1 24.232422 16.361328 A 2.1012032 4.2024064 0 0 1 25.216797 18.958984 L 26.666016 18.958984 C 26.858246 18.958984 27.013672 19.267885 27.013672 19.652344 L 27.013672 20.347656 C 27.013672 20.732114 26.85825 21.041016 26.666016 21.041016 L 25.216797 21.041016 A 2.1012032 4.2024064 0 0 1 25.001953 22.101562 A 2.1012032 4.2024064 0 0 1 22.130859 23.638672 A 2.1012032 4.2024064 0 0 1 21.361328 17.898438 A 2.1012032 4.2024064 0 0 1 23.136719 15.798828 z M 32.091797 16.761719 A 1.6191285 3.2382569 0 0 1 33.710938 20 A 1.6191285 3.2382569 0 0 1 32.091797 23.238281 A 1.6191285 3.2382569 0 0 1 30.472656 20 A 1.6191285 3.2382569 0 0 1 32.091797 16.761719 z M 23.154297 17.320312 A 1.3400589 2.6801177 0 0 0 22.021484 18.660156 A 1.3400589 2.6801177 0 0 0 22.511719 22.320312 A 1.3400589 2.6801177 0 0 0 24.341797 21.339844 A 1.3400589 2.6801177 0 0 0 23.851562 17.679688 A 1.3400589 2.6801177 0 0 0 23.154297 17.320312 z "
       style="fill:#000000;stroke-width:3.9284;stroke:none"
       id="path1506" />
  </g>
</svg>
