<svg width="32" height="32" version="1.1" viewBox="0 0 8.4667 8.4667" xmlns="http://www.w3.org/2000/svg"><path transform="scale(.26458)" d="m16.033 2.041c-.90656-.011474-1.7477.4677-2.1992 1.2539l-13.229 22.914c-.96138 1.6658.23877 3.748 2.1621 3.75h26.465c1.9233-.00201 3.1235-2.0842 2.1621-3.75l-13.229-22.914c-.43967-.76564-1.25-1.2416-2.1328-1.2539zm-.033203 5.8555c1.205 0 2.1758 1.0976 2.1758 2.4609v8.418c0 1.3633-.97083 2.4609-2.1758 2.4609s-2.1758-1.0976-2.1758-2.4609v-8.418c0-1.3633.97083-2.4609 2.1758-2.4609zm0 14.312a2.375 2.375 0 012.375 2.375 2.375 2.375 0 01-2.375 2.375 2.375 2.375 0 01-2.375-2.375 2.375 2.375 0 012.375-2.375z"/></svg>
