<?xml version="1.0" encoding="UTF-8" standalone="no"?>
<!DOCTYPE svg PUBLIC "-//W3C//DTD SVG 1.1//EN" "http://www.w3.org/Graphics/SVG/1.1/DTD/svg11.dtd">
<svg width="100%" height="100%" viewBox="0 0 32 32" version="1.1" xmlns="http://www.w3.org/2000/svg" xmlns:xlink="http://www.w3.org/1999/xlink" xml:space="preserve" xmlns:serif="http://www.serif.com/" style="fill-rule:evenodd;clip-rule:evenodd;stroke-linejoin:round;stroke-miterlimit:2;">
    <g>
        <g id="_57229531_SVGID_1__grid" serif:id="57229531_SVGID_1__grid" transform="matrix(1.12624,0,0,1.12624,-2.00033,-2.0073)">
            <path d="M30,23.5C30,24.328 29.328,25 28.5,25L3.5,25C2.672,25 2,24.328 2,23.5L2,8.5C2,7.672 2.672,7 3.5,7L28.5,7C29.328,7 30,7.672 30,8.5L30,23.5Z" style="fill:rgb(82,106,120);fill-rule:nonzero;"/>
        </g>
        <g id="_57229531_SVGID_3__grid" serif:id="57229531_SVGID_3__grid" transform="matrix(1.12624,0,0,1.12624,-2.00033,-2.0073)">
            <clipPath id="_clip1">
                <path d="M30,23.5C30,24.328 29.328,25 28.5,25L3.5,25C2.672,25 2,24.328 2,23.5L2,8.5C2,7.672 2.672,7 3.5,7L28.5,7C29.328,7 30,7.672 30,8.5L30,23.5Z"/>
            </clipPath>
            <g clip-path="url(#_clip1)">
                <rect x="2" y="9.5" width="28" height="5"/>
            </g>
        </g>
    </g>
    <g transform="matrix(1.12624,0,0,1.12624,-2.00033,-2.0073)">
        <rect x="7" y="16.5" width="18" height="2" style="fill:rgb(212,215,217);"/>
    </g>
    <g transform="matrix(1.12624,0,0,1.12624,-2.00033,-2.0073)">
        <rect x="9.5" y="20" width="13" height="2" style="fill:rgb(212,215,217);"/>
    </g>
</svg>
