<?xml version="1.0" encoding="UTF-8" standalone="no"?>
<!DOCTYPE svg PUBLIC "-//W3C//DTD SVG 1.1//EN" "http://www.w3.org/Graphics/SVG/1.1/DTD/svg11.dtd">
<svg width="100%" height="100%" viewBox="0 0 32 32" version="1.1" xmlns="http://www.w3.org/2000/svg" xmlns:xlink="http://www.w3.org/1999/xlink" xml:space="preserve" xmlns:serif="http://www.serif.com/" style="fill-rule:evenodd;clip-rule:evenodd;stroke-linejoin:round;stroke-miterlimit:2;">
    <g id="_57129490_SVGID_1__grid" serif:id="57129490_SVGID_1__grid" transform="matrix(1.26068,-0.00633658,0.00585112,1.1641,-4.32607,-3.08863)">
        <path d="M13,19.5C13,19.5 12,20 6,23C4,24 4,24.5 3.5,30L28.5,30C28,24.5 28,24 26,23C19.597,19.799 19,19.5 19,19.5L13,19.5Z" style="fill:rgb(212,215,217);fill-rule:nonzero;"/>
    </g>
    <g id="_57129490_SVGID_3__grid" serif:id="57129490_SVGID_3__grid" transform="matrix(1.2607,0,0,1.5509,-4.15079,-10.7311)">
        <path d="M16,25C12.5,23.486 12,22 12,20L12,16L20,16L20,20C20,22 19.5,23.485 16,25Z" style="fill:rgb(63,81,92);"/>
    </g>
    <g id="_57129490_SVGID_5__grid" serif:id="57129490_SVGID_5__grid" transform="matrix(1.16856,0,0,1.04041,-2.67669,-3.26247)">
        <path d="M16,3.5C21.172,3.5 22.5,7.221 22.5,10L22.5,14.25C22.5,17.181 19.776,23.928 16.052,23.928C12.328,23.928 9.5,17.182 9.5,14.25L9.5,10C9.5,7.221 10.828,3.5 16,3.5Z" style="fill:rgb(82,106,120);"/>
    </g>
    <g transform="matrix(1.2607,0,0,1.2607,-4.18406,-4.82722)">
        <ellipse cx="13.25" cy="12" rx="0.75" ry="1" style="fill:rgb(35,31,32);fill-opacity:0.6;"/>
    </g>
    <g transform="matrix(1.2607,0,0,1.2607,-4.18406,-4.82722)">
        <ellipse cx="18.75" cy="12" rx="0.75" ry="1" style="fill:rgb(35,31,32);fill-opacity:0.6;"/>
    </g>
</svg>
