<?xml version="1.0" encoding="UTF-8" standalone="no"?>
<!DOCTYPE svg PUBLIC "-//W3C//DTD SVG 1.1//EN" "http://www.w3.org/Graphics/SVG/1.1/DTD/svg11.dtd">
<svg width="100%" height="100%" viewBox="0 0 32 32" version="1.1" xmlns="http://www.w3.org/2000/svg" xmlns:xlink="http://www.w3.org/1999/xlink" xml:space="preserve" xmlns:serif="http://www.serif.com/" style="fill-rule:evenodd;clip-rule:evenodd;stroke-linejoin:round;stroke-miterlimit:2;">
    <g transform="matrix(1.17739,0,0,1.17739,-2.84889,-2.80197)">
        <g>
            <path d="M14,8.5L28,8.5C28.828,8.5 29.5,9.172 29.5,10L29.5,26L2.5,26L2.5,7C2.5,6.172 3.172,5.5 4,5.5L9,5.5C10,5.5 10.977,5.595 11.5,7C12.024,8.406 13,8.5 14,8.5Z" style="fill:rgb(63,81,92);fill-rule:nonzero;"/>
            <path d="M14,8.5L28,8.5C28.828,8.5 29.5,9.172 29.5,10L29.5,26L2.5,26L2.5,7C2.5,6.172 3.172,5.5 4,5.5L9,5.5C10,5.5 10.977,5.595 11.5,7C12.024,8.406 13,8.5 14,8.5Z" style="fill:rgb(63,81,92);fill-opacity:0.3;fill-rule:nonzero;"/>
            <path id="_57129435_SVGID_1__grid" serif:id="57129435_SVGID_1__grid" d="M14,10L28,10C28.828,10 29.5,10.672 29.5,11.5L29.5,26L2.5,26L2.5,14.5C2.5,13.672 3.172,13 4,13L9,13C10,13 10.977,12.906 11.5,11.5C12.024,10.095 13,10 14,10Z" style="fill:rgb(82,106,120);fill-rule:nonzero;"/>
            <clipPath id="_clip1">
                <path d="M14,10L28,10C28.828,10 29.5,10.672 29.5,11.5L29.5,26L2.5,26L2.5,14.5C2.5,13.672 3.172,13 4,13L9,13C10,13 10.977,12.906 11.5,11.5C12.024,10.095 13,10 14,10Z"/>
            </clipPath>
            <g clip-path="url(#_clip1)">
                <rect x="2.5" y="10" width="27" height="9.5" style="fill:rgb(82,106,120);fill-opacity:0.2;"/>
            </g>
            <g transform="matrix(0.574804,0,0,0.530954,6.85729,9.30386)">
                <path id="_575339313_SVGID_1__grid" serif:id="575339313_SVGID_1__grid" d="M11.225,30.41C10.801,30.657 10.452,30.369 10.546,29.871C12.5,19.459 13.5,14.5 13.5,14.5L18.5,14.5C18.5,14.5 19.5,19.459 21.967,29.871C22.084,30.365 21.765,30.636 21.315,30.41C17.5,28.5 16,27.75 16,27.75C16,27.75 14.5,28.5 11.225,30.41Z" style="fill:rgb(212,215,217);fill-rule:nonzero;"/>
                <clipPath id="_clip2">
                    <path d="M11.225,30.41C10.801,30.657 10.452,30.369 10.546,29.871C12.5,19.459 13.5,14.5 13.5,14.5L18.5,14.5C18.5,14.5 19.5,19.459 21.967,29.871C22.084,30.365 21.765,30.636 21.315,30.41C17.5,28.5 16,27.75 16,27.75C16,27.75 14.5,28.5 11.225,30.41Z"/>
                </clipPath>
                <g clip-path="url(#_clip2)">
                    <path d="M19.903,17.941L19.903,16.235L11.69,16.235L11.69,22.688L19.903,17.941Z" style="fill:rgb(212,215,217);fill-opacity:0.15;fill-rule:nonzero;"/>
                </g>
            </g>
            <g transform="matrix(0.574804,0,0,0.530954,6.85729,9.30386)">
                <circle cx="16" cy="10.5" r="8.5" style="fill:rgb(212,215,217);"/>
            </g>
            <g transform="matrix(0.574804,0,0,0.530954,6.85729,9.30386)">
                <path d="M12.581,15.932C12.439,15.932 12.298,15.887 12.177,15.801C11.936,15.625 11.835,15.314 11.927,15.03L13.082,11.459L10.052,9.246C9.811,9.07 9.711,8.759 9.803,8.475C9.895,8.192 10.159,8 10.457,8L14.2,8L15.353,4.438C15.445,4.153 15.709,3.961 16.008,3.961C16.307,3.961 16.571,4.153 16.662,4.438L17.815,8L21.559,8C21.857,8 22.121,8.192 22.213,8.476C22.305,8.759 22.205,9.07 21.964,9.246L18.932,11.459L20.088,15.03C20.179,15.314 20.078,15.625 19.837,15.801C19.717,15.887 19.575,15.932 19.433,15.932C19.291,15.932 19.149,15.887 19.027,15.8L16.007,13.595L12.986,15.8C12.866,15.887 12.723,15.932 12.581,15.932Z" style="fill:rgb(3,163,134);fill-rule:nonzero;"/>
            </g>
        </g>
    </g>
</svg>
