<?xml version="1.0" encoding="UTF-8" standalone="no"?>
<!DOCTYPE svg PUBLIC "-//W3C//DTD SVG 1.1//EN" "http://www.w3.org/Graphics/SVG/1.1/DTD/svg11.dtd">
<svg width="100%" height="100%" viewBox="0 0 32 32" version="1.1" xmlns="http://www.w3.org/2000/svg" xmlns:xlink="http://www.w3.org/1999/xlink" xml:space="preserve" xmlns:serif="http://www.serif.com/" style="fill-rule:evenodd;clip-rule:evenodd;stroke-linejoin:round;stroke-miterlimit:2;">
    <g id="_57229517_SVGID_1__grid" serif:id="57229517_SVGID_1__grid" transform="matrix(1.26277,0,0,1.13421,-3.59232,-2.15147)">
        <path d="M26,28.5C26,29.328 25.328,30 24.5,30L6.525,30C5.697,30 5.025,29.328 5.025,28.5L5.025,3.5C5.025,2.672 5.697,2 6.525,2L24.5,2C25.328,2 26,2.672 26,3.5L26,28.5Z" style="fill:rgb(63,81,92);fill-rule:nonzero;"/>
    </g>
    <g id="_57229517_SVGID_5__grid" serif:id="57229517_SVGID_5__grid" transform="matrix(1.22662,0,0,1.56282,-3.03142,-14.8894)">
        <path d="M24,27.025C24,27.563 23.564,28 23.025,28L8,28C7.462,28 7.025,27.564 7.025,27.025L7.025,12.5C7.025,11.962 7.462,11.525 8,11.525L23.025,11.525C23.563,11.525 24,11.962 24,12.5L24,27.025Z" style="fill:rgb(212,215,217);fill-rule:nonzero;"/>
    </g>
    <g transform="matrix(1.50532,0,0,1.50532,-4.47051,-14.3992)">
        <g transform="matrix(1.01209,0,0,1.01209,-0.270727,-0.371625)">
            <path d="M11.473,13.647C11.473,13.169 11.084,12.781 10.606,12.781L8.873,12.781C8.395,12.781 8.007,13.169 8.007,13.647L8.007,15.435C8.007,15.913 8.395,16.301 8.873,16.301L10.606,16.301C11.084,16.301 11.473,15.913 11.473,15.435L11.473,13.647Z" style="fill:rgb(82,106,120);"/>
            <g transform="matrix(1,0,0,1,3.93473,-0.0188053)">
                <path d="M11.473,13.647C11.473,13.169 11.084,12.781 10.606,12.781L8.873,12.781C8.395,12.781 8.007,13.169 8.007,13.647L8.007,15.435C8.007,15.913 8.395,16.301 8.873,16.301L10.606,16.301C11.084,16.301 11.473,15.913 11.473,15.435L11.473,13.647Z" style="fill:rgb(82,106,120);"/>
            </g>
            <g transform="matrix(1,0,0,1,7.92386,-0.085177)">
                <path d="M11.473,13.647C11.473,13.169 11.084,12.781 10.606,12.781L8.873,12.781C8.395,12.781 8.007,13.169 8.007,13.647L8.007,15.435C8.007,15.913 8.395,16.301 8.873,16.301L10.606,16.301C11.084,16.301 11.473,15.913 11.473,15.435L11.473,13.647Z" style="fill:rgb(82,106,120);"/>
            </g>
            <g transform="matrix(1,0,0,1,0.0315265,3.95391)">
                <path d="M11.473,13.647C11.473,13.169 11.084,12.781 10.606,12.781L8.873,12.781C8.395,12.781 8.007,13.169 8.007,13.647L8.007,15.435C8.007,15.913 8.395,16.301 8.873,16.301L10.606,16.301C11.084,16.301 11.473,15.913 11.473,15.435L11.473,13.647Z" style="fill:rgb(82,106,120);"/>
            </g>
            <g transform="matrix(1,0,0,1,3.91574,3.96147)">
                <path d="M11.473,13.647C11.473,13.169 11.084,12.781 10.606,12.781L8.873,12.781C8.395,12.781 8.007,13.169 8.007,13.647L8.007,15.435C8.007,15.913 8.395,16.301 8.873,16.301L10.606,16.301C11.084,16.301 11.473,15.913 11.473,15.435L11.473,13.647Z" style="fill:rgb(82,106,120);"/>
            </g>
            <g transform="matrix(1,0,0,1,7.87924,3.88367)">
                <path d="M11.473,13.647C11.473,13.169 11.084,12.781 10.606,12.781L8.873,12.781C8.395,12.781 8.007,13.169 8.007,13.647L8.007,15.435C8.007,15.913 8.395,16.301 8.873,16.301L10.606,16.301C11.084,16.301 11.473,15.913 11.473,15.435L11.473,13.647Z" style="fill:rgb(82,106,120);"/>
            </g>
            <g transform="matrix(1,0,0,1,0.0525442,7.84919)">
                <path d="M11.473,13.647C11.473,13.169 11.084,12.781 10.606,12.781L8.873,12.781C8.395,12.781 8.007,13.169 8.007,13.647L8.007,15.435C8.007,15.913 8.395,16.301 8.873,16.301L10.606,16.301C11.084,16.301 11.473,15.913 11.473,15.435L11.473,13.647Z" style="fill:rgb(82,106,120);"/>
            </g>
            <g transform="matrix(1,0,0,1,3.98451,7.79591)">
                <path d="M11.473,13.647C11.473,13.169 11.084,12.781 10.606,12.781L8.873,12.781C8.395,12.781 8.007,13.169 8.007,13.647L8.007,15.435C8.007,15.913 8.395,16.301 8.873,16.301L10.606,16.301C11.084,16.301 11.473,15.913 11.473,15.435L11.473,13.647Z" style="fill:rgb(82,106,120);"/>
            </g>
            <g transform="matrix(1,0,0,1,4.00553,11.6386)">
                <path d="M11.473,13.647C11.473,13.169 11.084,12.781 10.606,12.781L8.873,12.781C8.395,12.781 8.007,13.169 8.007,13.647L8.007,15.435C8.007,15.913 8.395,16.301 8.873,16.301L10.606,16.301C11.084,16.301 11.473,15.913 11.473,15.435L11.473,13.647Z" style="fill:rgb(82,106,120);"/>
            </g>
        </g>
        <g transform="matrix(1.01209,0,0,1.01209,7.74351,7.60063)">
            <path d="M11.473,13.647C11.473,13.169 11.084,12.781 10.606,12.781L8.873,12.781C8.395,12.781 8.007,13.169 8.007,13.647L8.007,15.435C8.007,15.913 8.395,16.301 8.873,16.301L10.606,16.301C11.084,16.301 11.473,15.913 11.473,15.435L11.473,13.647Z" style="fill:rgb(82,106,120);"/>
        </g>
    </g>
</svg>
