<?xml version="1.0" encoding="UTF-8" standalone="no"?>
<svg
   xmlns:dc="http://purl.org/dc/elements/1.1/"
   xmlns:cc="http://creativecommons.org/ns#"
   xmlns:rdf="http://www.w3.org/1999/02/22-rdf-syntax-ns#"
   xmlns:svg="http://www.w3.org/2000/svg"
   xmlns="http://www.w3.org/2000/svg"
   xmlns:sodipodi="http://sodipodi.sourceforge.net/DTD/sodipodi-0.dtd"
   xmlns:inkscape="http://www.inkscape.org/namespaces/inkscape"
   inkscape:export-ydpi="38.950375"
   inkscape:export-xdpi="38.950375"
   inkscape:export-filename="C:\Users\oscar\Documents\Work\StoredSafe\graphics\logo.png"
   height="115.1078"
   width="749.26111"
   inkscape:version="1.0 (4035a4fb49, 2020-05-01)"
   sodipodi:docname="logo_export.svg"
   version="1.1"
   viewBox="0 0 749.26109 115.10779"
   data-name="Lager 1"
   id="Lager_1">
  <metadata
     id="metadata913">
    <rdf:RDF>
      <cc:Work
         rdf:about="">
        <dc:format>image/svg+xml</dc:format>
        <dc:type
           rdf:resource="http://purl.org/dc/dcmitype/StillImage" />
        <dc:title>padlock-white</dc:title>
      </cc:Work>
    </rdf:RDF>
  </metadata>
  <sodipodi:namedview
     inkscape:snap-page="true"
     fit-margin-bottom="5"
     fit-margin-right="5"
     fit-margin-left="5"
     fit-margin-top="5"
     lock-margins="true"
     inkscape:snap-center="true"
     inkscape:snap-object-midpoints="true"
     inkscape:guide-bbox="true"
     showguides="true"
     inkscape:document-rotation="0"
     inkscape:current-layer="layer5"
     inkscape:window-maximized="1"
     inkscape:window-y="-9"
     inkscape:window-x="-9"
     inkscape:cy="152.0397"
     inkscape:cx="361.65887"
     inkscape:zoom="1.2298069"
     inkscape:pagecheckerboard="true"
     showgrid="false"
     id="namedview911"
     inkscape:window-height="1013"
     inkscape:window-width="1920"
     inkscape:pageshadow="2"
     inkscape:pageopacity="0"
     guidetolerance="10"
     gridtolerance="10"
     objecttolerance="10"
     borderopacity="1"
     bordercolor="#666666"
     pagecolor="#ffffff" />
  <defs
     id="defs894">
    <style
       id="style884">
      .cls-1 {
        fill: url(#linear-gradient);
      }

      .cls-2, .cls-5 {
        fill: #fff;
      }

      .cls-3 {
        fill: #0067a6;
      }

      .cls-4 {
        mask: url(#mask);
      }

      .cls-5 {
        opacity: 0.79;
      }
    </style>
    <linearGradient
       gradientUnits="userSpaceOnUse"
       gradientTransform="matrix(1,0,0,-1,0,257.03)"
       y2="209.91"
       x2="40.68"
       y1="250.24001"
       x1="40.68"
       id="linear-gradient">
      <stop
         id="stop886"
         stop-color="#fff"
         offset="0" />
      <stop
         id="stop888"
         offset="1" />
    </linearGradient>
    <mask
       maskUnits="userSpaceOnUse"
       height="42.54"
       width="48.14"
       y="6.79"
       x="16.61"
       id="mask">
      <ellipse
         id="ellipse891"
         ry="20.17"
         rx="24.07"
         cy="26.959999"
         cx="40.68"
         class="cls-1" />
    </mask>
    <filter
       height="1.0001273"
       y="-6.3626314e-05"
       width="1.0000118"
       x="-5.9008044e-06"
       id="filter1004"
       style="color-interpolation-filters:sRGB"
       inkscape:collect="always">
      <feGaussianBlur
         id="feGaussianBlur1006"
         stdDeviation="0.0018175766"
         inkscape:collect="always" />
    </filter>
    <filter
       height="1.0400786"
       y="-0.020039295"
       width="1.003717"
       x="-0.0018584757"
       id="filter1685"
       style="color-interpolation-filters:sRGB"
       inkscape:collect="always">
      <feGaussianBlur
         id="feGaussianBlur1687"
         stdDeviation="0.5724511"
         inkscape:collect="always" />
    </filter>
  </defs>
  <title
     id="title896">padlock-white</title>
  <g
     sodipodi:insensitive="true"
     transform="translate(404.95425,16.383901)"
     style="display:none"
     inkscape:label="Background"
     id="layer2"
     inkscape:groupmode="layer">
    <rect
       y="-841.90973"
       x="-545.62238"
       height="1766.1594"
       width="1030.5974"
       id="rect892"
       style="fill:#526a78;fill-opacity:1;stroke-width:2.74888" />
  </g>
  <g
     inkscape:label="shadow"
     id="layer5"
     inkscape:groupmode="layer">
    <g
       id="g1635"
       style="filter:url(#filter1685);fill:#0067a6;fill-opacity:1;stroke:none;stroke-width:1;stroke-miterlimit:4;stroke-dasharray:none;stroke-opacity:1"
       transform="translate(406.95425,16.869964)">
      <g
         style="fill:#0067a6;fill-opacity:1;stroke:none;stroke-width:1;stroke-miterlimit:4;stroke-dasharray:none;stroke-opacity:1"
         id="g1623">
        <path
           id="path1611"
           style="fill:#0067a6;fill-opacity:1;fill-rule:nonzero;stroke:none;stroke-width:1;stroke-miterlimit:4;stroke-dasharray:none;stroke-opacity:1"
           d="m -374.40248,8.5435901 c 11.87813,-0.184 20.052,3.3381299 24.52186,10.5619999 0.61147,0.97973 1.0864,1.99013 1.424,3.0308 0.33587,1.0416 0.6572,2.17347 0.964,3.3984 0.1224,0.49013 0.16827,1.05573 0.138,1.6984 -0.0317,0.64333 -0.1692,1.11827 -0.41293,1.424 -0.30733,0.3672 -0.73547,0.59693 -1.286,0.68853 -0.55107,0.0917 -1.164,0.138 -1.8364,0.138 h -5.78707 c -0.55053,0 -1.102,0 -1.65253,0 -0.5516,0 -1.0104,-0.0604 -1.3776,-0.18333 -0.73493,-0.30627 -1.19427,-0.79587 -1.3776,-1.47027 -0.18387,-0.6724 -0.4292,-1.34586 -0.73493,-2.02026 -0.24587,-0.61094 -0.5828,-1.25427 -1.0104,-1.92867 -0.4292,-0.67293 -0.888,-1.19427 -1.3776,-1.56147 -0.8584,-0.61146 -1.6844,-1.13226 -2.48027,-1.56093 -0.7344,-0.30627 -1.63853,-0.56613 -2.7088,-0.7808 -1.0724,-0.214 -2.17453,-0.35147 -3.3068,-0.41347 -1.13333,-0.0604 -2.25,-0.0297 -3.35213,0.0916 -1.10201,0.124 -2.08227,0.3672 -2.93907,0.73547 -1.40934,0.61253 -2.4952,1.3312 -3.2604,2.15773 -0.76614,0.82667 -1.30107,2.06667 -1.6072,3.71987 -0.12294,0.42867 -0.15374,0.90413 -0.0917,1.42347 0.0604,0.5208 0.15266,0.93426 0.2756,1.2396 0.48946,1.28586 1.178,2.19 2.06613,2.70986 0.88747,0.5208 1.94373,1.026 3.16867,1.51507 0.67293,0.30733 1.362,0.53693 2.06613,0.6896 0.70427,0.15253 1.424,0.35253 2.15947,0.59587 1.65253,0.55146 3.352,1.02653 5.0968,1.42386 1.7448,0.39907 3.47453,0.8428 5.18907,1.3324 0.30573,0.1228 0.61146,0.18334 0.91826,0.18334 0.30627,0 0.61147,0.0619 0.9188,0.18373 1.22387,0.42867 2.49427,0.82667 3.81094,1.19387 1.31666,0.36706 2.49426,0.888 3.5364,1.56133 1.65306,1.04173 3.076,2.08187 4.27026,3.1224 1.19374,1.04227 2.3104,2.38813 3.3532,4.04173 0.3052,0.49014 0.56454,1.0416 0.78014,1.65254 0.2136,0.61306 0.44333,1.2256 0.68906,1.83706 0.06,0.18334 0.0917,0.35254 0.0917,0.5052 0,0.1536 0.0296,0.2916 0.0916,0.41307 0.24374,0.98013 0.3672,2.20467 0.3672,3.67387 0.12187,0.3068 0.12187,0.61306 0,0.91826 v 1.6536 c -0.12346,0.67454 -0.2296,1.31667 -0.32133,1.92814 -0.0916,0.61306 -0.2292,1.22613 -0.4136,1.83746 -0.36707,1.1016 -0.76613,2.112 -1.1932,3.03027 -0.42907,0.9188 -0.95053,1.8068 -1.562,2.6636 -0.2452,0.3072 -0.49,0.5672 -0.73427,0.78067 -0.24533,0.2156 -0.46,0.47506 -0.64333,0.7808 -0.30667,0.36706 -0.64267,0.72026 -1.00987,1.05613 -0.36773,0.33707 -0.76666,0.6584 -1.19373,0.96467 -0.30733,0.24533 -0.6292,0.49053 -0.96507,0.7344 -0.33706,0.2452 -0.68853,0.49053 -1.05573,0.7348 -1.04173,0.67453 -2.12813,1.22506 -3.2604,1.6532 -1.13334,0.42866 -2.312,0.85773 -3.536,1.28533 -0.85774,0.30627 -1.74534,0.5052 -2.66347,0.59747 -0.91827,0.0916 -1.83707,0.22973 -2.7552,0.41306 -0.42867,0.12187 -0.84227,0.16814 -1.24013,0.138 -0.39894,-0.0319 -0.7808,0.0145 -1.148,0.13747 h -0.7348 c -0.12294,0 -0.2912,-0.0156 -0.5052,-0.0453 -0.2152,-0.0323 -0.38294,-0.0167 -0.5052,0.0453 -0.3068,0.0604 -0.82614,0.0916 -1.56107,0.0916 -0.73427,0 -1.2556,-0.0312 -1.56133,-0.0916 h -0.9188 c -0.4292,-0.12293 -0.8724,-0.16933 -1.3312,-0.13747 -0.46,0.0301 -0.8724,-0.0161 -1.24014,-0.138 -0.3068,0 -0.5828,-0.0157 -0.82653,-0.0459 -0.24533,-0.0313 -0.52093,-0.0776 -0.82667,-0.13746 -0.73426,-0.18387 -1.50093,-0.3376 -2.29626,-0.46 -0.79587,-0.12293 -1.53134,-0.30627 -2.20374,-0.55053 -3.00053,-0.97854 -5.63426,-2.21867 -7.8984,-3.7192 -2.26613,-1.5 -4.16453,-3.47507 -5.6948,-5.924 -0.97973,-1.47027 -1.7448,-3.21507 -2.2964,-5.23494 -0.1228,-0.36813 -0.19893,-0.73533 -0.22853,-1.102 -0.0324,-0.36826 -0.1084,-0.76506 -0.23027,-1.19426 -0.12346,-0.4896 -0.21506,-1.08654 -0.27493,-1.7912 -0.062,-0.70307 0.0599,-1.24014 0.36667,-1.6072 0.30613,-0.48907 0.74946,-0.7808 1.33226,-0.8724 0.58067,-0.0917 1.2396,-0.13814 1.9744,-0.13814 h 5.786 c 0.4896,0 1.0104,0 1.56147,0 0.55107,0 1.04013,0.0917 1.4692,0.27614 0.67293,0.30666 1.07093,0.812 1.19373,1.51506 0.1224,0.70467 0.336,1.42347 0.64334,2.15787 0.24426,0.73533 0.55093,1.40987 0.91866,2.0208 0.3672,0.61293 0.76467,1.19427 1.19334,1.7448 0.30613,0.36813 0.6432,0.7052 1.0104,1.0104 0.3676,0.30733 0.7348,0.5828 1.102,0.82707 1.34693,0.85786 2.99946,1.56093 4.95987,2.112 0.42773,0.12346 0.8412,0.1844 1.2396,0.1844 0.398,0 0.8412,0.0609 1.3324,0.18333 h 0.4588 c 0.4896,0.12293 1.16253,0.18387 2.0208,0.18387 0.8568,0 1.52973,-0.0609 2.0204,-0.18387 0.18373,-0.0604 0.48906,-0.0917 0.91813,-0.0917 0.30627,-0.0604 0.62707,-0.1068 0.96467,-0.138 0.33533,-0.0303 0.6572,-0.10626 0.96453,-0.22973 2.08067,-0.55093 3.73387,-1.28587 4.9588,-2.20414 1.22507,-0.91826 2.08187,-2.4484 2.57187,-4.59213 0.1224,-0.4276 0.13813,-0.9188 0.0459,-1.46933 -0.0916,-0.55107 -0.19894,-0.97867 -0.32134,-1.28587 -0.61253,-1.6532 -1.65306,-2.93907 -3.1224,-3.85733 -0.18386,-0.12187 -0.5208,-0.30627 -1.0104,-0.55107 -0.9188,-0.5516 -1.9448,-0.9948 -3.07653,-1.33173 -1.13387,-0.336 -2.25,-0.68907 -3.35267,-1.05627 -0.4292,-0.1224 -0.84213,-0.22973 -1.2396,-0.32133 -0.39893,-0.0923 -0.84213,-0.198 -1.33173,-0.32187 -0.98014,-0.3052 -1.97454,-0.5652 -2.98547,-0.7808 -1.0104,-0.21347 -1.9744,-0.47293 -2.89213,-0.78013 -0.30734,-0.12187 -0.5516,-0.18387 -0.73547,-0.18387 -0.18333,0 -0.39893,-0.0604 -0.6432,-0.18333 -0.49013,-0.1224 -0.93333,-0.24427 -1.3312,-0.36827 -0.39893,-0.12133 -0.84227,-0.2432 -1.33173,-0.3672 -1.40894,-0.48853 -2.75534,-0.99373 -4.0412,-1.5156 -1.286,-0.5188 -2.47974,-1.1156 -3.5812,-1.79013 -1.41001,-0.91867 -2.69534,-1.98907 -3.85734,-3.21454 -1.16453,-1.22453 -2.0828,-2.63173 -2.75627,-4.22507 -0.2448,-0.55146 -0.4292,-1.11666 -0.55053,-1.69893 -0.124,-0.58173 -0.27547,-1.20827 -0.4588,-1.8828 -0.124,-0.55107 -0.2156,-1.34587 -0.27667,-2.388 -0.0609,-1.04067 -0.0312,-1.89747 0.0928,-2.57187 0.0599,-0.2432 0.0916,-0.61093 0.0916,-1.10213 0.18387,-0.6724 0.33547,-1.3156 0.45947,-1.92867 0.12133,-0.61093 0.3052,-1.22386 0.55053,-1.8364 0.91867,-2.14266 2.0968,-3.96413 3.5364,-5.46453 1.43747,-1.5 3.1068,-2.86147 5.0052,-4.0876 1.224,-0.73493 2.5396,-1.31493 3.94894,-1.74427 1.40786,-0.428 2.90786,-0.82666 4.5,-1.19466 0.61146,-0.12134 1.20893,-0.19734 1.7912,-0.22934 0.5812,-0.0307 1.17866,-0.1066599 1.79107,-0.2293299 0.18333,-0.0613 0.474,-0.0613 0.8724,0 0.398,0.0613 0.65786,0.0307 0.7808,-0.092" />
        <path
           id="path1613"
           style="fill:#0067a6;fill-opacity:1;fill-rule:nonzero;stroke:none;stroke-width:1;stroke-miterlimit:4;stroke-dasharray:none;stroke-opacity:1"
           d="m -302.21488,9.92092 h 9.36799 c 0.79467,0 1.576,0.016 2.34267,0.0467 0.764,0.0307 1.39067,0.19867 1.88267,0.50533 0.18266,0.12267 0.32,0.32134 0.412,0.596 0.0933,0.276 0.168,0.56747 0.23066,0.87267 v 0.4588 c 0.06,0.24533 0.0907,0.52133 0.0907,0.82707 0,0.30733 0,0.61253 0,0.91826 v 3.58227 c 0,0.4292 0.0147,0.84173 0.0467,1.2396 0.0307,0.39893 -0.016,0.7808 -0.13734,1.148 -0.308,1.04213 -0.91866,1.59267 -1.83733,1.6536 -0.91867,0.0609 -2.02,0.0916 -3.30667,0.0916 h -9.36799 c -1.22533,0 -2.28133,0.0453 -3.168,0.1376 -0.888,0.0916 -1.48533,0.6588 -1.79067,1.69893 -0.0627,0.3072 -0.0627,0.5828 0,0.82707 0.06,0.24533 0.0293,0.5208 -0.092,0.826 -0.0627,0.36773 -0.0773,0.78133 -0.0453,1.24013 0.0293,0.4588 0.0453,0.8724 0.0453,1.2396 v 8.1744 26.45054 8.63333 c 0,0.98027 -0.0453,1.8224 -0.13866,2.5256 -0.092,0.70467 -0.47467,1.20987 -1.148,1.5156 -0.428,0.12293 -0.91867,0.18387 -1.46934,0.18387 -0.55067,0 -1.072,0 -1.56133,0 h -6.2454 c -0.67466,0 -1.30133,-0.0303 -1.88266,-0.0923 -0.58267,-0.0604 -1.02534,-0.27493 -1.332,-0.6432 -0.30654,-0.48853 -0.45867,-1.11613 -0.45867,-1.8828 0,-0.764 0,-1.54533 0,-2.3416 v -9.1844 -25.53227 -7.8068 c 0,-0.42707 0.0141,-0.8724 0.0464,-1.3312 0.0297,-0.46 -0.0167,-0.8724 -0.138,-1.24013 -0.062,-0.30574 -0.062,-0.5808 0,-0.82654 0.0604,-0.24386 0.0296,-0.4896 -0.0923,-0.73493 -0.3072,-1.04013 -0.93373,-1.60733 -1.8828,-1.69893 -0.95,-0.0923 -2.06613,-0.1376 -3.352,-0.1376 h -8.54173 c -0.6744,0 -1.42347,0.0157 -2.25,0.0453 -0.826,0.0323 -1.48494,-0.014 -1.9744,-0.13694 -0.4912,-0.18386 -0.8584,-0.45986 -1.10214,-0.82706 -0.18386,-0.3052 -0.2912,-0.7032 -0.32133,-1.19374 -0.0317,-0.48906 -0.0464,-0.97866 -0.0464,-1.46986 v -4.5 c 0,-0.79533 0.0464,-1.5 0.138,-2.11253 0.0923,-0.61173 0.38187,-1.0704 0.8724,-1.37707 0.18387,-0.12266 0.51987,-0.24533 1.0104,-0.368 h 0.45947 36.73707" />
        <path
           id="path1615"
           style="fill:#0067a6;fill-opacity:1;fill-rule:nonzero;stroke:none;stroke-width:1;stroke-miterlimit:4;stroke-dasharray:none;stroke-opacity:1"
           d="m -233.05888,44.27026 c 0.12266,-0.3052 0.184,-0.74947 0.184,-1.33134 0,-0.5812 -0.0613,-1.02493 -0.184,-1.33226 v -1.56094 c -0.0613,-0.24426 -0.0773,-0.474 -0.0453,-0.68906 0.0307,-0.214 -0.016,-0.4432 -0.13733,-0.68854 -0.12267,-0.4896 -0.2,-0.96506 -0.23067,-1.424 -0.0307,-0.4588 -0.10666,-0.902 -0.228,-1.3312 0,-0.30626 -0.0627,-0.6432 -0.184,-1.0104 -0.184,-0.67346 -0.368,-1.3464 -0.552,-2.0208 -0.18266,-0.67346 -0.428,-1.34586 -0.73333,-2.0204 -1.348,-3.12293 -3.29333,-5.6484 -5.83333,-7.5776 -2.54134,-1.92813 -6.07734,-2.89213 -10.608,-2.89213 -0.12267,0.0609 -0.26,0.0776 -0.41334,0.0453 -0.15333,-0.0297 -0.29066,-0.0141 -0.41333,0.0463 -0.24533,0.0609 -0.49067,0.0776 -0.73333,0.0453 -0.24667,-0.0296 -0.52134,0.0156 -0.828,0.138 -0.67334,0.12346 -1.33067,0.26146 -1.97467,0.4136 -0.64133,0.1536 -1.23867,0.35306 -1.79067,0.5968 -2.572,1.1016 -4.608,2.63293 -6.10666,4.59227 -1.50134,1.95986 -2.71067,4.31613 -3.628,7.0724 -0.184,0.674 -0.32134,1.3312 -0.41334,1.9744 -0.092,0.64226 -0.23066,1.30106 -0.41333,1.97453 -0.0627,0.24533 -0.092,0.47453 -0.092,0.68853 0,0.21507 -0.0307,0.4448 -0.092,0.68907 -0.124,0.3068 -0.15333,0.64267 -0.092,1.00987 0.06,0.36773 0.06,0.70466 0,1.0104 -0.124,0.30733 -0.2,0.8724 -0.22933,1.69906 -0.032,0.82707 0.0147,1.3932 0.13733,1.69947 v 1.0104 c 0.06,0.24533 0.092,0.5052 0.092,0.78013 0,0.2756 0.0307,0.53654 0.092,0.7808 0,0.24534 0.0147,0.4744 0.0453,0.68907 0.0307,0.21507 0.0467,0.44427 0.0467,0.68853 0.184,0.6744 0.32133,1.34787 0.41333,2.02027 0.092,0.67453 0.26,1.31773 0.50534,1.9292 0.672,1.95987 1.49866,3.7812 2.48,5.46453 0.97866,1.6844 2.204,3.0464 3.67333,4.08654 0.30533,0.3072 0.62667,0.55146 0.964,0.73533 0.336,0.18333 0.68933,0.3672 1.056,0.55053 0.67333,0.4292 1.392,0.76614 2.15867,1.0104 0.76533,0.24534 1.576,0.4912 2.43466,0.73494 0.30534,0.12346 0.596,0.16933 0.872,0.13746 0.27467,-0.0296 0.56534,-0.014 0.872,0.0464 0.368,0.12294 0.73467,0.18334 1.10267,0.18334 0.36667,0 0.76533,0 1.19333,0 h 0.73467 c 0.30667,-0.0604 0.58133,-0.076 0.82667,-0.0459 0.244,0.0319 0.52,-0.0145 0.82666,-0.13747 0.61067,-0.1224 1.224,-0.22973 1.83734,-0.32133 0.61066,-0.0923 1.19333,-0.25987 1.744,-0.5052 2.63333,-1.04067 4.69866,-2.38854 6.2,-4.0412 1.5,-1.65307 2.76933,-3.79587 3.812,-6.4292 0.30533,-0.67334 0.53466,-1.40774 0.688,-2.20467 0.15333,-0.7948 0.352,-1.59107 0.59733,-2.38693 l 0.276,-2.20467 c 0.06,-0.24427 0.0907,-0.5052 0.0907,-0.7808 0,-0.27493 0,-0.5656 0,-0.8724 z m 14.236,-3.85734 c 0.12267,0.3672 0.19867,0.99587 0.23067,1.8828 0.0293,0.888 -0.016,1.5156 -0.13867,1.8828 v 1.19374 c -0.12267,0.61306 -0.184,1.25626 -0.184,1.92866 0,0.67454 -0.0613,1.34747 -0.18267,2.0208 -0.124,0.4292 -0.216,0.8584 -0.276,1.286 -0.0613,0.42867 -0.15333,0.85787 -0.27466,1.28547 -0.30801,1.10253 -0.59734,2.17387 -0.87334,3.21453 -0.276,1.04214 -0.628,2.05214 -1.056,3.0312 -1.83733,4.28654 -4.316,7.85214 -7.44,10.69894 -3.12267,2.848 -6.98,5.03706 -11.572,6.5672 -0.67467,0.24426 -1.34667,0.4276 -2.02,0.55053 -0.67467,0.1224 -1.348,0.24427 -2.02133,0.36827 -0.30667,0.12133 -0.628,0.18333 -0.964,0.18333 -0.33734,0 -0.65867,0.0303 -0.964,0.0917 l -3.03067,0.27547 c -0.24533,0.0604 -0.67467,0.076 -1.28533,0.0464 -0.61334,-0.0319 -1.01067,-0.0776 -1.19467,-0.13813 -0.30667,-0.0619 -0.59733,-0.0776 -0.87333,-0.0457 -0.27467,0.0301 -0.56534,0.0145 -0.872,-0.0459 h -1.01067 c -0.48933,-0.124 -0.94933,-0.19947 -1.37733,-0.23027 -0.42934,-0.0307 -0.888,-0.1072 -1.37734,-0.22907 -0.49066,-0.12346 -0.98,-0.22973 -1.46933,-0.32146 -0.49067,-0.0916 -0.98,-0.19947 -1.46933,-0.32187 -0.67467,-0.24373 -1.364,-0.48947 -2.06667,-0.73427 -0.704,-0.24386 -1.39333,-0.51933 -2.06667,-0.82666 -3.67333,-1.5916 -6.78133,-3.71921 -9.32266,-6.38281 -2.54,-2.664 -4.608,-5.83226 -6.19867,-9.50573 -0.36667,-0.85667 -0.67467,-1.75987 -0.91867,-2.70987 -0.24533,-0.9484 -0.52133,-1.91253 -0.82666,-2.8932 -0.12267,-0.3052 -0.184,-0.56506 -0.184,-0.7808 0,-0.21346 -0.0307,-0.4432 -0.092,-0.68853 -0.12267,-0.4276 -0.21467,-0.8724 -0.27467,-1.3312 -0.0613,-0.45987 -0.15333,-0.9328 -0.276,-1.424 -0.0613,-0.3052 -0.0773,-0.5968 -0.0453,-0.8724 0.0307,-0.27547 -0.016,-0.53533 -0.13734,-0.78067 -0.0627,-0.3672 -0.0627,-0.74946 0,-1.1484 0.06,-0.39693 0.06,-0.7808 0,-1.148 -0.124,-0.3052 -0.184,-0.78013 -0.184,-1.42293 0,-0.6432 0.06,-1.11667 0.184,-1.42387 0.06,-0.30573 0.06,-0.59693 0,-0.8724 -0.0627,-0.2756 -0.0627,-0.56573 0,-0.8724 v -0.55106 c 0.12134,-0.42814 0.168,-0.84174 0.13734,-1.24014 -0.032,-0.39733 0.0133,-0.78013 0.13733,-1.1484 0.12267,-0.3052 0.184,-0.62653 0.184,-0.96413 0,-0.33587 0.06,-0.65667 0.184,-0.964 0.30533,-1.04067 0.55067,-2.06667 0.73467,-3.07707 0.184,-1.0104 0.45866,-2.00426 0.82666,-2.98493 0.48934,-1.04013 0.948,-2.08067 1.37734,-3.1224 0.42666,-1.04013 0.94933,-2.0208 1.56133,-2.9396 1.83733,-2.93853 3.94933,-5.3864 6.33733,-7.3468 2.388,-1.95893 5.29467,-3.6428 8.724,-5.05213 0.796,-0.30534 1.63734,-0.55067 2.52667,-0.73467 0.88667,-0.18267 1.75867,-0.396 2.61733,-0.64267 0.30534,-0.12133 0.59734,-0.18266 0.87334,-0.18266 0.27466,0 0.564,-0.0307 0.872,-0.092 l 2.75466,-0.276 c 0.12267,-0.06 0.29067,-0.06 0.50534,0 0.21333,0.0613 0.38133,0.0613 0.50533,0 4.34667,-0.12267 8.112,0.32133 11.296,1.332 3.184,1.01066 6.03067,2.40333 8.54267,4.1788 0.79466,0.55106 1.62133,1.17973 2.47866,1.8828 0.85734,0.70413 1.56134,1.42293 2.112,2.1584 0.30667,0.3072 0.612,0.62813 0.91867,0.964 0.30667,0.33693 0.58133,0.65893 0.828,0.96413 0.672,0.98067 1.34533,1.9744 2.02,2.9848 0.67333,1.0104 1.25467,2.09853 1.74533,3.2604 0.36667,0.8584 0.688,1.68493 0.964,2.48027 0.27467,0.79586 0.56534,1.65266 0.872,2.57133 0.184,0.61307 0.336,1.2396 0.45867,1.8828 0.12267,0.6428 0.276,1.3016 0.46,1.97453 0.12134,0.4292 0.184,0.84267 0.184,1.2396 0,0.39947 0.06,0.7812 0.184,1.1484 0.12134,0.36774 0.168,0.75107 0.13734,1.14787 -0.032,0.39907 -0.016,0.75053 0.0453,1.05627 v 0.73493" />
        <path
           id="path1617"
           style="fill:#0067a6;fill-opacity:1;fill-rule:nonzero;stroke:none;stroke-width:1;stroke-miterlimit:4;stroke-dasharray:none;stroke-opacity:1"
           d="m -168.76821,31.87119 c 0.12266,-0.67227 0.13733,-1.49947 0.0453,-2.47907 -0.0907,-0.9792 -0.19867,-1.7136 -0.32133,-2.20466 -0.12267,-0.24387 -0.18267,-0.45894 -0.18267,-0.64334 0,-0.18333 -0.0613,-0.3672 -0.184,-0.55053 -0.73467,-1.8968 -2.08267,-3.2744 -4.04133,-4.1328 -1.04134,-0.4896 -2.236,-0.76507 -3.58134,-0.82707 -1.348,-0.0593 -2.756,-0.0916 -4.22533,-0.0916 h -10.65333 c -0.124,0.12387 -0.24534,0.1692 -0.368,0.138 -0.12267,-0.0308 -0.24534,-0.0464 -0.36667,-0.0464 -0.73467,0.18387 -1.22533,0.4912 -1.46933,0.9188 -0.308,0.49107 -0.44534,1.11774 -0.41467,1.8828 0.0307,0.76614 0.0467,1.51507 0.0467,2.25 v 8.5416 c 0,0.7344 0,1.46987 0,2.20374 0,0.73533 0.152,1.31773 0.45866,1.74586 0.244,0.36707 0.644,0.6124 1.19467,0.73427 0.55067,0.12347 1.16267,0.2152 1.83733,0.27507 0.672,0.062 1.37734,0.0776 2.112,0.0464 0.73467,-0.0297 1.37734,-0.0464 1.92934,-0.0464 h 5.41866 c 0.42667,0 0.88667,0.0167 1.37734,0.0464 0.48933,0.0312 0.91866,-0.0141 1.28533,-0.13814 h 1.19467 c 0.488,-0.12186 0.964,-0.18333 1.42266,-0.18333 0.46,0 0.90267,-0.0599 1.332,-0.18387 1.04,-0.3052 1.95867,-0.70306 2.75467,-1.19373 0.796,-0.48907 1.46933,-1.13227 2.02133,-1.92867 0.36667,-0.55146 0.64267,-1.1624 0.82667,-1.83693 0.18267,-0.67347 0.368,-1.43747 0.55067,-2.2964 z m 15.15333,41.42147 c 0.12267,0.3676 0.10667,0.70466 -0.0453,1.0104 -0.15334,0.3072 -0.32134,0.5208 -0.50534,0.6432 -0.36666,0.30626 -0.872,0.44426 -1.51466,0.41253 -0.64267,-0.0297 -1.30134,-0.0453 -1.97467,-0.0453 h -5.052 c -0.98,0 -1.836,-0.0464 -2.572,-0.138 -0.73333,-0.0923 -1.28533,-0.44373 -1.652,-1.05627 -0.49067,-0.7948 -0.76667,-1.7756 -0.82667,-2.93853 -0.0613,-1.16307 -0.216,-2.26507 -0.46,-3.3068 0,-0.24427 -0.0147,-0.47347 -0.0453,-0.68907 -0.032,-0.2136 -0.0467,-0.41306 -0.0467,-0.59693 -0.18266,-0.73427 -0.27466,-1.51507 -0.27466,-2.3416 0,-0.82707 -0.0613,-1.57547 -0.184,-2.25 -0.0613,-0.18387 -0.092,-0.45987 -0.092,-0.82707 -0.12267,-0.67293 -0.22934,-1.362 -0.32134,-2.06613 -0.092,-0.7032 -0.22933,-1.39227 -0.41333,-2.06667 -0.49067,-1.40733 -1.072,-2.66306 -1.744,-3.7656 -0.67467,-1.10213 -1.624,-1.92866 -2.848,-2.47973 -0.30667,-0.12187 -0.61333,-0.2136 -0.91867,-0.27547 -0.30666,-0.0605 -0.64266,-0.15213 -1.00933,-0.27506 -1.10267,-0.36827 -2.37467,-0.5516 -3.812,-0.5516 -1.43867,0 -2.86267,0 -4.27067,0 h -7.53066 c -0.492,0.12346 -0.91867,0.2156 -1.28667,0.2756 -0.36667,0.0615 -0.67467,0.24533 -0.91867,0.55106 -0.49066,0.61294 -0.704,1.56134 -0.64266,2.84734 0.06,1.28546 0.092,2.44946 0.092,3.49013 v 11.75573 c 0,0.49107 -0.016,0.99627 -0.0467,1.51507 -0.0307,0.52133 -0.0453,1.026 -0.0453,1.5156 0,0.49066 0,0.9344 0,1.33173 0,0.39853 -0.0613,0.75 -0.18267,1.05627 -0.184,0.55053 -0.552,0.9188 -1.10267,1.10213 -0.308,0.12293 -0.67466,0.18387 -1.10266,0.18387 -0.428,0 -0.888,0 -1.37734,0 h -4.13333 c -0.98,0 -2.02,0.0156 -3.12267,0.0453 -1.10133,0.0317 -1.928,-0.1672 -2.48,-0.5964 -0.48933,-0.30573 -0.73333,-0.87293 -0.73333,-1.69893 0,-0.82707 0,-1.63747 0,-2.4344 V 14.78839 c 0,-0.6724 -0.016,-1.3776 -0.0467,-2.11187 -0.032,-0.73493 0.10534,-1.3156 0.41334,-1.74493 0.244,-0.368 0.70266,-0.67333 1.37733,-0.91867 0.12267,-0.06 0.26,-0.076 0.41333,-0.0453 0.152,0.0307 0.28934,0.0147 0.41334,-0.0467 h 31.22666 c 0.97867,0 1.91334,0.016 2.80134,0.0467 0.88666,0.0307 1.72933,0.13733 2.52533,0.32133 0.30667,0.12267 0.628,0.184 0.964,0.184 0.336,0 0.65867,0.0613 0.96533,0.18267 0.42667,0.124 0.856,0.24533 1.28534,0.36667 0.428,0.124 0.85733,0.276 1.28533,0.46 1.53067,0.67493 2.94,1.50093 4.22533,2.48013 1.28667,0.97973 2.356,2.112 3.21467,3.39787 0.244,0.30733 0.44267,0.62866 0.59733,0.96466 0.152,0.33747 0.35067,0.65827 0.596,0.964 0.49067,0.8584 0.85734,1.7448 1.10267,2.6636 0.244,0.91867 0.52,1.92867 0.82667,3.03067 0.06,0.24533 0.076,0.4912 0.0453,0.73493 -0.0307,0.24534 0.0147,0.4912 0.13867,0.7344 v 0.82707 c 0.12133,0.49067 0.152,1.08747 0.092,1.79067 -0.0627,0.70466 -0.15467,1.27186 -0.276,1.69946 -0.124,0.49014 -0.184,0.9344 -0.184,1.3312 0,0.39894 -0.0613,0.81254 -0.184,1.24067 -0.30667,0.91773 -0.612,1.79013 -0.91734,2.61667 -0.308,0.82706 -0.70533,1.60773 -1.19466,2.34213 -0.12267,0.18387 -0.276,0.38333 -0.45867,0.59693 -0.184,0.2156 -0.33733,0.41347 -0.46,0.5968 -0.18267,0.24534 -0.38267,0.4912 -0.596,0.73494 -0.216,0.24586 -0.44533,0.45933 -0.68933,0.64266 -0.36667,0.30734 -0.73467,0.6136 -1.10267,0.9188 -0.36667,0.30734 -0.76533,0.61254 -1.19333,0.9188 -0.24534,0.18334 -0.49067,0.3828 -0.73467,0.5968 -0.24533,0.21467 -0.42933,0.47454 -0.552,0.7808 -0.12267,0.3672 -0.0613,0.6744 0.184,0.91814 0.244,0.24586 0.46,0.4292 0.644,0.55106 0.61067,0.49067 1.224,0.98027 1.836,1.46934 0.612,0.49106 1.132,1.0724 1.56133,1.7448 0.73467,1.04213 1.316,2.1124 1.74534,3.21506 0.428,1.10214 0.82666,2.35787 1.19466,3.7656 0.12134,0.55054 0.19734,1.13334 0.228,1.7448 0.0307,0.61254 0.10667,1.19374 0.23067,1.74534 0,0.3672 0.0133,0.71973 0.0453,1.05573 0.0307,0.33747 0.0467,0.68907 0.0467,1.05627 0.06,0.24533 0.076,0.5052 0.0453,0.78066 -0.032,0.27507 -0.016,0.56667 0.0453,0.8724 0.0613,0.24534 0.0773,0.49067 0.0467,0.73494 -0.032,0.24533 -0.016,0.5208 0.0453,0.82653 0.12266,0.61307 0.184,1.2552 0.184,1.92867 0,0.67453 0.06,1.31773 0.184,1.9292 l 0.276,1.65253 c 0.12133,0.55107 0.244,1.10267 0.36666,1.6532 0.12134,0.55147 0.244,1.0724 0.36667,1.56147" />
        <path
           id="path1619"
           style="fill:#0067a6;fill-opacity:1;fill-rule:nonzero;stroke:none;stroke-width:1;stroke-miterlimit:4;stroke-dasharray:none;stroke-opacity:1"
           d="m -140.02287,9.92092 h 42.339988 c 0.73467,0 1.43734,0.032 2.112,0.092 0.67334,0.0613 1.16267,0.30667 1.46934,0.73467 0.12266,0.184 0.19866,0.39867 0.23066,0.644 0.0293,0.2448 0.10534,0.49013 0.22934,0.73333 v 1.01094 c 0.06,0.42866 0.076,0.88746 0.0453,1.3776 -0.0307,0.49066 -0.0453,0.94946 -0.0453,1.3776 0,0.49066 0.0147,0.964 0.0453,1.42346 0.0307,0.4588 0.0147,0.9036 -0.0453,1.3312 -0.0613,0.30734 -0.092,0.76667 -0.092,1.3776 -0.184,0.73547 -0.49067,1.226 -0.91867,1.46987 -0.368,0.2452 -0.82667,0.3676 -1.37733,0.3676 -0.552,0 -1.13467,0 -1.74534,0 h -6.337328 -16.62266 c -0.49066,0 -1.05733,-0.014 -1.7,-0.0463 -0.64266,-0.0297 -1.28533,-0.0297 -1.92933,0 -0.64133,0.0323 -1.23867,0.0916 -1.79067,0.18386 -0.55066,0.0916 -0.94933,0.2296 -1.19333,0.41294 -0.42933,0.30786 -0.688,0.75106 -0.78133,1.33227 -0.092,0.58293 -0.13734,1.2396 -0.13734,1.97453 v 5.23493 2.66347 c 0.12267,0.4912 0.244,0.90373 0.368,1.2396 0.12134,0.33747 0.336,0.59693 0.64267,0.7808 0.36667,0.24533 0.79467,0.38333 1.28533,0.41347 0.48934,0.0319 1.01067,0.0464 1.56134,0.0464 h 4.96 15.79732 c 0.42667,0 0.964,-0.0145 1.60667,-0.0464 0.64266,-0.0301 1.26933,-0.0301 1.88266,0 0.610672,0.0319 1.178672,0.0771 1.698672,0.138 0.519996,0.0615 0.903996,0.18333 1.149326,0.3672 0.30534,0.18333 0.51867,0.55106 0.64267,1.10213 0.12133,0.55053 0.19733,1.14787 0.22933,1.7912 0.0293,0.64267 0.0293,1.30093 0,1.9744 -0.032,0.67453 -0.0467,1.25573 -0.0467,1.7448 0,0.4292 0,0.85787 0,1.286 0,0.42853 -0.0613,0.7968 -0.18267,1.102 -0.124,0.49067 -0.368,0.888 -0.73467,1.19373 -0.308,0.18387 -0.72133,0.30734 -1.239996,0.3672 -0.52133,0.062 -1.10266,0.0923 -1.745332,0.0923 -0.64267,0 -1.28533,-0.0147 -1.92933,-0.0459 -0.64267,-0.0308 -1.18,-0.0464 -1.60667,-0.0464 h -17.90932 c -0.73467,0 -1.44,-0.014 -2.112,-0.0453 -0.67467,-0.0307 -1.30267,0 -1.884,0.0917 -0.58267,0.0916 -1.07067,0.27547 -1.46934,0.55107 -0.39866,0.27493 -0.688,0.68853 -0.872,1.24 -0.0613,0.3068 -0.092,0.62813 -0.092,0.96413 0,0.33747 0,0.6588 0,0.964 v 3.49067 5.1432 c 0,0.7344 0.0453,1.39333 0.13734,1.97453 0.0933,0.5828 0.352,1.026 0.78133,1.3312 0.184,0.18387 0.41333,0.29174 0.68933,0.32187 0.27467,0.0319 0.56534,0.10733 0.872,0.22973 h 0.91867 c 0.30533,0.062 0.64267,0.0776 1.00933,0.0453 0.368,-0.0297 0.704,-0.0453 1.01067,-0.0453 h 3.85733 17.26666 4.867998 c 0.48933,0 0.964,0 1.424,0 0.45867,0 0.872,0.0917 1.23867,0.27547 0.49066,0.18333 0.828,0.52093 1.01066,1.01053 0.12267,0.30614 0.19867,0.6744 0.23067,1.102 0.0293,0.4292 0.0453,0.888 0.0453,1.3776 v 4.22454 c 0,0.7344 -0.032,1.42346 -0.092,2.06666 -0.0613,0.64214 -0.33733,1.11774 -0.82666,1.42347 -0.368,0.30667 -0.84267,0.45933 -1.424,0.45933 -0.58267,0 -1.20934,0 -1.88267,0 h -6.887998 -27.18532 -7.256 c -0.85734,0 -1.60667,-0.0464 -2.24934,-0.138 -0.644,-0.0923 -1.11866,-0.38186 -1.424,-0.8724 -0.24533,-0.3672 -0.368,-0.8412 -0.368,-1.42346 0,-0.5812 0,-1.1484 0,-1.69894 V 64.56756 39.58583 19.56449 13.87076 c 0,-0.5516 0,-1.10267 0,-1.65373 0,-0.55107 0.12267,-0.9788 0.368,-1.28547 0.244,-0.428 0.70267,-0.73467 1.37734,-0.91867 0.12266,-0.06 0.244,-0.076 0.368,-0.0453 0.12133,0.0307 0.244,0.0147 0.36666,-0.0467" />
        <path
           id="path1621"
           style="fill:#0067a6;fill-opacity:1;fill-rule:nonzero;stroke:none;stroke-width:1;stroke-miterlimit:4;stroke-dasharray:none;stroke-opacity:1"
           d="m -39.454872,44.91346 c 0.12133,-0.30574 0.184,-0.79534 0.184,-1.46987 0,-0.6728 -0.0627,-1.1624 -0.184,-1.46973 v -1.7448 c -0.124,-0.55107 -0.2,-1.13174 -0.22934,-1.7448 -0.032,-0.61094 -0.108,-1.16254 -0.23066,-1.6536 -0.12267,-0.3052 -0.16934,-0.59694 -0.13734,-0.8724 0.0307,-0.27507 -0.016,-0.56507 -0.13733,-0.8724 -0.308,-0.97814 -0.59733,-1.91254 -0.872,-2.80107 -0.276,-0.88693 -0.66,-1.7292 -1.14933,-2.52547 -0.91734,-1.46933 -1.97467,-2.7396 -3.168,-3.812 -1.19467,-1.0704 -2.64934,-1.97453 -4.36267,-2.70893 -0.55067,-0.18387 -1.10133,-0.35147 -1.65333,-0.5052 -0.55067,-0.15253 -1.10267,-0.2896 -1.65334,-0.41347 -0.49066,-0.0599 -0.93333,-0.10626 -1.332,-0.13746 -0.39866,-0.0303 -0.84133,-0.1068 -1.33066,-0.22974 -0.24534,-0.0604 -0.49067,-0.076 -0.736,-0.0464 -0.24534,0.0323 -0.45867,0.0167 -0.64134,-0.0453 h -2.02133 c -0.30667,-0.0604 -0.64267,-0.076 -1.01067,-0.0463 -0.36666,0.0323 -0.73466,0.0463 -1.10133,0.0463 h -4.13333 c -0.12267,0.12294 -0.32134,0.15374 -0.59734,0.0917 -0.27466,-0.0604 -0.504,-0.0604 -0.68933,0 -0.30667,0.12294 -0.612,0.22974 -0.91733,0.32187 -0.30667,0.0916 -0.552,0.29067 -0.73467,0.5968 -0.24533,0.3068 -0.368,0.7344 -0.368,1.286 0,0.55053 0,1.16307 0,1.8364 0,0.7964 -0.0147,1.62293 -0.0453,2.47973 -0.032,0.8584 -0.0467,1.71507 -0.0467,2.57187 v 25.624 c 0,0.3672 -0.0147,0.76667 -0.0453,1.19373 -0.032,0.42974 0.0147,0.79694 0.13733,1.10214 v 0.91866 c 0,0.42867 0.0147,0.84227 0.0467,1.24014 0.0293,0.3984 0.10666,0.75 0.22933,1.05626 0.36667,0.73387 1.07067,1.11774 2.112,1.14734 1.04133,0.0319 2.112,0.0464 3.21467,0.0464 2.388,0 4.80533,-0.0145 7.256,-0.0464 2.448,-0.0296 4.53066,-0.3812 6.24533,-1.05574 2.264,-0.91866 4.05467,-2.14266 5.372,-3.67386 1.31733,-1.53027 2.43467,-3.42867 3.352,-5.69427 0.24533,-0.4896 0.428,-1.04013 0.552,-1.65373 0.12133,-0.61094 0.276,-1.22387 0.45867,-1.8364 v -0.73494 c 0.12266,-0.42706 0.184,-0.88693 0.184,-1.3776 0,-0.48906 0.06,-0.97866 0.184,-1.4692 z m 14.32666,-4.40894 c 0,0.18387 0.0147,0.4292 0.0467,0.73494 0.0293,0.3068 0.0467,0.6428 0.0467,1.00986 0,0.36774 -0.0173,0.7052 -0.0467,1.01054 -0.032,0.3072 -0.0467,0.5208 -0.0467,0.6432 0,0.4292 -0.0147,0.84266 -0.0453,1.2396 -0.032,0.39893 -0.0467,0.78066 -0.0467,1.1484 -0.12266,0.3068 -0.16933,0.61253 -0.13733,0.91826 0.0307,0.3072 0.0147,0.6124 -0.0453,0.91814 -0.124,0.67506 -0.21467,1.348 -0.276,2.02093 -0.0613,0.6744 -0.184,1.34733 -0.36667,2.02027 -0.308,1.0416 -0.58267,2.0364 -0.82667,2.98493 -0.24533,0.95 -0.55066,1.8828 -0.91866,2.80147 -1.04267,2.57186 -2.328,4.89906 -3.85734,6.97973 -1.532,2.08227 -3.368,3.85787 -5.51066,5.32707 -1.22534,0.85786 -2.496,1.5932 -3.812,2.20413 -1.31734,0.61307 -2.74,1.1636 -4.27067,1.6532 -0.612,0.18387 -1.24,0.32187 -1.88267,0.41347 -0.64266,0.0917 -1.30133,0.22973 -1.97466,0.4136 -0.30667,0.0609 -0.59734,0.0916 -0.872,0.0916 -0.276,0 -0.56667,0.0313 -0.872,0.0917 -0.24534,0.062 -0.492,0.0776 -0.736,0.0459 -0.24534,-0.0303 -0.52,-0.0147 -0.82667,0.0457 -0.12267,0.062 -0.30667,0.0777 -0.55067,0.0459 -0.24533,-0.0301 -0.42933,-0.0145 -0.55066,0.0464 -0.49067,0.12133 -1.10267,0.15213 -1.83734,0.0916 -0.73466,-0.0604 -1.37733,-0.0916 -1.928,-0.0916 h -21.4 c -1.04133,0 -1.91466,-0.0464 -2.61733,-0.138 -0.70533,-0.0923 -1.20933,-0.5052 -1.516,-1.2396 -0.18267,-0.4896 -0.26,-1.24067 -0.22933,-2.25 0.0307,-1.0104 0.0467,-1.8516 0.0467,-2.526 V 15.24839 c 0,-0.73493 -0.016,-1.51573 -0.0467,-2.3428 -0.0307,-0.826 0.10666,-1.48333 0.41333,-1.974 0.244,-0.368 0.70267,-0.67333 1.37733,-0.91867 0.12267,-0.06 0.244,-0.076 0.368,-0.0453 0.12267,0.0307 0.244,0.0147 0.368,-0.0467 h 24.70534 c 0.36666,0 0.748,-0.0133 1.148,-0.0467 0.39733,-0.0293 0.74933,-0.0133 1.056,0.0467 h 1.10133 c 0.30667,0.12267 0.644,0.16934 1.01067,0.13734 0.368,-0.0293 0.704,0.016 1.01066,0.13866 0.36667,0.12267 0.71867,0.16934 1.056,0.13734 0.336,-0.0307 0.68934,0.016 1.056,0.13866 0.85734,0.18267 1.684,0.352 2.48,0.504 0.796,0.15467 1.56134,0.384 2.296,0.68907 0.67334,0.30733 1.34667,0.58293 2.02134,0.8272 0.67333,0.24467 1.31466,0.5504 1.928,0.9176 1.52933,0.9808 2.94,1.9292 4.22533,2.84747 l 0.55067,0.55106 c 0.61066,0.49107 1.16266,1.0416 1.65333,1.65307 l 0.82667,0.73493 c 0.30533,0.49107 0.65733,0.964 1.056,1.42347 0.39733,0.45933 0.74933,0.93373 1.056,1.42333 0.79466,1.286 1.5,2.64947 2.112,4.0876 0.612,1.43854 1.16266,2.95414 1.65333,4.54627 0.30667,0.7964 0.50533,1.62293 0.59733,2.4792 0.092,0.8584 0.22934,1.71507 0.41334,2.57133 0,0.30734 0.0147,0.5672 0.0467,0.78134 0.0293,0.21506 0.0453,0.44466 0.0453,0.68906 0.12133,0.36707 0.168,0.76614 0.13733,1.19374 -0.032,0.42906 0.0147,0.79626 0.13733,1.10146 v 1.0104" />
      </g>
      <g
         style="fill:#0067a6;fill-opacity:1;stroke:none;stroke-width:1;stroke-miterlimit:4;stroke-dasharray:none;stroke-opacity:1"
         id="g1633">
        <path
           id="path1625"
           style="fill:#0067a6;fill-opacity:1;fill-rule:nonzero;stroke:none;stroke-width:1;stroke-miterlimit:4;stroke-dasharray:none;stroke-opacity:1"
           d="m 134.31047,8.5435901 c 11.87867,-0.184 20.052,3.3381299 24.52267,10.5619999 0.61066,0.97973 1.08666,1.99013 1.42266,3.0308 0.336,1.0416 0.65867,2.17347 0.96534,3.3984 0.12266,0.49013 0.168,1.05573 0.13733,1.6984 -0.032,0.64333 -0.168,1.11827 -0.412,1.424 -0.308,0.3672 -0.736,0.59693 -1.28667,0.68853 -0.55066,0.0917 -1.164,0.138 -1.836,0.138 h -5.78666 c -0.552,0 -1.10267,0 -1.65334,0 -0.552,0 -1.01066,-0.0604 -1.37733,-0.18333 -0.73467,-0.30627 -1.19467,-0.79587 -1.37733,-1.47027 -0.184,-0.6724 -0.43067,-1.34586 -0.73467,-2.02026 -0.24667,-0.61094 -0.584,-1.25427 -1.01067,-1.92867 -0.42933,-0.67293 -0.888,-1.19427 -1.37733,-1.56147 -0.86,-0.61146 -1.68533,-1.13226 -2.48133,-1.56093 -0.73334,-0.30627 -1.63867,-0.56613 -2.70934,-0.7808 -1.07066,-0.214 -2.17466,-0.35147 -3.30533,-0.41347 -1.13467,-0.0604 -2.25067,-0.0297 -3.35333,0.0916 -1.10134,0.124 -2.08,0.3672 -2.93734,0.73547 -1.41066,0.61253 -2.496,1.3312 -3.26,2.15773 -0.768,0.82667 -1.30266,2.06667 -1.608,3.71987 -0.124,0.42867 -0.15466,0.90413 -0.0933,1.42347 0.0613,0.5208 0.15467,0.93426 0.276,1.2396 0.48933,1.28586 1.17867,2.19 2.06667,2.70986 0.88666,0.5208 1.944,1.026 3.168,1.51507 0.67466,0.30733 1.36266,0.53693 2.068,0.6896 0.70266,0.15253 1.42266,0.35253 2.15866,0.59587 1.652,0.55146 3.352,1.02653 5.096,1.42386 1.74534,0.39907 3.47467,0.8428 5.19067,1.3324 0.304,0.1228 0.61067,0.18334 0.916,0.18334 0.308,0 0.612,0.0619 0.92,0.18373 1.224,0.42867 2.49467,0.82667 3.81067,1.19387 1.31733,0.36706 2.49333,0.888 3.53733,1.56133 1.652,1.04173 3.076,2.08187 4.26933,3.1224 1.19467,1.04227 2.31067,2.38813 3.35334,4.04173 0.30533,0.49014 0.56533,1.0416 0.78,1.65254 0.21333,0.61306 0.444,1.2256 0.68933,1.83706 0.06,0.18334 0.0907,0.35254 0.0907,0.5052 0,0.1536 0.032,0.2916 0.0933,0.41307 0.24267,0.98013 0.36667,2.20467 0.36667,3.67387 0.12133,0.3068 0.12133,0.61306 0,0.91826 v 1.6536 c -0.124,0.67454 -0.23067,1.31667 -0.32134,1.92814 -0.092,0.61306 -0.22933,1.22613 -0.41466,1.83746 -0.36667,1.1016 -0.76534,2.112 -1.192,3.03027 -0.43067,0.9188 -0.95067,1.8068 -1.56267,2.6636 -0.24533,0.3072 -0.48933,0.5672 -0.73467,0.78067 -0.24533,0.2156 -0.45866,0.47506 -0.64266,0.7808 -0.30667,0.36706 -0.64267,0.72026 -1.00934,1.05613 -0.36933,0.33707 -0.76666,0.6584 -1.19466,0.96467 -0.30667,0.24533 -0.628,0.49053 -0.964,0.7344 -0.33734,0.2452 -0.68934,0.49053 -1.056,0.7348 -1.04267,0.67453 -2.128,1.22506 -3.26134,1.6532 -1.132,0.42866 -2.312,0.85773 -3.536,1.28533 -0.85733,0.30627 -1.74533,0.5052 -2.66266,0.59747 -0.91867,0.0916 -1.83734,0.22973 -2.75467,0.41306 -0.42933,0.12187 -0.84267,0.16814 -1.24133,0.138 -0.39867,-0.0319 -0.78,0.0145 -1.148,0.13747 h -0.73467 c -0.12267,0 -0.29067,-0.0156 -0.50533,-0.0453 -0.21334,-0.0323 -0.38267,-0.0167 -0.50534,0.0453 -0.30666,0.0604 -0.82533,0.0916 -1.56,0.0916 -0.73466,0 -1.25466,-0.0312 -1.56266,-0.0916 h -0.91734 c -0.42933,-0.12293 -0.87333,-0.16933 -1.332,-0.13747 -0.45866,0.0301 -0.87333,-0.0161 -1.24,-0.138 -0.308,0 -0.584,-0.0157 -0.82533,-0.0459 -0.24667,-0.0313 -0.52133,-0.0776 -0.828,-0.13746 -0.73467,-0.18387 -1.5,-0.3376 -2.296,-0.46 -0.796,-0.12294 -1.53067,-0.30627 -2.204,-0.55054 -3,-0.97853 -5.63333,-2.21866 -7.89867,-3.7192 -2.26533,-1.5 -4.164,-3.47506 -5.69467,-5.924 -0.98,-1.47026 -1.744,-3.21506 -2.29466,-5.23493 -0.124,-0.36813 -0.20134,-0.73533 -0.22934,-1.102 -0.0333,-0.36827 -0.10933,-0.76507 -0.23066,-1.19427 -0.124,-0.4896 -0.21467,-1.08653 -0.27467,-1.7912 -0.0627,-0.70306 0.06,-1.24013 0.36667,-1.6072 0.30533,-0.48906 0.74933,-0.7808 1.33066,-0.8724 0.58134,-0.0917 1.24,-0.13813 1.976,-0.13813 h 5.78534 c 0.48933,0 1.00933,0 1.56267,0 0.55066,0 1.03866,0.0917 1.468,0.27613 0.67333,0.30667 1.07066,0.812 1.19466,1.51507 0.12134,0.70467 0.336,1.42347 0.64267,2.15787 0.244,0.73533 0.55067,1.40986 0.91733,2.0208 0.368,0.61293 0.76667,1.19426 1.19467,1.7448 0.30533,0.36813 0.64267,0.7052 1.01067,1.0104 0.368,0.30733 0.736,0.5828 1.10266,0.82706 1.34667,0.85787 2.99867,1.56094 4.95867,2.112 0.428,0.12347 0.84133,0.1844 1.23867,0.1844 0.39866,0 0.84133,0.0609 1.33333,0.18334 h 0.45867 c 0.48933,0.12293 1.16266,0.18386 2.02133,0.18386 0.856,0 1.52933,-0.0609 2.02,-0.18386 0.184,-0.0604 0.49067,-0.0917 0.91867,-0.0917 0.30533,-0.0604 0.62666,-0.1068 0.96533,-0.138 0.33467,-0.0303 0.656,-0.10627 0.96267,-0.22974 2.08133,-0.55093 3.73466,-1.28586 4.96,-2.20413 1.22533,-0.91827 2.08133,-2.4484 2.572,-4.59213 0.12133,-0.4276 0.13733,-0.9188 0.0467,-1.46934 -0.0933,-0.55106 -0.20133,-0.97866 -0.32266,-1.28586 -0.612,-1.6532 -1.65334,-2.93907 -3.12267,-3.85734 -0.18267,-0.12186 -0.52133,-0.30626 -1.01067,-0.55106 -0.91866,-0.5516 -1.944,-0.9948 -3.076,-1.33174 -1.13333,-0.336 -2.24933,-0.68906 -3.352,-1.05626 -0.42933,-0.1224 -0.84266,-0.22974 -1.24,-0.32134 -0.4,-0.0923 -0.84266,-0.198 -1.332,-0.32186 -0.97866,-0.3052 -1.97466,-0.5652 -2.984,-0.7808 -1.01066,-0.21347 -1.976,-0.47294 -2.89333,-0.78014 -0.308,-0.12186 -0.552,-0.18386 -0.73467,-0.18386 -0.18533,0 -0.4,-0.0604 -0.64266,-0.18334 -0.492,-0.1224 -0.936,-0.24426 -1.332,-0.36826 -0.4,-0.12134 -0.84267,-0.2432 -1.332,-0.3672 -1.40934,-0.48854 -2.756,-0.99374 -4.04267,-1.5156 -1.28533,-0.5188 -2.47867,-1.1156 -3.58,-1.79014 -1.40933,-0.91866 -2.696,-1.98906 -3.85733,-3.21453 -1.164,-1.22453 -2.08267,-2.63173 -2.75601,-4.22507 -0.24533,-0.55146 -0.42933,-1.11666 -0.55066,-1.69893 -0.124,-0.58173 -0.276,-1.20827 -0.45867,-1.8828 -0.12533,-0.55107 -0.216,-1.34587 -0.276,-2.388 -0.0627,-1.04067 -0.032,-1.89747 0.0907,-2.57187 0.06,-0.2432 0.0933,-0.61093 0.0933,-1.10213 0.18267,-0.6724 0.33467,-1.3156 0.45867,-1.92867 0.12133,-0.61093 0.30533,-1.22386 0.54933,-1.8364 0.92,-2.14266 2.09867,-3.96413 3.53734,-5.46453 1.43733,-1.5 3.10666,-2.86147 5.00533,-4.0876 1.224,-0.73493 2.54,-1.31493 3.95067,-1.74427 1.40533,-0.428 2.90533,-0.82666 4.5,-1.19466 0.61066,-0.12134 1.208,-0.19734 1.78933,-0.22934 0.58267,-0.0307 1.17867,-0.1066599 1.79067,-0.2293299 0.18533,-0.0613 0.47466,-0.0613 0.872,0 0.39866,0.0613 0.66,0.0307 0.78133,-0.092" />
        <path
           id="path1627"
           style="fill:#0067a6;fill-opacity:1;fill-rule:nonzero;stroke:none;stroke-width:1;stroke-miterlimit:4;stroke-dasharray:none;stroke-opacity:1"
           d="m 204.01981,49.96452 c 0.79333,-0.30573 1.16133,-0.82666 1.10133,-1.56146 -0.0627,-0.7344 -0.24533,-1.43747 -0.55067,-2.112 -0.124,-0.24427 -0.184,-0.474 -0.184,-0.68854 0,-0.21466 -0.0627,-0.44426 -0.18533,-0.68906 -0.79467,-2.0812 -1.52933,-4.1932 -2.20267,-6.33694 -0.67466,-2.1428 -1.44,-4.28546 -2.29733,-6.4292 -0.12133,-0.30573 -0.244,-0.68906 -0.36667,-1.1484 -0.12266,-0.45893 -0.276,-0.88706 -0.45866,-1.286 -0.18534,-0.39693 -0.39867,-0.7484 -0.64267,-1.05573 -0.24533,-0.30573 -0.552,-0.45933 -0.92,-0.45933 -0.12267,0.12333 -0.244,0.21506 -0.36667,0.27546 -0.12266,0.062 -0.24533,0.1536 -0.36666,0.2756 -0.49067,0.6124 -0.84134,1.34787 -1.056,2.20414 -0.216,0.85826 -0.476,1.6848 -0.78,2.48013 -0.73467,1.71467 -1.39334,3.45947 -1.976,5.23493 -0.58134,1.77654 -1.20934,3.5516 -1.88267,5.32654 -0.24667,0.61306 -0.46,1.20986 -0.64133,1.7912 -0.18534,0.5828 -0.36934,1.20986 -0.55334,1.8828 -0.18266,0.49013 -0.15333,1.0416 0.092,1.65306 0.30667,0.4292 0.812,0.67454 1.516,0.7344 0.70267,0.062 1.424,0.0923 2.15867,0.0923 h 6.98 c 0.55067,0 1.16267,0 1.83733,0 0.672,0 1.252,-0.0605 1.74534,-0.18386 z m 23.78533,21.03227 c 0.06,0.24533 0.168,0.55107 0.32267,0.91827 0.152,0.3676 0.276,0.75053 0.368,1.1484 0.0907,0.3984 0.10533,0.78013 0.044,1.14733 -0.0613,0.3672 -0.27467,0.64333 -0.64134,0.82707 -0.49066,0.3068 -1.30266,0.42773 -2.43333,0.3672 -1.13467,-0.0604 -2.068,-0.0916 -2.80267,-0.0916 h -4.316 c -0.49066,0 -0.93333,0.0156 -1.332,0.0453 -0.39866,0.0317 -0.78,-0.0141 -1.14933,-0.1376 -0.67467,-0.18333 -1.16267,-0.55093 -1.468,-1.102 -0.308,-0.4896 -0.53733,-1.0104 -0.68933,-1.56093 -0.15334,-0.5516 -0.352,-1.10267 -0.59734,-1.6532 -0.30666,-0.97907 -0.628,-1.95881 -0.964,-2.93947 -0.33733,-0.97867 -0.688,-1.92814 -1.056,-2.84694 -0.18266,-0.55106 -0.352,-1.05626 -0.50533,-1.5156 -0.15333,-0.45893 -0.32133,-0.8724 -0.50533,-1.2396 -0.18267,-0.3672 -0.45867,-0.68853 -0.82667,-0.96413 -0.36667,-0.27547 -0.85733,-0.47387 -1.468,-0.5968 -0.308,0 -0.59733,-0.0147 -0.872,-0.0464 -0.27733,-0.0301 -0.568,-0.0459 -0.87333,-0.0459 h -14.512 c -1.04267,0 -2.15867,-0.014 -3.352,-0.0463 -1.19334,-0.0297 -2.128,0.2 -2.80134,0.68907 -0.49066,0.3672 -0.82666,0.85773 -1.01066,1.4692 -0.18267,0.6136 -0.39867,1.22613 -0.64134,1.8376 -0.492,1.0416 -0.90533,2.128 -1.24133,3.2604 -0.33733,1.13333 -0.72,2.25 -1.14667,3.352 -0.24666,0.61253 -0.47733,1.25573 -0.69066,1.92813 -0.21467,0.67454 -0.56534,1.19427 -1.05601,1.562 -0.30533,0.2448 -0.74933,0.41307 -1.332,0.50467 -0.58133,0.0917 -1.224,0.138 -1.928,0.138 -0.704,0 -1.42266,-0.0145 -2.15733,-0.0463 -0.73467,-0.0297 -1.37733,-0.0453 -1.92933,-0.0453 -0.79734,0 -1.76134,0.0156 -2.89334,0.0453 -1.13333,0.0317 -1.944,-0.10627 -2.43333,-0.41253 -0.30667,-0.18387 -0.476,-0.45987 -0.504,-0.82707 -0.0333,-0.3672 0,-0.74947 0.0907,-1.148 0.0907,-0.39733 0.19733,-0.78013 0.32133,-1.1484 0.12133,-0.3672 0.244,-0.67293 0.368,-0.91773 0.61067,-1.40827 1.17733,-2.84787 1.69867,-4.3172 0.52,-1.4692 1.056,-2.9072 1.60666,-4.31614 0.24534,-0.48946 0.42667,-0.97853 0.552,-1.4692 0.12134,-0.49013 0.30534,-0.97973 0.54934,-1.46986 0.48933,-1.28587 0.98,-2.602 1.47066,-3.94894 0.48934,-1.34626 0.97867,-2.66346 1.46934,-3.94946 0.48933,-1.22441 0.948,-2.43441 1.37733,-3.62814 0.428,-1.19427 0.888,-2.40253 1.37867,-3.6276 1.40666,-3.36667 2.708,-6.76507 3.90267,-10.1948 1.19333,-3.42813 2.49466,-6.826 3.904,-10.1948 0.12133,-0.3052 0.21333,-0.58067 0.27466,-0.826 0.06,-0.24373 0.152,-0.51933 0.27467,-0.82653 0.48933,-1.286 0.98,-2.6016 1.47067,-3.94947 0.48933,-1.3464 1.01066,-2.6636 1.56133,-3.94907 0.30533,-0.67333 0.56533,-1.36186 0.78133,-2.06666 0.21334,-0.7036 0.596,-1.27027 1.148,-1.69827 0.304,-0.184 0.70267,-0.336 1.192,-0.46 0.12267,-0.06 0.24534,-0.076 0.368,-0.0453 0.12267,0.0307 0.244,0.0147 0.36667,-0.0467 h 8.084 c 0.672,0 1.36133,-0.0133 2.06667,-0.0467 0.70266,-0.0293 1.26933,0.108 1.69866,0.41467 0.672,0.36667 1.116,0.904 1.33067,1.6068 0.21467,0.70467 0.47333,1.42347 0.78133,2.1584 0.42667,1.0416 0.82667,2.06667 1.19334,3.07707 0.368,1.00986 0.76533,2.03533 1.19466,3.076 0.12267,0.36773 0.24534,0.73493 0.36667,1.10213 0.12267,0.3676 0.24533,0.7348 0.368,1.102 0.48933,1.22613 0.94933,2.4344 1.37733,3.6276 0.428,1.19427 0.888,2.40467 1.37734,3.62867 1.224,3.06253 2.372,6.1536 3.44533,9.276 1.07067,3.1224 2.25067,6.21466 3.536,9.27613 0.12,0.24533 0.19733,0.47493 0.22933,0.68853 0.0293,0.2156 0.10534,0.4448 0.22934,0.68907 0.368,0.98014 0.73466,1.95987 1.10133,2.93854 0.368,0.98066 0.73467,1.9604 1.10267,2.9396 0.244,0.49053 0.428,0.964 0.552,1.42293 0.12133,0.45987 0.276,0.93427 0.45733,1.42387 0.796,1.9604 1.532,3.91933 2.20667,5.8776 0.672,1.9604 1.40533,3.8896 2.20266,5.78653 0.12267,0.18387 0.184,0.35307 0.184,0.5052 0,0.1536 0.0613,0.3208 0.18267,0.5052" />
        <path
           id="path1629"
           style="fill:#0067a6;fill-opacity:1;fill-rule:nonzero;stroke:none;stroke-width:1;stroke-miterlimit:4;stroke-dasharray:none;stroke-opacity:1"
           d="m 237.72514,10.01292 h 39.58267 c 0.67467,0 1.31867,0.0307 1.93067,0.092 0.612,0.0613 1.06933,0.27467 1.37733,0.64267 0.244,0.30667 0.41333,0.72 0.50533,1.24027 0.0907,0.52093 0.13734,1.10213 0.13734,1.7448 0,0.64333 -0.0147,1.28546 -0.0467,1.92866 -0.0307,0.6428 -0.0453,1.2396 -0.0453,1.79067 0,0.4292 0.0147,0.8588 0.0453,1.28587 0.032,0.42866 0.016,0.82666 -0.0453,1.19386 -0.124,0.3072 -0.22934,0.5968 -0.32134,0.8724 -0.092,0.276 -0.26133,0.5052 -0.50533,0.68907 -0.48933,0.3676 -1.33067,0.53693 -2.52667,0.5052 -1.192,-0.0303 -2.21866,-0.0459 -3.07466,-0.0459 h -17.72667 c -0.98,0 -2.15867,-0.0141 -3.53733,-0.0464 -1.37734,-0.0296 -2.372,0.138 -2.984,0.5052 -0.36667,0.24586 -0.67467,0.70466 -0.91734,1.3776 -0.124,0.4292 -0.16933,0.9808 -0.13866,1.65373 0.0307,0.6744 0.0453,1.2552 0.0453,1.7448 v 4.40827 c 0,0.30733 -0.0147,0.67453 -0.0453,1.10213 -0.0307,0.42907 -0.016,0.79627 0.0453,1.10254 v 1.0104 c 0.12267,0.55053 0.26133,1.0104 0.41467,1.3776 0.15066,0.3672 0.47333,0.64226 0.96266,0.82613 0.30667,0.12333 0.67467,0.2 1.104,0.2296 0.428,0.0319 0.88667,0.0464 1.37734,0.0464 h 3.48933 12.76667 c 0.48933,0 1.056,-0.0145 1.69866,-0.0464 0.64267,-0.0296 1.28667,-0.0296 1.92934,0 0.64266,0.0319 1.224,0.0776 1.74533,0.13813 0.51867,0.0619 0.90133,0.18374 1.148,0.36707 0.61067,0.4292 0.90267,1.2396 0.872,2.43387 -0.0307,1.19373 -0.0467,2.28186 -0.0467,3.2604 0,0.49066 0.016,1.02613 0.0467,1.60733 0.0307,0.5828 -0.016,1.11773 -0.13733,1.60733 -0.24534,0.6744 -0.584,1.13334 -1.01067,1.3776 -0.42933,0.24534 -1.256,0.35307 -2.48,0.32187 -1.22533,-0.0308 -2.236,-0.0464 -3.03067,-0.0464 h -15.06266 c -1.164,0 -2.296,0.0319 -3.39867,0.0917 -1.10133,0.062 -1.80533,0.49107 -2.112,1.28587 -0.12267,0.18333 -0.18267,0.38333 -0.18267,0.59693 0,0.2156 -0.0333,0.41347 -0.0933,0.5968 v 0.9188 1.3776 2.47973 12.95 c 0,0.85827 0.016,1.914 0.0467,3.16867 0.0307,1.2552 -0.108,2.1584 -0.41334,2.70893 -0.184,0.3072 -0.42933,0.5052 -0.73466,0.5968 -0.30667,0.0923 -0.612,0.2 -0.91867,0.32187 -0.42933,0.12187 -0.888,0.15213 -1.37867,0.0917 -0.48933,-0.062 -0.97867,-0.0917 -1.468,-0.0917 h -5.32667 c -0.67466,0 -1.30133,-0.0145 -1.88266,-0.0463 -0.58267,-0.0297 -1.056,-0.198 -1.424,-0.50467 -0.42934,-0.30573 -0.65867,-0.78133 -0.68934,-1.42346 -0.032,-0.6432 -0.044,-1.30054 -0.044,-1.97507 V 63.5571 29.94257 16.53363 c 0,-0.8568 -0.016,-1.8672 -0.048,-3.0312 -0.0307,-1.162 0.10667,-1.98826 0.41467,-2.48026 0.244,-0.42667 0.70267,-0.73334 1.37733,-0.91734 0.12267,-0.0613 0.244,-0.076 0.36667,-0.0467 0.12267,0.032 0.244,0.016 0.368,-0.0453" />
        <path
           id="path1631"
           style="fill:#0067a6;fill-opacity:1;fill-rule:nonzero;stroke:none;stroke-width:1;stroke-miterlimit:4;stroke-dasharray:none;stroke-opacity:1"
           d="m 292.18648,9.92092 h 42.33867 c 0.73466,0 1.44,0.032 2.11333,0.092 0.672,0.0613 1.16267,0.30667 1.46933,0.73467 0.12267,0.184 0.19734,0.39867 0.22934,0.644 0.0307,0.2448 0.10666,0.49013 0.23066,0.73333 v 1.01094 c 0.06,0.42866 0.0747,0.88746 0.0453,1.3776 -0.032,0.49066 -0.0453,0.94946 -0.0453,1.3776 0,0.49066 0.0133,0.964 0.0453,1.42346 0.0293,0.4588 0.0147,0.9036 -0.0453,1.3312 -0.0627,0.30734 -0.0933,0.76667 -0.0933,1.3776 -0.18267,0.73547 -0.49067,1.226 -0.91733,1.46987 -0.36667,0.2452 -0.82667,0.3676 -1.37734,0.3676 -0.55066,0 -1.13466,0 -1.74533,0 h -6.33736 -16.62401 c -0.49066,0 -1.056,-0.014 -1.69866,-0.0463 -0.64267,-0.0297 -1.28667,-0.0297 -1.928,0 -0.644,0.0323 -1.24134,0.0916 -1.792,0.18386 -0.55067,0.0916 -0.94934,0.2296 -1.19467,0.41294 -0.428,0.30786 -0.688,0.75106 -0.78,1.33227 -0.092,0.58293 -0.13733,1.2396 -0.13733,1.97453 v 5.23493 2.66347 c 0.12266,0.4912 0.244,0.90373 0.36666,1.2396 0.12267,0.33747 0.336,0.59693 0.644,0.7808 0.36667,0.24533 0.79334,0.38333 1.28534,0.41347 0.48933,0.0319 1.00933,0.0464 1.56133,0.0464 h 4.95867 15.79733 c 0.428,0 0.96534,-0.0145 1.608,-0.0464 0.64267,-0.0301 1.26934,-0.0301 1.88267,0 0.61067,0.0319 1.17867,0.0771 1.7,0.138 0.51867,0.0615 0.90133,0.18333 1.14667,0.3672 0.30533,0.18333 0.52,0.55106 0.64266,1.10213 0.12267,0.55053 0.19867,1.14787 0.22934,1.7912 0.032,0.64267 0.032,1.30093 0,1.9744 -0.0307,0.67453 -0.0453,1.25573 -0.0453,1.7448 0,0.4292 0,0.85787 0,1.286 0,0.42853 -0.0613,0.7968 -0.184,1.102 -0.12266,0.49067 -0.36666,0.888 -0.73333,1.19373 -0.308,0.18387 -0.72133,0.30734 -1.24,0.3672 -0.52133,0.062 -1.10267,0.0923 -1.74667,0.0923 -0.64133,0 -1.28533,-0.0147 -1.928,-0.0459 -0.64266,-0.0308 -1.18,-0.0464 -1.60666,-0.0464 h -17.91067 c -0.73467,0 -1.43867,-0.014 -2.112,-0.0453 -0.67467,-0.0307 -1.30134,0 -1.88267,0.0917 -0.58133,0.0916 -1.072,0.27547 -1.468,0.55107 -0.4,0.27493 -0.68933,0.68853 -0.87467,1.24 -0.0613,0.3068 -0.0907,0.62813 -0.0907,0.96413 0,0.33747 0,0.6588 0,0.964 v 3.49067 5.1432 c 0,0.7344 0.0453,1.39333 0.13733,1.97453 0.092,0.5828 0.352,1.026 0.78,1.3312 0.184,0.18387 0.41467,0.29174 0.68933,0.32187 0.276,0.0319 0.56667,0.10733 0.872,0.22973 h 0.92 c 0.304,0.062 0.64134,0.0776 1.01067,0.0453 0.36667,-0.0297 0.70267,-0.0453 1.00933,-0.0453 h 3.85734 17.26667 4.868 c 0.48933,0 0.964,0 1.42266,0 0.46,0 0.872,0.0917 1.24134,0.27547 0.488,0.18333 0.82533,0.52093 1.008,1.01053 0.12266,0.30614 0.2,0.6744 0.23066,1.102 0.0307,0.4292 0.0467,0.888 0.0467,1.3776 v 4.22454 c 0,0.7344 -0.032,1.42346 -0.0933,2.06666 -0.0613,0.64214 -0.33734,1.11774 -0.82534,1.42347 -0.36666,0.30667 -0.84266,0.45933 -1.424,0.45933 -0.58266,0 -1.21066,0 -1.88266,0 h -6.888 -27.18534 -7.256 c -0.85867,0 -1.608,-0.0464 -2.24933,-0.138 -0.64267,-0.0923 -1.11867,-0.38186 -1.424,-0.8724 -0.24534,-0.3672 -0.368,-0.8412 -0.368,-1.42346 0,-0.5812 0,-1.1484 0,-1.69894 V 64.56756 39.58583 19.56449 13.87076 c 0,-0.5516 0,-1.10267 0,-1.65373 0,-0.55107 0.12266,-0.9788 0.368,-1.28547 0.244,-0.428 0.70266,-0.73467 1.37733,-0.91867 0.12267,-0.06 0.244,-0.076 0.36667,-0.0453 0.12266,0.0307 0.24533,0.0147 0.368,-0.0467" />
      </g>
    </g>
  </g>
  <g
     transform="translate(404.95425,16.383901)"
     inkscape:label="Icon"
     id="layer1"
     inkscape:groupmode="layer">
    <g
       style="stroke:none;stroke-width:0.783386;stroke-miterlimit:4;stroke-dasharray:none;stroke-opacity:1"
       transform="matrix(1.3962687,0,0,1.3962687,-16.314382,-16.314382)"
       id="g1002">
      <circle
         style="stroke:none;stroke-width:0.723956;stroke-miterlimit:4;stroke-dasharray:none;stroke-opacity:1"
         class="cls-2"
         cx="41.169998"
         cy="41.169998"
         r="38.046726"
         id="circle898" />
      <circle
         style="stroke:none;stroke-width:0.783386;stroke-miterlimit:4;stroke-dasharray:none;stroke-opacity:1"
         class="cls-3"
         cx="40.68"
         cy="41.169998"
         r="32.919998"
         id="circle900" />
      <path
         d="m 39.226562,18.642578 c -0.716564,-0.02864 -1.478984,0.0107 -2.287109,0.126953 -10.311339,1.483302 -9.729289,12.529014 -9.070312,17.136719 l -1.189453,0.173828 A 1.88,1.88 0 0 0 24.900391,38 l 3.230468,22.5 a 1.88,1.88 0 0 0 2.259766,1.359375 l 24.898437,-3.580078 a 1.89,1.89 0 0 0 1.78125,-1.939453 L 53.830078,33.849609 A 1.88,1.88 0 0 0 51.580078,32.5 l -1.095703,0.158203 C 49.864614,28.412802 47.57536,18.97624 39.226562,18.642578 Z m -0.777343,4.917969 c 5.933305,-0.291897 7.361317,6.226471 7.703125,9.71875 l -13.654297,1.958984 c -0.789846,-3.586613 -1.467343,-10.648083 5.142578,-11.597656 0.278438,-0.04 0.547835,-0.06725 0.808594,-0.08008 z m 1.759765,19.058594 c 1.531387,0.03555 2.819219,0.955 3.011719,2.25 a 2.64,2.64 0 0 1 -1.130859,2.43164 l 2.041015,3.898438 -6.570312,0.941406 0.849609,-4.330078 a 2.64,2.64 0 0 1 -1.769531,-2 c -0.21,-1.48 1.088437,-2.890391 2.898437,-3.150391 0.226251,-0.0325 0.451153,-0.04609 0.669922,-0.04102 z"
         id="path906"
         style="fill:#ffffff;stroke:none;stroke-width:0.783386;stroke-miterlimit:4;stroke-dasharray:none;stroke-opacity:1" />
    </g>
    <g
       style="display:inline"
       inkscape:label="Highlight"
       id="layer4"
       inkscape:groupmode="layer">
      <g
         transform="matrix(1.3962687,0,0,1.3962687,-16.314382,-16.314382)"
         class="cls-4"
         mask="url(#mask)"
         id="g904">
        <ellipse
           class="cls-5"
           cx="40.68"
           cy="29.17"
           rx="24.07"
           ry="20.17"
           id="ellipse902" />
      </g>
    </g>
  </g>
  <g
     style="filter:url(#filter1004)"
     transform="translate(404.95425,16.383901)"
     inkscape:label="Text"
     id="layer3"
     inkscape:groupmode="layer">
    <g
       transform="translate(0,-1.513937)"
       style="fill:#ffffff;fill-opacity:1;stroke:#ffffff;stroke-width:1;stroke-miterlimit:4;stroke-dasharray:none;stroke-opacity:1"
       id="g1020">
      <g
         id="g995"
         style="fill:#ffffff;fill-opacity:1;stroke:#ffffff;stroke-width:1;stroke-miterlimit:4;stroke-dasharray:none;stroke-opacity:1">
        <path
           d="m -374.40248,8.5435901 c 11.87813,-0.184 20.052,3.3381299 24.52186,10.5619999 0.61147,0.97973 1.0864,1.99013 1.424,3.0308 0.33587,1.0416 0.6572,2.17347 0.964,3.3984 0.1224,0.49013 0.16827,1.05573 0.138,1.6984 -0.0317,0.64333 -0.1692,1.11827 -0.41293,1.424 -0.30733,0.3672 -0.73547,0.59693 -1.286,0.68853 -0.55107,0.0917 -1.164,0.138 -1.8364,0.138 h -5.78707 c -0.55053,0 -1.102,0 -1.65253,0 -0.5516,0 -1.0104,-0.0604 -1.3776,-0.18333 -0.73493,-0.30627 -1.19427,-0.79587 -1.3776,-1.47027 -0.18387,-0.6724 -0.4292,-1.34586 -0.73493,-2.02026 -0.24587,-0.61094 -0.5828,-1.25427 -1.0104,-1.92867 -0.4292,-0.67293 -0.888,-1.19427 -1.3776,-1.56147 -0.8584,-0.61146 -1.6844,-1.13226 -2.48027,-1.56093 -0.7344,-0.30627 -1.63853,-0.56613 -2.7088,-0.7808 -1.0724,-0.214 -2.17453,-0.35147 -3.3068,-0.41347 -1.13333,-0.0604 -2.25,-0.0297 -3.35213,0.0916 -1.10201,0.124 -2.08227,0.3672 -2.93907,0.73547 -1.40934,0.61253 -2.4952,1.3312 -3.2604,2.15773 -0.76614,0.82667 -1.30107,2.06667 -1.6072,3.71987 -0.12294,0.42867 -0.15374,0.90413 -0.0917,1.42347 0.0604,0.5208 0.15266,0.93426 0.2756,1.2396 0.48946,1.28586 1.178,2.19 2.06613,2.70986 0.88747,0.5208 1.94373,1.026 3.16867,1.51507 0.67293,0.30733 1.362,0.53693 2.06613,0.6896 0.70427,0.15253 1.424,0.35253 2.15947,0.59587 1.65253,0.55146 3.352,1.02653 5.0968,1.42386 1.7448,0.39907 3.47453,0.8428 5.18907,1.3324 0.30573,0.1228 0.61146,0.18334 0.91826,0.18334 0.30627,0 0.61147,0.0619 0.9188,0.18373 1.22387,0.42867 2.49427,0.82667 3.81094,1.19387 1.31666,0.36706 2.49426,0.888 3.5364,1.56133 1.65306,1.04173 3.076,2.08187 4.27026,3.1224 1.19374,1.04227 2.3104,2.38813 3.3532,4.04173 0.3052,0.49014 0.56454,1.0416 0.78014,1.65254 0.2136,0.61306 0.44333,1.2256 0.68906,1.83706 0.06,0.18334 0.0917,0.35254 0.0917,0.5052 0,0.1536 0.0296,0.2916 0.0916,0.41307 0.24374,0.98013 0.3672,2.20467 0.3672,3.67387 0.12187,0.3068 0.12187,0.61306 0,0.91826 v 1.6536 c -0.12346,0.67454 -0.2296,1.31667 -0.32133,1.92814 -0.0916,0.61306 -0.2292,1.22613 -0.4136,1.83746 -0.36707,1.1016 -0.76613,2.112 -1.1932,3.03027 -0.42907,0.9188 -0.95053,1.8068 -1.562,2.6636 -0.2452,0.3072 -0.49,0.5672 -0.73427,0.78067 -0.24533,0.2156 -0.46,0.47506 -0.64333,0.7808 -0.30667,0.36706 -0.64267,0.72026 -1.00987,1.05613 -0.36773,0.33707 -0.76666,0.6584 -1.19373,0.96467 -0.30733,0.24533 -0.6292,0.49053 -0.96507,0.7344 -0.33706,0.2452 -0.68853,0.49053 -1.05573,0.7348 -1.04173,0.67453 -2.12813,1.22506 -3.2604,1.6532 -1.13334,0.42866 -2.312,0.85773 -3.536,1.28533 -0.85774,0.30627 -1.74534,0.5052 -2.66347,0.59747 -0.91827,0.0916 -1.83707,0.22973 -2.7552,0.41306 -0.42867,0.12187 -0.84227,0.16814 -1.24013,0.138 -0.39894,-0.0319 -0.7808,0.0145 -1.148,0.13747 h -0.7348 c -0.12294,0 -0.2912,-0.0156 -0.5052,-0.0453 -0.2152,-0.0323 -0.38294,-0.0167 -0.5052,0.0453 -0.3068,0.0604 -0.82614,0.0916 -1.56107,0.0916 -0.73427,0 -1.2556,-0.0312 -1.56133,-0.0916 h -0.9188 c -0.4292,-0.12293 -0.8724,-0.16933 -1.3312,-0.13747 -0.46,0.0301 -0.8724,-0.0161 -1.24014,-0.138 -0.3068,0 -0.5828,-0.0157 -0.82653,-0.0459 -0.24533,-0.0313 -0.52093,-0.0776 -0.82667,-0.13746 -0.73426,-0.18387 -1.50093,-0.3376 -2.29626,-0.46 -0.79587,-0.12293 -1.53134,-0.30627 -2.20374,-0.55053 -3.00053,-0.97854 -5.63426,-2.21867 -7.8984,-3.7192 -2.26613,-1.5 -4.16453,-3.47507 -5.6948,-5.924 -0.97973,-1.47027 -1.7448,-3.21507 -2.2964,-5.23494 -0.1228,-0.36813 -0.19893,-0.73533 -0.22853,-1.102 -0.0324,-0.36826 -0.1084,-0.76506 -0.23027,-1.19426 -0.12346,-0.4896 -0.21506,-1.08654 -0.27493,-1.7912 -0.062,-0.70307 0.0599,-1.24014 0.36667,-1.6072 0.30613,-0.48907 0.74946,-0.7808 1.33226,-0.8724 0.58067,-0.0917 1.2396,-0.13814 1.9744,-0.13814 h 5.786 c 0.4896,0 1.0104,0 1.56147,0 0.55107,0 1.04013,0.0917 1.4692,0.27614 0.67293,0.30666 1.07093,0.812 1.19373,1.51506 0.1224,0.70467 0.336,1.42347 0.64334,2.15787 0.24426,0.73533 0.55093,1.40987 0.91866,2.0208 0.3672,0.61293 0.76467,1.19427 1.19334,1.7448 0.30613,0.36813 0.6432,0.7052 1.0104,1.0104 0.3676,0.30733 0.7348,0.5828 1.102,0.82707 1.34693,0.85786 2.99946,1.56093 4.95987,2.112 0.42773,0.12346 0.8412,0.1844 1.2396,0.1844 0.398,0 0.8412,0.0609 1.3324,0.18333 h 0.4588 c 0.4896,0.12293 1.16253,0.18387 2.0208,0.18387 0.8568,0 1.52973,-0.0609 2.0204,-0.18387 0.18373,-0.0604 0.48906,-0.0917 0.91813,-0.0917 0.30627,-0.0604 0.62707,-0.1068 0.96467,-0.138 0.33533,-0.0303 0.6572,-0.10626 0.96453,-0.22973 2.08067,-0.55093 3.73387,-1.28587 4.9588,-2.20414 1.22507,-0.91826 2.08187,-2.4484 2.57187,-4.59213 0.1224,-0.4276 0.13813,-0.9188 0.0459,-1.46933 -0.0916,-0.55107 -0.19894,-0.97867 -0.32134,-1.28587 -0.61253,-1.6532 -1.65306,-2.93907 -3.1224,-3.85733 -0.18386,-0.12187 -0.5208,-0.30627 -1.0104,-0.55107 -0.9188,-0.5516 -1.9448,-0.9948 -3.07653,-1.33173 -1.13387,-0.336 -2.25,-0.68907 -3.35267,-1.05627 -0.4292,-0.1224 -0.84213,-0.22973 -1.2396,-0.32133 -0.39893,-0.0923 -0.84213,-0.198 -1.33173,-0.32187 -0.98014,-0.3052 -1.97454,-0.5652 -2.98547,-0.7808 -1.0104,-0.21347 -1.9744,-0.47293 -2.89213,-0.78013 -0.30734,-0.12187 -0.5516,-0.18387 -0.73547,-0.18387 -0.18333,0 -0.39893,-0.0604 -0.6432,-0.18333 -0.49013,-0.1224 -0.93333,-0.24427 -1.3312,-0.36827 -0.39893,-0.12133 -0.84227,-0.2432 -1.33173,-0.3672 -1.40894,-0.48853 -2.75534,-0.99373 -4.0412,-1.5156 -1.286,-0.5188 -2.47974,-1.1156 -3.5812,-1.79013 -1.41001,-0.91867 -2.69534,-1.98907 -3.85734,-3.21454 -1.16453,-1.22453 -2.0828,-2.63173 -2.75627,-4.22507 -0.2448,-0.55146 -0.4292,-1.11666 -0.55053,-1.69893 -0.124,-0.58173 -0.27547,-1.20827 -0.4588,-1.8828 -0.124,-0.55107 -0.2156,-1.34587 -0.27667,-2.388 -0.0609,-1.04067 -0.0312,-1.89747 0.0928,-2.57187 0.0599,-0.2432 0.0916,-0.61093 0.0916,-1.10213 0.18387,-0.6724 0.33547,-1.3156 0.45947,-1.92867 0.12133,-0.61093 0.3052,-1.22386 0.55053,-1.8364 0.91867,-2.14266 2.0968,-3.96413 3.5364,-5.46453 1.43747,-1.5 3.1068,-2.86147 5.0052,-4.0876 1.224,-0.73493 2.5396,-1.31493 3.94894,-1.74427 1.40786,-0.428 2.90786,-0.82666 4.5,-1.19466 0.61146,-0.12134 1.20893,-0.19734 1.7912,-0.22934 0.5812,-0.0307 1.17866,-0.1066599 1.79107,-0.2293299 0.18333,-0.0613 0.474,-0.0613 0.8724,0 0.398,0.0613 0.65786,0.0307 0.7808,-0.092"
           style="fill:#ffffff;fill-opacity:1;fill-rule:nonzero;stroke:#ffffff;stroke-width:1;stroke-miterlimit:4;stroke-dasharray:none;stroke-opacity:1"
           id="path935" />
        <path
           d="m -302.21488,9.92092 h 9.36799 c 0.79467,0 1.576,0.016 2.34267,0.0467 0.764,0.0307 1.39067,0.19867 1.88267,0.50533 0.18266,0.12267 0.32,0.32134 0.412,0.596 0.0933,0.276 0.168,0.56747 0.23066,0.87267 v 0.4588 c 0.06,0.24533 0.0907,0.52133 0.0907,0.82707 0,0.30733 0,0.61253 0,0.91826 v 3.58227 c 0,0.4292 0.0147,0.84173 0.0467,1.2396 0.0307,0.39893 -0.016,0.7808 -0.13734,1.148 -0.308,1.04213 -0.91866,1.59267 -1.83733,1.6536 -0.91867,0.0609 -2.02,0.0916 -3.30667,0.0916 h -9.36799 c -1.22533,0 -2.28133,0.0453 -3.168,0.1376 -0.888,0.0916 -1.48533,0.6588 -1.79067,1.69893 -0.0627,0.3072 -0.0627,0.5828 0,0.82707 0.06,0.24533 0.0293,0.5208 -0.092,0.826 -0.0627,0.36773 -0.0773,0.78133 -0.0453,1.24013 0.0293,0.4588 0.0453,0.8724 0.0453,1.2396 v 8.1744 26.45054 8.63333 c 0,0.98027 -0.0453,1.8224 -0.13866,2.5256 -0.092,0.70467 -0.47467,1.20987 -1.148,1.5156 -0.428,0.12293 -0.91867,0.18387 -1.46934,0.18387 -0.55067,0 -1.072,0 -1.56133,0 h -6.2454 c -0.67466,0 -1.30133,-0.0303 -1.88266,-0.0923 -0.58267,-0.0604 -1.02534,-0.27493 -1.332,-0.6432 -0.30654,-0.48853 -0.45867,-1.11613 -0.45867,-1.8828 0,-0.764 0,-1.54533 0,-2.3416 v -9.1844 -25.53227 -7.8068 c 0,-0.42707 0.0141,-0.8724 0.0464,-1.3312 0.0297,-0.46 -0.0167,-0.8724 -0.138,-1.24013 -0.062,-0.30574 -0.062,-0.5808 0,-0.82654 0.0604,-0.24386 0.0296,-0.4896 -0.0923,-0.73493 -0.3072,-1.04013 -0.93373,-1.60733 -1.8828,-1.69893 -0.95,-0.0923 -2.06613,-0.1376 -3.352,-0.1376 h -8.54173 c -0.6744,0 -1.42347,0.0157 -2.25,0.0453 -0.826,0.0323 -1.48494,-0.014 -1.9744,-0.13694 -0.4912,-0.18386 -0.8584,-0.45986 -1.10214,-0.82706 -0.18386,-0.3052 -0.2912,-0.7032 -0.32133,-1.19374 -0.0317,-0.48906 -0.0464,-0.97866 -0.0464,-1.46986 v -4.5 c 0,-0.79533 0.0464,-1.5 0.138,-2.11253 0.0923,-0.61173 0.38187,-1.0704 0.8724,-1.37707 0.18387,-0.12266 0.51987,-0.24533 1.0104,-0.368 h 0.45947 36.73707"
           style="fill:#ffffff;fill-opacity:1;fill-rule:nonzero;stroke:#ffffff;stroke-width:1;stroke-miterlimit:4;stroke-dasharray:none;stroke-opacity:1"
           id="path939" />
        <path
           d="m -233.05888,44.27026 c 0.12266,-0.3052 0.184,-0.74947 0.184,-1.33134 0,-0.5812 -0.0613,-1.02493 -0.184,-1.33226 v -1.56094 c -0.0613,-0.24426 -0.0773,-0.474 -0.0453,-0.68906 0.0307,-0.214 -0.016,-0.4432 -0.13733,-0.68854 -0.12267,-0.4896 -0.2,-0.96506 -0.23067,-1.424 -0.0307,-0.4588 -0.10666,-0.902 -0.228,-1.3312 0,-0.30626 -0.0627,-0.6432 -0.184,-1.0104 -0.184,-0.67346 -0.368,-1.3464 -0.552,-2.0208 -0.18266,-0.67346 -0.428,-1.34586 -0.73333,-2.0204 -1.348,-3.12293 -3.29333,-5.6484 -5.83333,-7.5776 -2.54134,-1.92813 -6.07734,-2.89213 -10.608,-2.89213 -0.12267,0.0609 -0.26,0.0776 -0.41334,0.0453 -0.15333,-0.0297 -0.29066,-0.0141 -0.41333,0.0463 -0.24533,0.0609 -0.49067,0.0776 -0.73333,0.0453 -0.24667,-0.0296 -0.52134,0.0156 -0.828,0.138 -0.67334,0.12346 -1.33067,0.26146 -1.97467,0.4136 -0.64133,0.1536 -1.23867,0.35306 -1.79067,0.5968 -2.572,1.1016 -4.608,2.63293 -6.10666,4.59227 -1.50134,1.95986 -2.71067,4.31613 -3.628,7.0724 -0.184,0.674 -0.32134,1.3312 -0.41334,1.9744 -0.092,0.64226 -0.23066,1.30106 -0.41333,1.97453 -0.0627,0.24533 -0.092,0.47453 -0.092,0.68853 0,0.21507 -0.0307,0.4448 -0.092,0.68907 -0.124,0.3068 -0.15333,0.64267 -0.092,1.00987 0.06,0.36773 0.06,0.70466 0,1.0104 -0.124,0.30733 -0.2,0.8724 -0.22933,1.69906 -0.032,0.82707 0.0147,1.3932 0.13733,1.69947 v 1.0104 c 0.06,0.24533 0.092,0.5052 0.092,0.78013 0,0.2756 0.0307,0.53654 0.092,0.7808 0,0.24534 0.0147,0.4744 0.0453,0.68907 0.0307,0.21507 0.0467,0.44427 0.0467,0.68853 0.184,0.6744 0.32133,1.34787 0.41333,2.02027 0.092,0.67453 0.26,1.31773 0.50534,1.9292 0.672,1.95987 1.49866,3.7812 2.48,5.46453 0.97866,1.6844 2.204,3.0464 3.67333,4.08654 0.30533,0.3072 0.62667,0.55146 0.964,0.73533 0.336,0.18333 0.68933,0.3672 1.056,0.55053 0.67333,0.4292 1.392,0.76614 2.15867,1.0104 0.76533,0.24534 1.576,0.4912 2.43466,0.73494 0.30534,0.12346 0.596,0.16933 0.872,0.13746 0.27467,-0.0296 0.56534,-0.014 0.872,0.0464 0.368,0.12294 0.73467,0.18334 1.10267,0.18334 0.36667,0 0.76533,0 1.19333,0 h 0.73467 c 0.30667,-0.0604 0.58133,-0.076 0.82667,-0.0459 0.244,0.0319 0.52,-0.0145 0.82666,-0.13747 0.61067,-0.1224 1.224,-0.22973 1.83734,-0.32133 0.61066,-0.0923 1.19333,-0.25987 1.744,-0.5052 2.63333,-1.04067 4.69866,-2.38854 6.2,-4.0412 1.5,-1.65307 2.76933,-3.79587 3.812,-6.4292 0.30533,-0.67334 0.53466,-1.40774 0.688,-2.20467 0.15333,-0.7948 0.352,-1.59107 0.59733,-2.38693 l 0.276,-2.20467 c 0.06,-0.24427 0.0907,-0.5052 0.0907,-0.7808 0,-0.27493 0,-0.5656 0,-0.8724 z m 14.236,-3.85734 c 0.12267,0.3672 0.19867,0.99587 0.23067,1.8828 0.0293,0.888 -0.016,1.5156 -0.13867,1.8828 v 1.19374 c -0.12267,0.61306 -0.184,1.25626 -0.184,1.92866 0,0.67454 -0.0613,1.34747 -0.18267,2.0208 -0.124,0.4292 -0.216,0.8584 -0.276,1.286 -0.0613,0.42867 -0.15333,0.85787 -0.27466,1.28547 -0.30801,1.10253 -0.59734,2.17387 -0.87334,3.21453 -0.276,1.04214 -0.628,2.05214 -1.056,3.0312 -1.83733,4.28654 -4.316,7.85214 -7.44,10.69894 -3.12267,2.848 -6.98,5.03706 -11.572,6.5672 -0.67467,0.24426 -1.34667,0.4276 -2.02,0.55053 -0.67467,0.1224 -1.348,0.24427 -2.02133,0.36827 -0.30667,0.12133 -0.628,0.18333 -0.964,0.18333 -0.33734,0 -0.65867,0.0303 -0.964,0.0917 l -3.03067,0.27547 c -0.24533,0.0604 -0.67467,0.076 -1.28533,0.0464 -0.61334,-0.0319 -1.01067,-0.0776 -1.19467,-0.13813 -0.30667,-0.0619 -0.59733,-0.0776 -0.87333,-0.0457 -0.27467,0.0301 -0.56534,0.0145 -0.872,-0.0459 h -1.01067 c -0.48933,-0.124 -0.94933,-0.19947 -1.37733,-0.23027 -0.42934,-0.0307 -0.888,-0.1072 -1.37734,-0.22907 -0.49066,-0.12346 -0.98,-0.22973 -1.46933,-0.32146 -0.49067,-0.0916 -0.98,-0.19947 -1.46933,-0.32187 -0.67467,-0.24373 -1.364,-0.48947 -2.06667,-0.73427 -0.704,-0.24386 -1.39333,-0.51933 -2.06667,-0.82666 -3.67333,-1.5916 -6.78133,-3.71921 -9.32266,-6.38281 -2.54,-2.664 -4.608,-5.83226 -6.19867,-9.50573 -0.36667,-0.85667 -0.67467,-1.75987 -0.91867,-2.70987 -0.24533,-0.9484 -0.52133,-1.91253 -0.82666,-2.8932 -0.12267,-0.3052 -0.184,-0.56506 -0.184,-0.7808 0,-0.21346 -0.0307,-0.4432 -0.092,-0.68853 -0.12267,-0.4276 -0.21467,-0.8724 -0.27467,-1.3312 -0.0613,-0.45987 -0.15333,-0.9328 -0.276,-1.424 -0.0613,-0.3052 -0.0773,-0.5968 -0.0453,-0.8724 0.0307,-0.27547 -0.016,-0.53533 -0.13734,-0.78067 -0.0627,-0.3672 -0.0627,-0.74946 0,-1.1484 0.06,-0.39693 0.06,-0.7808 0,-1.148 -0.124,-0.3052 -0.184,-0.78013 -0.184,-1.42293 0,-0.6432 0.06,-1.11667 0.184,-1.42387 0.06,-0.30573 0.06,-0.59693 0,-0.8724 -0.0627,-0.2756 -0.0627,-0.56573 0,-0.8724 v -0.55106 c 0.12134,-0.42814 0.168,-0.84174 0.13734,-1.24014 -0.032,-0.39733 0.0133,-0.78013 0.13733,-1.1484 0.12267,-0.3052 0.184,-0.62653 0.184,-0.96413 0,-0.33587 0.06,-0.65667 0.184,-0.964 0.30533,-1.04067 0.55067,-2.06667 0.73467,-3.07707 0.184,-1.0104 0.45866,-2.00426 0.82666,-2.98493 0.48934,-1.04013 0.948,-2.08067 1.37734,-3.1224 0.42666,-1.04013 0.94933,-2.0208 1.56133,-2.9396 1.83733,-2.93853 3.94933,-5.3864 6.33733,-7.3468 2.388,-1.95893 5.29467,-3.6428 8.724,-5.05213 0.796,-0.30534 1.63734,-0.55067 2.52667,-0.73467 0.88667,-0.18267 1.75867,-0.396 2.61733,-0.64267 0.30534,-0.12133 0.59734,-0.18266 0.87334,-0.18266 0.27466,0 0.564,-0.0307 0.872,-0.092 l 2.75466,-0.276 c 0.12267,-0.06 0.29067,-0.06 0.50534,0 0.21333,0.0613 0.38133,0.0613 0.50533,0 4.34667,-0.12267 8.112,0.32133 11.296,1.332 3.184,1.01066 6.03067,2.40333 8.54267,4.1788 0.79466,0.55106 1.62133,1.17973 2.47866,1.8828 0.85734,0.70413 1.56134,1.42293 2.112,2.1584 0.30667,0.3072 0.612,0.62813 0.91867,0.964 0.30667,0.33693 0.58133,0.65893 0.828,0.96413 0.672,0.98067 1.34533,1.9744 2.02,2.9848 0.67333,1.0104 1.25467,2.09853 1.74533,3.2604 0.36667,0.8584 0.688,1.68493 0.964,2.48027 0.27467,0.79586 0.56534,1.65266 0.872,2.57133 0.184,0.61307 0.336,1.2396 0.45867,1.8828 0.12267,0.6428 0.276,1.3016 0.46,1.97453 0.12134,0.4292 0.184,0.84267 0.184,1.2396 0,0.39947 0.06,0.7812 0.184,1.1484 0.12134,0.36774 0.168,0.75107 0.13734,1.14787 -0.032,0.39907 -0.016,0.75053 0.0453,1.05627 v 0.73493"
           style="fill:#ffffff;fill-opacity:1;fill-rule:nonzero;stroke:#ffffff;stroke-width:1;stroke-miterlimit:4;stroke-dasharray:none;stroke-opacity:1"
           id="path943" />
        <path
           d="m -168.76821,31.87119 c 0.12266,-0.67227 0.13733,-1.49947 0.0453,-2.47907 -0.0907,-0.9792 -0.19867,-1.7136 -0.32133,-2.20466 -0.12267,-0.24387 -0.18267,-0.45894 -0.18267,-0.64334 0,-0.18333 -0.0613,-0.3672 -0.184,-0.55053 -0.73467,-1.8968 -2.08267,-3.2744 -4.04133,-4.1328 -1.04134,-0.4896 -2.236,-0.76507 -3.58134,-0.82707 -1.348,-0.0593 -2.756,-0.0916 -4.22533,-0.0916 h -10.65333 c -0.124,0.12387 -0.24534,0.1692 -0.368,0.138 -0.12267,-0.0308 -0.24534,-0.0464 -0.36667,-0.0464 -0.73467,0.18387 -1.22533,0.4912 -1.46933,0.9188 -0.308,0.49107 -0.44534,1.11774 -0.41467,1.8828 0.0307,0.76614 0.0467,1.51507 0.0467,2.25 v 8.5416 c 0,0.7344 0,1.46987 0,2.20374 0,0.73533 0.152,1.31773 0.45866,1.74586 0.244,0.36707 0.644,0.6124 1.19467,0.73427 0.55067,0.12347 1.16267,0.2152 1.83733,0.27507 0.672,0.062 1.37734,0.0776 2.112,0.0464 0.73467,-0.0297 1.37734,-0.0464 1.92934,-0.0464 h 5.41866 c 0.42667,0 0.88667,0.0167 1.37734,0.0464 0.48933,0.0312 0.91866,-0.0141 1.28533,-0.13814 h 1.19467 c 0.488,-0.12186 0.964,-0.18333 1.42266,-0.18333 0.46,0 0.90267,-0.0599 1.332,-0.18387 1.04,-0.3052 1.95867,-0.70306 2.75467,-1.19373 0.796,-0.48907 1.46933,-1.13227 2.02133,-1.92867 0.36667,-0.55146 0.64267,-1.1624 0.82667,-1.83693 0.18267,-0.67347 0.368,-1.43747 0.55067,-2.2964 z m 15.15333,41.42147 c 0.12267,0.3676 0.10667,0.70466 -0.0453,1.0104 -0.15334,0.3072 -0.32134,0.5208 -0.50534,0.6432 -0.36666,0.30626 -0.872,0.44426 -1.51466,0.41253 -0.64267,-0.0297 -1.30134,-0.0453 -1.97467,-0.0453 h -5.052 c -0.98,0 -1.836,-0.0464 -2.572,-0.138 -0.73333,-0.0923 -1.28533,-0.44373 -1.652,-1.05627 -0.49067,-0.7948 -0.76667,-1.7756 -0.82667,-2.93853 -0.0613,-1.16307 -0.216,-2.26507 -0.46,-3.3068 0,-0.24427 -0.0147,-0.47347 -0.0453,-0.68907 -0.032,-0.2136 -0.0467,-0.41306 -0.0467,-0.59693 -0.18266,-0.73427 -0.27466,-1.51507 -0.27466,-2.3416 0,-0.82707 -0.0613,-1.57547 -0.184,-2.25 -0.0613,-0.18387 -0.092,-0.45987 -0.092,-0.82707 -0.12267,-0.67293 -0.22934,-1.362 -0.32134,-2.06613 -0.092,-0.7032 -0.22933,-1.39227 -0.41333,-2.06667 -0.49067,-1.40733 -1.072,-2.66306 -1.744,-3.7656 -0.67467,-1.10213 -1.624,-1.92866 -2.848,-2.47973 -0.30667,-0.12187 -0.61333,-0.2136 -0.91867,-0.27547 -0.30666,-0.0605 -0.64266,-0.15213 -1.00933,-0.27506 -1.10267,-0.36827 -2.37467,-0.5516 -3.812,-0.5516 -1.43867,0 -2.86267,0 -4.27067,0 h -7.53066 c -0.492,0.12346 -0.91867,0.2156 -1.28667,0.2756 -0.36667,0.0615 -0.67467,0.24533 -0.91867,0.55106 -0.49066,0.61294 -0.704,1.56134 -0.64266,2.84734 0.06,1.28546 0.092,2.44946 0.092,3.49013 v 11.75573 c 0,0.49107 -0.016,0.99627 -0.0467,1.51507 -0.0307,0.52133 -0.0453,1.026 -0.0453,1.5156 0,0.49066 0,0.9344 0,1.33173 0,0.39853 -0.0613,0.75 -0.18267,1.05627 -0.184,0.55053 -0.552,0.9188 -1.10267,1.10213 -0.308,0.12293 -0.67466,0.18387 -1.10266,0.18387 -0.428,0 -0.888,0 -1.37734,0 h -4.13333 c -0.98,0 -2.02,0.0156 -3.12267,0.0453 -1.10133,0.0317 -1.928,-0.1672 -2.48,-0.5964 -0.48933,-0.30573 -0.73333,-0.87293 -0.73333,-1.69893 0,-0.82707 0,-1.63747 0,-2.4344 V 14.78839 c 0,-0.6724 -0.016,-1.3776 -0.0467,-2.11187 -0.032,-0.73493 0.10534,-1.3156 0.41334,-1.74493 0.244,-0.368 0.70266,-0.67333 1.37733,-0.91867 0.12267,-0.06 0.26,-0.076 0.41333,-0.0453 0.152,0.0307 0.28934,0.0147 0.41334,-0.0467 h 31.22666 c 0.97867,0 1.91334,0.016 2.80134,0.0467 0.88666,0.0307 1.72933,0.13733 2.52533,0.32133 0.30667,0.12267 0.628,0.184 0.964,0.184 0.336,0 0.65867,0.0613 0.96533,0.18267 0.42667,0.124 0.856,0.24533 1.28534,0.36667 0.428,0.124 0.85733,0.276 1.28533,0.46 1.53067,0.67493 2.94,1.50093 4.22533,2.48013 1.28667,0.97973 2.356,2.112 3.21467,3.39787 0.244,0.30733 0.44267,0.62866 0.59733,0.96466 0.152,0.33747 0.35067,0.65827 0.596,0.964 0.49067,0.8584 0.85734,1.7448 1.10267,2.6636 0.244,0.91867 0.52,1.92867 0.82667,3.03067 0.06,0.24533 0.076,0.4912 0.0453,0.73493 -0.0307,0.24534 0.0147,0.4912 0.13867,0.7344 v 0.82707 c 0.12133,0.49067 0.152,1.08747 0.092,1.79067 -0.0627,0.70466 -0.15467,1.27186 -0.276,1.69946 -0.124,0.49014 -0.184,0.9344 -0.184,1.3312 0,0.39894 -0.0613,0.81254 -0.184,1.24067 -0.30667,0.91773 -0.612,1.79013 -0.91734,2.61667 -0.308,0.82706 -0.70533,1.60773 -1.19466,2.34213 -0.12267,0.18387 -0.276,0.38333 -0.45867,0.59693 -0.184,0.2156 -0.33733,0.41347 -0.46,0.5968 -0.18267,0.24534 -0.38267,0.4912 -0.596,0.73494 -0.216,0.24586 -0.44533,0.45933 -0.68933,0.64266 -0.36667,0.30734 -0.73467,0.6136 -1.10267,0.9188 -0.36667,0.30734 -0.76533,0.61254 -1.19333,0.9188 -0.24534,0.18334 -0.49067,0.3828 -0.73467,0.5968 -0.24533,0.21467 -0.42933,0.47454 -0.552,0.7808 -0.12267,0.3672 -0.0613,0.6744 0.184,0.91814 0.244,0.24586 0.46,0.4292 0.644,0.55106 0.61067,0.49067 1.224,0.98027 1.836,1.46934 0.612,0.49106 1.132,1.0724 1.56133,1.7448 0.73467,1.04213 1.316,2.1124 1.74534,3.21506 0.428,1.10214 0.82666,2.35787 1.19466,3.7656 0.12134,0.55054 0.19734,1.13334 0.228,1.7448 0.0307,0.61254 0.10667,1.19374 0.23067,1.74534 0,0.3672 0.0133,0.71973 0.0453,1.05573 0.0307,0.33747 0.0467,0.68907 0.0467,1.05627 0.06,0.24533 0.076,0.5052 0.0453,0.78066 -0.032,0.27507 -0.016,0.56667 0.0453,0.8724 0.0613,0.24534 0.0773,0.49067 0.0467,0.73494 -0.032,0.24533 -0.016,0.5208 0.0453,0.82653 0.12266,0.61307 0.184,1.2552 0.184,1.92867 0,0.67453 0.06,1.31773 0.184,1.9292 l 0.276,1.65253 c 0.12133,0.55107 0.244,1.10267 0.36666,1.6532 0.12134,0.55147 0.244,1.0724 0.36667,1.56147"
           style="fill:#ffffff;fill-opacity:1;fill-rule:nonzero;stroke:#ffffff;stroke-width:1;stroke-miterlimit:4;stroke-dasharray:none;stroke-opacity:1"
           id="path947" />
        <path
           d="m -140.02287,9.92092 h 42.339988 c 0.73467,0 1.43734,0.032 2.112,0.092 0.67334,0.0613 1.16267,0.30667 1.46934,0.73467 0.12266,0.184 0.19866,0.39867 0.23066,0.644 0.0293,0.2448 0.10534,0.49013 0.22934,0.73333 v 1.01094 c 0.06,0.42866 0.076,0.88746 0.0453,1.3776 -0.0307,0.49066 -0.0453,0.94946 -0.0453,1.3776 0,0.49066 0.0147,0.964 0.0453,1.42346 0.0307,0.4588 0.0147,0.9036 -0.0453,1.3312 -0.0613,0.30734 -0.092,0.76667 -0.092,1.3776 -0.184,0.73547 -0.49067,1.226 -0.91867,1.46987 -0.368,0.2452 -0.82667,0.3676 -1.37733,0.3676 -0.552,0 -1.13467,0 -1.74534,0 h -6.337328 -16.62266 c -0.49066,0 -1.05733,-0.014 -1.7,-0.0463 -0.64266,-0.0297 -1.28533,-0.0297 -1.92933,0 -0.64133,0.0323 -1.23867,0.0916 -1.79067,0.18386 -0.55066,0.0916 -0.94933,0.2296 -1.19333,0.41294 -0.42933,0.30786 -0.688,0.75106 -0.78133,1.33227 -0.092,0.58293 -0.13734,1.2396 -0.13734,1.97453 v 5.23493 2.66347 c 0.12267,0.4912 0.244,0.90373 0.368,1.2396 0.12134,0.33747 0.336,0.59693 0.64267,0.7808 0.36667,0.24533 0.79467,0.38333 1.28533,0.41347 0.48934,0.0319 1.01067,0.0464 1.56134,0.0464 h 4.96 15.79732 c 0.42667,0 0.964,-0.0145 1.60667,-0.0464 0.64266,-0.0301 1.26933,-0.0301 1.88266,0 0.610672,0.0319 1.178672,0.0771 1.698672,0.138 0.519996,0.0615 0.903996,0.18333 1.149326,0.3672 0.30534,0.18333 0.51867,0.55106 0.64267,1.10213 0.12133,0.55053 0.19733,1.14787 0.22933,1.7912 0.0293,0.64267 0.0293,1.30093 0,1.9744 -0.032,0.67453 -0.0467,1.25573 -0.0467,1.7448 0,0.4292 0,0.85787 0,1.286 0,0.42853 -0.0613,0.7968 -0.18267,1.102 -0.124,0.49067 -0.368,0.888 -0.73467,1.19373 -0.308,0.18387 -0.72133,0.30734 -1.239996,0.3672 -0.52133,0.062 -1.10266,0.0923 -1.745332,0.0923 -0.64267,0 -1.28533,-0.0147 -1.92933,-0.0459 -0.64267,-0.0308 -1.18,-0.0464 -1.60667,-0.0464 h -17.90932 c -0.73467,0 -1.44,-0.014 -2.112,-0.0453 -0.67467,-0.0307 -1.30267,0 -1.884,0.0917 -0.58267,0.0916 -1.07067,0.27547 -1.46934,0.55107 -0.39866,0.27493 -0.688,0.68853 -0.872,1.24 -0.0613,0.3068 -0.092,0.62813 -0.092,0.96413 0,0.33747 0,0.6588 0,0.964 v 3.49067 5.1432 c 0,0.7344 0.0453,1.39333 0.13734,1.97453 0.0933,0.5828 0.352,1.026 0.78133,1.3312 0.184,0.18387 0.41333,0.29174 0.68933,0.32187 0.27467,0.0319 0.56534,0.10733 0.872,0.22973 h 0.91867 c 0.30533,0.062 0.64267,0.0776 1.00933,0.0453 0.368,-0.0297 0.704,-0.0453 1.01067,-0.0453 h 3.85733 17.26666 4.867998 c 0.48933,0 0.964,0 1.424,0 0.45867,0 0.872,0.0917 1.23867,0.27547 0.49066,0.18333 0.828,0.52093 1.01066,1.01053 0.12267,0.30614 0.19867,0.6744 0.23067,1.102 0.0293,0.4292 0.0453,0.888 0.0453,1.3776 v 4.22454 c 0,0.7344 -0.032,1.42346 -0.092,2.06666 -0.0613,0.64214 -0.33733,1.11774 -0.82666,1.42347 -0.368,0.30667 -0.84267,0.45933 -1.424,0.45933 -0.58267,0 -1.20934,0 -1.88267,0 h -6.887998 -27.18532 -7.256 c -0.85734,0 -1.60667,-0.0464 -2.24934,-0.138 -0.644,-0.0923 -1.11866,-0.38186 -1.424,-0.8724 -0.24533,-0.3672 -0.368,-0.8412 -0.368,-1.42346 0,-0.5812 0,-1.1484 0,-1.69894 V 64.56756 39.58583 19.56449 13.87076 c 0,-0.5516 0,-1.10267 0,-1.65373 0,-0.55107 0.12267,-0.9788 0.368,-1.28547 0.244,-0.428 0.70267,-0.73467 1.37734,-0.91867 0.12266,-0.06 0.244,-0.076 0.368,-0.0453 0.12133,0.0307 0.244,0.0147 0.36666,-0.0467"
           style="fill:#ffffff;fill-opacity:1;fill-rule:nonzero;stroke:#ffffff;stroke-width:1;stroke-miterlimit:4;stroke-dasharray:none;stroke-opacity:1"
           id="path951" />
        <path
           d="m -39.454872,44.91346 c 0.12133,-0.30574 0.184,-0.79534 0.184,-1.46987 0,-0.6728 -0.0627,-1.1624 -0.184,-1.46973 v -1.7448 c -0.124,-0.55107 -0.2,-1.13174 -0.22934,-1.7448 -0.032,-0.61094 -0.108,-1.16254 -0.23066,-1.6536 -0.12267,-0.3052 -0.16934,-0.59694 -0.13734,-0.8724 0.0307,-0.27507 -0.016,-0.56507 -0.13733,-0.8724 -0.308,-0.97814 -0.59733,-1.91254 -0.872,-2.80107 -0.276,-0.88693 -0.66,-1.7292 -1.14933,-2.52547 -0.91734,-1.46933 -1.97467,-2.7396 -3.168,-3.812 -1.19467,-1.0704 -2.64934,-1.97453 -4.36267,-2.70893 -0.55067,-0.18387 -1.10133,-0.35147 -1.65333,-0.5052 -0.55067,-0.15253 -1.10267,-0.2896 -1.65334,-0.41347 -0.49066,-0.0599 -0.93333,-0.10626 -1.332,-0.13746 -0.39866,-0.0303 -0.84133,-0.1068 -1.33066,-0.22974 -0.24534,-0.0604 -0.49067,-0.076 -0.736,-0.0464 -0.24534,0.0323 -0.45867,0.0167 -0.64134,-0.0453 h -2.02133 c -0.30667,-0.0604 -0.64267,-0.076 -1.01067,-0.0463 -0.36666,0.0323 -0.73466,0.0463 -1.10133,0.0463 h -4.13333 c -0.12267,0.12294 -0.32134,0.15374 -0.59734,0.0917 -0.27466,-0.0604 -0.504,-0.0604 -0.68933,0 -0.30667,0.12294 -0.612,0.22974 -0.91733,0.32187 -0.30667,0.0916 -0.552,0.29067 -0.73467,0.5968 -0.24533,0.3068 -0.368,0.7344 -0.368,1.286 0,0.55053 0,1.16307 0,1.8364 0,0.7964 -0.0147,1.62293 -0.0453,2.47973 -0.032,0.8584 -0.0467,1.71507 -0.0467,2.57187 v 25.624 c 0,0.3672 -0.0147,0.76667 -0.0453,1.19373 -0.032,0.42974 0.0147,0.79694 0.13733,1.10214 v 0.91866 c 0,0.42867 0.0147,0.84227 0.0467,1.24014 0.0293,0.3984 0.10666,0.75 0.22933,1.05626 0.36667,0.73387 1.07067,1.11774 2.112,1.14734 1.04133,0.0319 2.112,0.0464 3.21467,0.0464 2.388,0 4.80533,-0.0145 7.256,-0.0464 2.448,-0.0296 4.53066,-0.3812 6.24533,-1.05574 2.264,-0.91866 4.05467,-2.14266 5.372,-3.67386 1.31733,-1.53027 2.43467,-3.42867 3.352,-5.69427 0.24533,-0.4896 0.428,-1.04013 0.552,-1.65373 0.12133,-0.61094 0.276,-1.22387 0.45867,-1.8364 v -0.73494 c 0.12266,-0.42706 0.184,-0.88693 0.184,-1.3776 0,-0.48906 0.06,-0.97866 0.184,-1.4692 z m 14.32666,-4.40894 c 0,0.18387 0.0147,0.4292 0.0467,0.73494 0.0293,0.3068 0.0467,0.6428 0.0467,1.00986 0,0.36774 -0.0173,0.7052 -0.0467,1.01054 -0.032,0.3072 -0.0467,0.5208 -0.0467,0.6432 0,0.4292 -0.0147,0.84266 -0.0453,1.2396 -0.032,0.39893 -0.0467,0.78066 -0.0467,1.1484 -0.12266,0.3068 -0.16933,0.61253 -0.13733,0.91826 0.0307,0.3072 0.0147,0.6124 -0.0453,0.91814 -0.124,0.67506 -0.21467,1.348 -0.276,2.02093 -0.0613,0.6744 -0.184,1.34733 -0.36667,2.02027 -0.308,1.0416 -0.58267,2.0364 -0.82667,2.98493 -0.24533,0.95 -0.55066,1.8828 -0.91866,2.80147 -1.04267,2.57186 -2.328,4.89906 -3.85734,6.97973 -1.532,2.08227 -3.368,3.85787 -5.51066,5.32707 -1.22534,0.85786 -2.496,1.5932 -3.812,2.20413 -1.31734,0.61307 -2.74,1.1636 -4.27067,1.6532 -0.612,0.18387 -1.24,0.32187 -1.88267,0.41347 -0.64266,0.0917 -1.30133,0.22973 -1.97466,0.4136 -0.30667,0.0609 -0.59734,0.0916 -0.872,0.0916 -0.276,0 -0.56667,0.0313 -0.872,0.0917 -0.24534,0.062 -0.492,0.0776 -0.736,0.0459 -0.24534,-0.0303 -0.52,-0.0147 -0.82667,0.0457 -0.12267,0.062 -0.30667,0.0777 -0.55067,0.0459 -0.24533,-0.0301 -0.42933,-0.0145 -0.55066,0.0464 -0.49067,0.12133 -1.10267,0.15213 -1.83734,0.0916 -0.73466,-0.0604 -1.37733,-0.0916 -1.928,-0.0916 h -21.4 c -1.04133,0 -1.91466,-0.0464 -2.61733,-0.138 -0.70533,-0.0923 -1.20933,-0.5052 -1.516,-1.2396 -0.18267,-0.4896 -0.26,-1.24067 -0.22933,-2.25 0.0307,-1.0104 0.0467,-1.8516 0.0467,-2.526 V 15.24839 c 0,-0.73493 -0.016,-1.51573 -0.0467,-2.3428 -0.0307,-0.826 0.10666,-1.48333 0.41333,-1.974 0.244,-0.368 0.70267,-0.67333 1.37733,-0.91867 0.12267,-0.06 0.244,-0.076 0.368,-0.0453 0.12267,0.0307 0.244,0.0147 0.368,-0.0467 h 24.70534 c 0.36666,0 0.748,-0.0133 1.148,-0.0467 0.39733,-0.0293 0.74933,-0.0133 1.056,0.0467 h 1.10133 c 0.30667,0.12267 0.644,0.16934 1.01067,0.13734 0.368,-0.0293 0.704,0.016 1.01066,0.13866 0.36667,0.12267 0.71867,0.16934 1.056,0.13734 0.336,-0.0307 0.68934,0.016 1.056,0.13866 0.85734,0.18267 1.684,0.352 2.48,0.504 0.796,0.15467 1.56134,0.384 2.296,0.68907 0.67334,0.30733 1.34667,0.58293 2.02134,0.8272 0.67333,0.24467 1.31466,0.5504 1.928,0.9176 1.52933,0.9808 2.94,1.9292 4.22533,2.84747 l 0.55067,0.55106 c 0.61066,0.49107 1.16266,1.0416 1.65333,1.65307 l 0.82667,0.73493 c 0.30533,0.49107 0.65733,0.964 1.056,1.42347 0.39733,0.45933 0.74933,0.93373 1.056,1.42333 0.79466,1.286 1.5,2.64947 2.112,4.0876 0.612,1.43854 1.16266,2.95414 1.65333,4.54627 0.30667,0.7964 0.50533,1.62293 0.59733,2.4792 0.092,0.8584 0.22934,1.71507 0.41334,2.57133 0,0.30734 0.0147,0.5672 0.0467,0.78134 0.0293,0.21506 0.0453,0.44466 0.0453,0.68906 0.12133,0.36707 0.168,0.76614 0.13733,1.19374 -0.032,0.42906 0.0147,0.79626 0.13733,1.10146 v 1.0104"
           style="fill:#ffffff;fill-opacity:1;fill-rule:nonzero;stroke:#ffffff;stroke-width:1;stroke-miterlimit:4;stroke-dasharray:none;stroke-opacity:1"
           id="path955" />
      </g>
      <g
         id="g987"
         style="fill:#ffffff;fill-opacity:1;stroke:#ffffff;stroke-width:1;stroke-miterlimit:4;stroke-dasharray:none;stroke-opacity:1">
        <path
           d="m 134.31047,8.5435901 c 11.87867,-0.184 20.052,3.3381299 24.52267,10.5619999 0.61066,0.97973 1.08666,1.99013 1.42266,3.0308 0.336,1.0416 0.65867,2.17347 0.96534,3.3984 0.12266,0.49013 0.168,1.05573 0.13733,1.6984 -0.032,0.64333 -0.168,1.11827 -0.412,1.424 -0.308,0.3672 -0.736,0.59693 -1.28667,0.68853 -0.55066,0.0917 -1.164,0.138 -1.836,0.138 h -5.78666 c -0.552,0 -1.10267,0 -1.65334,0 -0.552,0 -1.01066,-0.0604 -1.37733,-0.18333 -0.73467,-0.30627 -1.19467,-0.79587 -1.37733,-1.47027 -0.184,-0.6724 -0.43067,-1.34586 -0.73467,-2.02026 -0.24667,-0.61094 -0.584,-1.25427 -1.01067,-1.92867 -0.42933,-0.67293 -0.888,-1.19427 -1.37733,-1.56147 -0.86,-0.61146 -1.68533,-1.13226 -2.48133,-1.56093 -0.73334,-0.30627 -1.63867,-0.56613 -2.70934,-0.7808 -1.07066,-0.214 -2.17466,-0.35147 -3.30533,-0.41347 -1.13467,-0.0604 -2.25067,-0.0297 -3.35333,0.0916 -1.10134,0.124 -2.08,0.3672 -2.93734,0.73547 -1.41066,0.61253 -2.496,1.3312 -3.26,2.15773 -0.768,0.82667 -1.30266,2.06667 -1.608,3.71987 -0.124,0.42867 -0.15466,0.90413 -0.0933,1.42347 0.0613,0.5208 0.15467,0.93426 0.276,1.2396 0.48933,1.28586 1.17867,2.19 2.06667,2.70986 0.88666,0.5208 1.944,1.026 3.168,1.51507 0.67466,0.30733 1.36266,0.53693 2.068,0.6896 0.70266,0.15253 1.42266,0.35253 2.15866,0.59587 1.652,0.55146 3.352,1.02653 5.096,1.42386 1.74534,0.39907 3.47467,0.8428 5.19067,1.3324 0.304,0.1228 0.61067,0.18334 0.916,0.18334 0.308,0 0.612,0.0619 0.92,0.18373 1.224,0.42867 2.49467,0.82667 3.81067,1.19387 1.31733,0.36706 2.49333,0.888 3.53733,1.56133 1.652,1.04173 3.076,2.08187 4.26933,3.1224 1.19467,1.04227 2.31067,2.38813 3.35334,4.04173 0.30533,0.49014 0.56533,1.0416 0.78,1.65254 0.21333,0.61306 0.444,1.2256 0.68933,1.83706 0.06,0.18334 0.0907,0.35254 0.0907,0.5052 0,0.1536 0.032,0.2916 0.0933,0.41307 0.24267,0.98013 0.36667,2.20467 0.36667,3.67387 0.12133,0.3068 0.12133,0.61306 0,0.91826 v 1.6536 c -0.124,0.67454 -0.23067,1.31667 -0.32134,1.92814 -0.092,0.61306 -0.22933,1.22613 -0.41466,1.83746 -0.36667,1.1016 -0.76534,2.112 -1.192,3.03027 -0.43067,0.9188 -0.95067,1.8068 -1.56267,2.6636 -0.24533,0.3072 -0.48933,0.5672 -0.73467,0.78067 -0.24533,0.2156 -0.45866,0.47506 -0.64266,0.7808 -0.30667,0.36706 -0.64267,0.72026 -1.00934,1.05613 -0.36933,0.33707 -0.76666,0.6584 -1.19466,0.96467 -0.30667,0.24533 -0.628,0.49053 -0.964,0.7344 -0.33734,0.2452 -0.68934,0.49053 -1.056,0.7348 -1.04267,0.67453 -2.128,1.22506 -3.26134,1.6532 -1.132,0.42866 -2.312,0.85773 -3.536,1.28533 -0.85733,0.30627 -1.74533,0.5052 -2.66266,0.59747 -0.91867,0.0916 -1.83734,0.22973 -2.75467,0.41306 -0.42933,0.12187 -0.84267,0.16814 -1.24133,0.138 -0.39867,-0.0319 -0.78,0.0145 -1.148,0.13747 h -0.73467 c -0.12267,0 -0.29067,-0.0156 -0.50533,-0.0453 -0.21334,-0.0323 -0.38267,-0.0167 -0.50534,0.0453 -0.30666,0.0604 -0.82533,0.0916 -1.56,0.0916 -0.73466,0 -1.25466,-0.0312 -1.56266,-0.0916 h -0.91734 c -0.42933,-0.12293 -0.87333,-0.16933 -1.332,-0.13747 -0.45866,0.0301 -0.87333,-0.0161 -1.24,-0.138 -0.308,0 -0.584,-0.0157 -0.82533,-0.0459 -0.24667,-0.0313 -0.52133,-0.0776 -0.828,-0.13746 -0.73467,-0.18387 -1.5,-0.3376 -2.296,-0.46 -0.796,-0.12294 -1.53067,-0.30627 -2.204,-0.55054 -3,-0.97853 -5.63333,-2.21866 -7.89867,-3.7192 -2.26533,-1.5 -4.164,-3.47506 -5.69467,-5.924 -0.98,-1.47026 -1.744,-3.21506 -2.29466,-5.23493 -0.124,-0.36813 -0.20134,-0.73533 -0.22934,-1.102 -0.0333,-0.36827 -0.10933,-0.76507 -0.23066,-1.19427 -0.124,-0.4896 -0.21467,-1.08653 -0.27467,-1.7912 -0.0627,-0.70306 0.06,-1.24013 0.36667,-1.6072 0.30533,-0.48906 0.74933,-0.7808 1.33066,-0.8724 0.58134,-0.0917 1.24,-0.13813 1.976,-0.13813 h 5.78534 c 0.48933,0 1.00933,0 1.56267,0 0.55066,0 1.03866,0.0917 1.468,0.27613 0.67333,0.30667 1.07066,0.812 1.19466,1.51507 0.12134,0.70467 0.336,1.42347 0.64267,2.15787 0.244,0.73533 0.55067,1.40986 0.91733,2.0208 0.368,0.61293 0.76667,1.19426 1.19467,1.7448 0.30533,0.36813 0.64267,0.7052 1.01067,1.0104 0.368,0.30733 0.736,0.5828 1.10266,0.82706 1.34667,0.85787 2.99867,1.56094 4.95867,2.112 0.428,0.12347 0.84133,0.1844 1.23867,0.1844 0.39866,0 0.84133,0.0609 1.33333,0.18334 h 0.45867 c 0.48933,0.12293 1.16266,0.18386 2.02133,0.18386 0.856,0 1.52933,-0.0609 2.02,-0.18386 0.184,-0.0604 0.49067,-0.0917 0.91867,-0.0917 0.30533,-0.0604 0.62666,-0.1068 0.96533,-0.138 0.33467,-0.0303 0.656,-0.10627 0.96267,-0.22974 2.08133,-0.55093 3.73466,-1.28586 4.96,-2.20413 1.22533,-0.91827 2.08133,-2.4484 2.572,-4.59213 0.12133,-0.4276 0.13733,-0.9188 0.0467,-1.46934 -0.0933,-0.55106 -0.20133,-0.97866 -0.32266,-1.28586 -0.612,-1.6532 -1.65334,-2.93907 -3.12267,-3.85734 -0.18267,-0.12186 -0.52133,-0.30626 -1.01067,-0.55106 -0.91866,-0.5516 -1.944,-0.9948 -3.076,-1.33174 -1.13333,-0.336 -2.24933,-0.68906 -3.352,-1.05626 -0.42933,-0.1224 -0.84266,-0.22974 -1.24,-0.32134 -0.4,-0.0923 -0.84266,-0.198 -1.332,-0.32186 -0.97866,-0.3052 -1.97466,-0.5652 -2.984,-0.7808 -1.01066,-0.21347 -1.976,-0.47294 -2.89333,-0.78014 -0.308,-0.12186 -0.552,-0.18386 -0.73467,-0.18386 -0.18533,0 -0.4,-0.0604 -0.64266,-0.18334 -0.492,-0.1224 -0.936,-0.24426 -1.332,-0.36826 -0.4,-0.12134 -0.84267,-0.2432 -1.332,-0.3672 -1.40934,-0.48854 -2.756,-0.99374 -4.04267,-1.5156 -1.28533,-0.5188 -2.47867,-1.1156 -3.58,-1.79014 -1.40933,-0.91866 -2.696,-1.98906 -3.85733,-3.21453 -1.164,-1.22453 -2.08267,-2.63173 -2.75601,-4.22507 -0.24533,-0.55146 -0.42933,-1.11666 -0.55066,-1.69893 -0.124,-0.58173 -0.276,-1.20827 -0.45867,-1.8828 -0.12533,-0.55107 -0.216,-1.34587 -0.276,-2.388 -0.0627,-1.04067 -0.032,-1.89747 0.0907,-2.57187 0.06,-0.2432 0.0933,-0.61093 0.0933,-1.10213 0.18267,-0.6724 0.33467,-1.3156 0.45867,-1.92867 0.12133,-0.61093 0.30533,-1.22386 0.54933,-1.8364 0.92,-2.14266 2.09867,-3.96413 3.53734,-5.46453 1.43733,-1.5 3.10666,-2.86147 5.00533,-4.0876 1.224,-0.73493 2.54,-1.31493 3.95067,-1.74427 1.40533,-0.428 2.90533,-0.82666 4.5,-1.19466 0.61066,-0.12134 1.208,-0.19734 1.78933,-0.22934 0.58267,-0.0307 1.17867,-0.1066599 1.79067,-0.2293299 0.18533,-0.0613 0.47466,-0.0613 0.872,0 0.39866,0.0613 0.66,0.0307 0.78133,-0.092"
           style="fill:#ffffff;fill-opacity:1;fill-rule:nonzero;stroke:#ffffff;stroke-width:1;stroke-miterlimit:4;stroke-dasharray:none;stroke-opacity:1"
           id="path959" />
        <path
           d="m 204.01981,49.96452 c 0.79333,-0.30573 1.16133,-0.82666 1.10133,-1.56146 -0.0627,-0.7344 -0.24533,-1.43747 -0.55067,-2.112 -0.124,-0.24427 -0.184,-0.474 -0.184,-0.68854 0,-0.21466 -0.0627,-0.44426 -0.18533,-0.68906 -0.79467,-2.0812 -1.52933,-4.1932 -2.20267,-6.33694 -0.67466,-2.1428 -1.44,-4.28546 -2.29733,-6.4292 -0.12133,-0.30573 -0.244,-0.68906 -0.36667,-1.1484 -0.12266,-0.45893 -0.276,-0.88706 -0.45866,-1.286 -0.18534,-0.39693 -0.39867,-0.7484 -0.64267,-1.05573 -0.24533,-0.30573 -0.552,-0.45933 -0.92,-0.45933 -0.12267,0.12333 -0.244,0.21506 -0.36667,0.27546 -0.12266,0.062 -0.24533,0.1536 -0.36666,0.2756 -0.49067,0.6124 -0.84134,1.34787 -1.056,2.20414 -0.216,0.85826 -0.476,1.6848 -0.78,2.48013 -0.73467,1.71467 -1.39334,3.45947 -1.976,5.23493 -0.58134,1.77654 -1.20934,3.5516 -1.88267,5.32654 -0.24667,0.61306 -0.46,1.20986 -0.64133,1.7912 -0.18534,0.5828 -0.36934,1.20986 -0.55334,1.8828 -0.18266,0.49013 -0.15333,1.0416 0.092,1.65306 0.30667,0.4292 0.812,0.67454 1.516,0.7344 0.70267,0.062 1.424,0.0923 2.15867,0.0923 h 6.98 c 0.55067,0 1.16267,0 1.83733,0 0.672,0 1.252,-0.0605 1.74534,-0.18386 z m 23.78533,21.03227 c 0.06,0.24533 0.168,0.55107 0.32267,0.91827 0.152,0.3676 0.276,0.75053 0.368,1.1484 0.0907,0.3984 0.10533,0.78013 0.044,1.14733 -0.0613,0.3672 -0.27467,0.64333 -0.64134,0.82707 -0.49066,0.3068 -1.30266,0.42773 -2.43333,0.3672 -1.13467,-0.0604 -2.068,-0.0916 -2.80267,-0.0916 h -4.316 c -0.49066,0 -0.93333,0.0156 -1.332,0.0453 -0.39866,0.0317 -0.78,-0.0141 -1.14933,-0.1376 -0.67467,-0.18333 -1.16267,-0.55093 -1.468,-1.102 -0.308,-0.4896 -0.53733,-1.0104 -0.68933,-1.56093 -0.15334,-0.5516 -0.352,-1.10267 -0.59734,-1.6532 -0.30666,-0.97907 -0.628,-1.95881 -0.964,-2.93947 -0.33733,-0.97867 -0.688,-1.92814 -1.056,-2.84694 -0.18266,-0.55106 -0.352,-1.05626 -0.50533,-1.5156 -0.15333,-0.45893 -0.32133,-0.8724 -0.50533,-1.2396 -0.18267,-0.3672 -0.45867,-0.68853 -0.82667,-0.96413 -0.36667,-0.27547 -0.85733,-0.47387 -1.468,-0.5968 -0.308,0 -0.59733,-0.0147 -0.872,-0.0464 -0.27733,-0.0301 -0.568,-0.0459 -0.87333,-0.0459 h -14.512 c -1.04267,0 -2.15867,-0.014 -3.352,-0.0463 -1.19334,-0.0297 -2.128,0.2 -2.80134,0.68907 -0.49066,0.3672 -0.82666,0.85773 -1.01066,1.4692 -0.18267,0.6136 -0.39867,1.22613 -0.64134,1.8376 -0.492,1.0416 -0.90533,2.128 -1.24133,3.2604 -0.33733,1.13333 -0.72,2.25 -1.14667,3.352 -0.24666,0.61253 -0.47733,1.25573 -0.69066,1.92813 -0.21467,0.67454 -0.56534,1.19427 -1.05601,1.562 -0.30533,0.2448 -0.74933,0.41307 -1.332,0.50467 -0.58133,0.0917 -1.224,0.138 -1.928,0.138 -0.704,0 -1.42266,-0.0145 -2.15733,-0.0463 -0.73467,-0.0297 -1.37733,-0.0453 -1.92933,-0.0453 -0.79734,0 -1.76134,0.0156 -2.89334,0.0453 -1.13333,0.0317 -1.944,-0.10627 -2.43333,-0.41253 -0.30667,-0.18387 -0.476,-0.45987 -0.504,-0.82707 -0.0333,-0.3672 0,-0.74947 0.0907,-1.148 0.0907,-0.39733 0.19733,-0.78013 0.32133,-1.1484 0.12133,-0.3672 0.244,-0.67293 0.368,-0.91773 0.61067,-1.40827 1.17733,-2.84787 1.69867,-4.3172 0.52,-1.4692 1.056,-2.9072 1.60666,-4.31614 0.24534,-0.48946 0.42667,-0.97853 0.552,-1.4692 0.12134,-0.49013 0.30534,-0.97973 0.54934,-1.46986 0.48933,-1.28587 0.98,-2.602 1.47066,-3.94894 0.48934,-1.34626 0.97867,-2.66346 1.46934,-3.94946 0.48933,-1.22441 0.948,-2.43441 1.37733,-3.62814 0.428,-1.19427 0.888,-2.40253 1.37867,-3.6276 1.40666,-3.36667 2.708,-6.76507 3.90267,-10.1948 1.19333,-3.42813 2.49466,-6.826 3.904,-10.1948 0.12133,-0.3052 0.21333,-0.58067 0.27466,-0.826 0.06,-0.24373 0.152,-0.51933 0.27467,-0.82653 0.48933,-1.286 0.98,-2.6016 1.47067,-3.94947 0.48933,-1.3464 1.01066,-2.6636 1.56133,-3.94907 0.30533,-0.67333 0.56533,-1.36186 0.78133,-2.06666 0.21334,-0.7036 0.596,-1.27027 1.148,-1.69827 0.304,-0.184 0.70267,-0.336 1.192,-0.46 0.12267,-0.06 0.24534,-0.076 0.368,-0.0453 0.12267,0.0307 0.244,0.0147 0.36667,-0.0467 h 8.084 c 0.672,0 1.36133,-0.0133 2.06667,-0.0467 0.70266,-0.0293 1.26933,0.108 1.69866,0.41467 0.672,0.36667 1.116,0.904 1.33067,1.6068 0.21467,0.70467 0.47333,1.42347 0.78133,2.1584 0.42667,1.0416 0.82667,2.06667 1.19334,3.07707 0.368,1.00986 0.76533,2.03533 1.19466,3.076 0.12267,0.36773 0.24534,0.73493 0.36667,1.10213 0.12267,0.3676 0.24533,0.7348 0.368,1.102 0.48933,1.22613 0.94933,2.4344 1.37733,3.6276 0.428,1.19427 0.888,2.40467 1.37734,3.62867 1.224,3.06253 2.372,6.1536 3.44533,9.276 1.07067,3.1224 2.25067,6.21466 3.536,9.27613 0.12,0.24533 0.19733,0.47493 0.22933,0.68853 0.0293,0.2156 0.10534,0.4448 0.22934,0.68907 0.368,0.98014 0.73466,1.95987 1.10133,2.93854 0.368,0.98066 0.73467,1.9604 1.10267,2.9396 0.244,0.49053 0.428,0.964 0.552,1.42293 0.12133,0.45987 0.276,0.93427 0.45733,1.42387 0.796,1.9604 1.532,3.91933 2.20667,5.8776 0.672,1.9604 1.40533,3.8896 2.20266,5.78653 0.12267,0.18387 0.184,0.35307 0.184,0.5052 0,0.1536 0.0613,0.3208 0.18267,0.5052"
           style="fill:#ffffff;fill-opacity:1;fill-rule:nonzero;stroke:#ffffff;stroke-width:1;stroke-miterlimit:4;stroke-dasharray:none;stroke-opacity:1"
           id="path963" />
        <path
           d="m 237.72514,10.01292 h 39.58267 c 0.67467,0 1.31867,0.0307 1.93067,0.092 0.612,0.0613 1.06933,0.27467 1.37733,0.64267 0.244,0.30667 0.41333,0.72 0.50533,1.24027 0.0907,0.52093 0.13734,1.10213 0.13734,1.7448 0,0.64333 -0.0147,1.28546 -0.0467,1.92866 -0.0307,0.6428 -0.0453,1.2396 -0.0453,1.79067 0,0.4292 0.0147,0.8588 0.0453,1.28587 0.032,0.42866 0.016,0.82666 -0.0453,1.19386 -0.124,0.3072 -0.22934,0.5968 -0.32134,0.8724 -0.092,0.276 -0.26133,0.5052 -0.50533,0.68907 -0.48933,0.3676 -1.33067,0.53693 -2.52667,0.5052 -1.192,-0.0303 -2.21866,-0.0459 -3.07466,-0.0459 h -17.72667 c -0.98,0 -2.15867,-0.0141 -3.53733,-0.0464 -1.37734,-0.0296 -2.372,0.138 -2.984,0.5052 -0.36667,0.24586 -0.67467,0.70466 -0.91734,1.3776 -0.124,0.4292 -0.16933,0.9808 -0.13866,1.65373 0.0307,0.6744 0.0453,1.2552 0.0453,1.7448 v 4.40827 c 0,0.30733 -0.0147,0.67453 -0.0453,1.10213 -0.0307,0.42907 -0.016,0.79627 0.0453,1.10254 v 1.0104 c 0.12267,0.55053 0.26133,1.0104 0.41467,1.3776 0.15066,0.3672 0.47333,0.64226 0.96266,0.82613 0.30667,0.12333 0.67467,0.2 1.104,0.2296 0.428,0.0319 0.88667,0.0464 1.37734,0.0464 h 3.48933 12.76667 c 0.48933,0 1.056,-0.0145 1.69866,-0.0464 0.64267,-0.0296 1.28667,-0.0296 1.92934,0 0.64266,0.0319 1.224,0.0776 1.74533,0.13813 0.51867,0.0619 0.90133,0.18374 1.148,0.36707 0.61067,0.4292 0.90267,1.2396 0.872,2.43387 -0.0307,1.19373 -0.0467,2.28186 -0.0467,3.2604 0,0.49066 0.016,1.02613 0.0467,1.60733 0.0307,0.5828 -0.016,1.11773 -0.13733,1.60733 -0.24534,0.6744 -0.584,1.13334 -1.01067,1.3776 -0.42933,0.24534 -1.256,0.35307 -2.48,0.32187 -1.22533,-0.0308 -2.236,-0.0464 -3.03067,-0.0464 h -15.06266 c -1.164,0 -2.296,0.0319 -3.39867,0.0917 -1.10133,0.062 -1.80533,0.49107 -2.112,1.28587 -0.12267,0.18333 -0.18267,0.38333 -0.18267,0.59693 0,0.2156 -0.0333,0.41347 -0.0933,0.5968 v 0.9188 1.3776 2.47973 12.95 c 0,0.85827 0.016,1.914 0.0467,3.16867 0.0307,1.2552 -0.108,2.1584 -0.41334,2.70893 -0.184,0.3072 -0.42933,0.5052 -0.73466,0.5968 -0.30667,0.0923 -0.612,0.2 -0.91867,0.32187 -0.42933,0.12187 -0.888,0.15213 -1.37867,0.0917 -0.48933,-0.062 -0.97867,-0.0917 -1.468,-0.0917 h -5.32667 c -0.67466,0 -1.30133,-0.0145 -1.88266,-0.0463 -0.58267,-0.0297 -1.056,-0.198 -1.424,-0.50467 -0.42934,-0.30573 -0.65867,-0.78133 -0.68934,-1.42346 -0.032,-0.6432 -0.044,-1.30054 -0.044,-1.97507 V 63.5571 29.94257 16.53363 c 0,-0.8568 -0.016,-1.8672 -0.048,-3.0312 -0.0307,-1.162 0.10667,-1.98826 0.41467,-2.48026 0.244,-0.42667 0.70267,-0.73334 1.37733,-0.91734 0.12267,-0.0613 0.244,-0.076 0.36667,-0.0467 0.12267,0.032 0.244,0.016 0.368,-0.0453"
           style="fill:#ffffff;fill-opacity:1;fill-rule:nonzero;stroke:#ffffff;stroke-width:1;stroke-miterlimit:4;stroke-dasharray:none;stroke-opacity:1"
           id="path967" />
        <path
           d="m 292.18648,9.92092 h 42.33867 c 0.73466,0 1.44,0.032 2.11333,0.092 0.672,0.0613 1.16267,0.30667 1.46933,0.73467 0.12267,0.184 0.19734,0.39867 0.22934,0.644 0.0307,0.2448 0.10666,0.49013 0.23066,0.73333 v 1.01094 c 0.06,0.42866 0.0747,0.88746 0.0453,1.3776 -0.032,0.49066 -0.0453,0.94946 -0.0453,1.3776 0,0.49066 0.0133,0.964 0.0453,1.42346 0.0293,0.4588 0.0147,0.9036 -0.0453,1.3312 -0.0627,0.30734 -0.0933,0.76667 -0.0933,1.3776 -0.18267,0.73547 -0.49067,1.226 -0.91733,1.46987 -0.36667,0.2452 -0.82667,0.3676 -1.37734,0.3676 -0.55066,0 -1.13466,0 -1.74533,0 h -6.33736 -16.62401 c -0.49066,0 -1.056,-0.014 -1.69866,-0.0463 -0.64267,-0.0297 -1.28667,-0.0297 -1.928,0 -0.644,0.0323 -1.24134,0.0916 -1.792,0.18386 -0.55067,0.0916 -0.94934,0.2296 -1.19467,0.41294 -0.428,0.30786 -0.688,0.75106 -0.78,1.33227 -0.092,0.58293 -0.13733,1.2396 -0.13733,1.97453 v 5.23493 2.66347 c 0.12266,0.4912 0.244,0.90373 0.36666,1.2396 0.12267,0.33747 0.336,0.59693 0.644,0.7808 0.36667,0.24533 0.79334,0.38333 1.28534,0.41347 0.48933,0.0319 1.00933,0.0464 1.56133,0.0464 h 4.95867 15.79733 c 0.428,0 0.96534,-0.0145 1.608,-0.0464 0.64267,-0.0301 1.26934,-0.0301 1.88267,0 0.61067,0.0319 1.17867,0.0771 1.7,0.138 0.51867,0.0615 0.90133,0.18333 1.14667,0.3672 0.30533,0.18333 0.52,0.55106 0.64266,1.10213 0.12267,0.55053 0.19867,1.14787 0.22934,1.7912 0.032,0.64267 0.032,1.30093 0,1.9744 -0.0307,0.67453 -0.0453,1.25573 -0.0453,1.7448 0,0.4292 0,0.85787 0,1.286 0,0.42853 -0.0613,0.7968 -0.184,1.102 -0.12266,0.49067 -0.36666,0.888 -0.73333,1.19373 -0.308,0.18387 -0.72133,0.30734 -1.24,0.3672 -0.52133,0.062 -1.10267,0.0923 -1.74667,0.0923 -0.64133,0 -1.28533,-0.0147 -1.928,-0.0459 -0.64266,-0.0308 -1.18,-0.0464 -1.60666,-0.0464 h -17.91067 c -0.73467,0 -1.43867,-0.014 -2.112,-0.0453 -0.67467,-0.0307 -1.30134,0 -1.88267,0.0917 -0.58133,0.0916 -1.072,0.27547 -1.468,0.55107 -0.4,0.27493 -0.68933,0.68853 -0.87467,1.24 -0.0613,0.3068 -0.0907,0.62813 -0.0907,0.96413 0,0.33747 0,0.6588 0,0.964 v 3.49067 5.1432 c 0,0.7344 0.0453,1.39333 0.13733,1.97453 0.092,0.5828 0.352,1.026 0.78,1.3312 0.184,0.18387 0.41467,0.29174 0.68933,0.32187 0.276,0.0319 0.56667,0.10733 0.872,0.22973 h 0.92 c 0.304,0.062 0.64134,0.0776 1.01067,0.0453 0.36667,-0.0297 0.70267,-0.0453 1.00933,-0.0453 h 3.85734 17.26667 4.868 c 0.48933,0 0.964,0 1.42266,0 0.46,0 0.872,0.0917 1.24134,0.27547 0.488,0.18333 0.82533,0.52093 1.008,1.01053 0.12266,0.30614 0.2,0.6744 0.23066,1.102 0.0307,0.4292 0.0467,0.888 0.0467,1.3776 v 4.22454 c 0,0.7344 -0.032,1.42346 -0.0933,2.06666 -0.0613,0.64214 -0.33734,1.11774 -0.82534,1.42347 -0.36666,0.30667 -0.84266,0.45933 -1.424,0.45933 -0.58266,0 -1.21066,0 -1.88266,0 h -6.888 -27.18534 -7.256 c -0.85867,0 -1.608,-0.0464 -2.24933,-0.138 -0.64267,-0.0923 -1.11867,-0.38186 -1.424,-0.8724 -0.24534,-0.3672 -0.368,-0.8412 -0.368,-1.42346 0,-0.5812 0,-1.1484 0,-1.69894 V 64.56756 39.58583 19.56449 13.87076 c 0,-0.5516 0,-1.10267 0,-1.65373 0,-0.55107 0.12266,-0.9788 0.368,-1.28547 0.244,-0.428 0.70266,-0.73467 1.37733,-0.91867 0.12267,-0.06 0.244,-0.076 0.36667,-0.0453 0.12266,0.0307 0.24533,0.0147 0.368,-0.0467"
           style="fill:#ffffff;fill-opacity:1;fill-rule:nonzero;stroke:#ffffff;stroke-width:1;stroke-miterlimit:4;stroke-dasharray:none;stroke-opacity:1"
           id="path971" />
      </g>
    </g>
  </g>
</svg>
